%TF.GenerationSoftware,KiCad,Pcbnew,8.0.2*%
%TF.CreationDate,2024-05-01T20:17:26+07:00*%
%TF.ProjectId,apiratchai_split,61706972-6174-4636-9861-695f73706c69,rev?*%
%TF.SameCoordinates,Original*%
%TF.FileFunction,Legend,Bot*%
%TF.FilePolarity,Positive*%
%FSLAX46Y46*%
G04 Gerber Fmt 4.6, Leading zero omitted, Abs format (unit mm)*
G04 Created by KiCad (PCBNEW 8.0.2) date 2024-05-01 20:17:26*
%MOMM*%
%LPD*%
G01*
G04 APERTURE LIST*
%ADD10C,0.150000*%
%ADD11C,0.120000*%
G04 APERTURE END LIST*
D10*
X90561069Y-102479464D02*
X89561069Y-102479464D01*
X89561069Y-102479464D02*
X89561069Y-102717559D01*
X89561069Y-102717559D02*
X89608688Y-102860416D01*
X89608688Y-102860416D02*
X89703926Y-102955654D01*
X89703926Y-102955654D02*
X89799164Y-103003273D01*
X89799164Y-103003273D02*
X89989640Y-103050892D01*
X89989640Y-103050892D02*
X90132497Y-103050892D01*
X90132497Y-103050892D02*
X90322973Y-103003273D01*
X90322973Y-103003273D02*
X90418211Y-102955654D01*
X90418211Y-102955654D02*
X90513450Y-102860416D01*
X90513450Y-102860416D02*
X90561069Y-102717559D01*
X90561069Y-102717559D02*
X90561069Y-102479464D01*
X90561069Y-104003273D02*
X90561069Y-103431845D01*
X90561069Y-103717559D02*
X89561069Y-103717559D01*
X89561069Y-103717559D02*
X89703926Y-103622321D01*
X89703926Y-103622321D02*
X89799164Y-103527083D01*
X89799164Y-103527083D02*
X89846783Y-103431845D01*
X89561069Y-104860416D02*
X89561069Y-104669940D01*
X89561069Y-104669940D02*
X89608688Y-104574702D01*
X89608688Y-104574702D02*
X89656307Y-104527083D01*
X89656307Y-104527083D02*
X89799164Y-104431845D01*
X89799164Y-104431845D02*
X89989640Y-104384226D01*
X89989640Y-104384226D02*
X90370592Y-104384226D01*
X90370592Y-104384226D02*
X90465830Y-104431845D01*
X90465830Y-104431845D02*
X90513450Y-104479464D01*
X90513450Y-104479464D02*
X90561069Y-104574702D01*
X90561069Y-104574702D02*
X90561069Y-104765178D01*
X90561069Y-104765178D02*
X90513450Y-104860416D01*
X90513450Y-104860416D02*
X90465830Y-104908035D01*
X90465830Y-104908035D02*
X90370592Y-104955654D01*
X90370592Y-104955654D02*
X90132497Y-104955654D01*
X90132497Y-104955654D02*
X90037259Y-104908035D01*
X90037259Y-104908035D02*
X89989640Y-104860416D01*
X89989640Y-104860416D02*
X89942021Y-104765178D01*
X89942021Y-104765178D02*
X89942021Y-104574702D01*
X89942021Y-104574702D02*
X89989640Y-104479464D01*
X89989640Y-104479464D02*
X90037259Y-104431845D01*
X90037259Y-104431845D02*
X90132497Y-104384226D01*
X128661069Y-87398214D02*
X127661069Y-87398214D01*
X127661069Y-87398214D02*
X127661069Y-87636309D01*
X127661069Y-87636309D02*
X127708688Y-87779166D01*
X127708688Y-87779166D02*
X127803926Y-87874404D01*
X127803926Y-87874404D02*
X127899164Y-87922023D01*
X127899164Y-87922023D02*
X128089640Y-87969642D01*
X128089640Y-87969642D02*
X128232497Y-87969642D01*
X128232497Y-87969642D02*
X128422973Y-87922023D01*
X128422973Y-87922023D02*
X128518211Y-87874404D01*
X128518211Y-87874404D02*
X128613450Y-87779166D01*
X128613450Y-87779166D02*
X128661069Y-87636309D01*
X128661069Y-87636309D02*
X128661069Y-87398214D01*
X128661069Y-88922023D02*
X128661069Y-88350595D01*
X128661069Y-88636309D02*
X127661069Y-88636309D01*
X127661069Y-88636309D02*
X127803926Y-88541071D01*
X127803926Y-88541071D02*
X127899164Y-88445833D01*
X127899164Y-88445833D02*
X127946783Y-88350595D01*
X127756307Y-89302976D02*
X127708688Y-89350595D01*
X127708688Y-89350595D02*
X127661069Y-89445833D01*
X127661069Y-89445833D02*
X127661069Y-89683928D01*
X127661069Y-89683928D02*
X127708688Y-89779166D01*
X127708688Y-89779166D02*
X127756307Y-89826785D01*
X127756307Y-89826785D02*
X127851545Y-89874404D01*
X127851545Y-89874404D02*
X127946783Y-89874404D01*
X127946783Y-89874404D02*
X128089640Y-89826785D01*
X128089640Y-89826785D02*
X128661069Y-89255357D01*
X128661069Y-89255357D02*
X128661069Y-89874404D01*
X187398569Y-68348214D02*
X186398569Y-68348214D01*
X186398569Y-68348214D02*
X186398569Y-68586309D01*
X186398569Y-68586309D02*
X186446188Y-68729166D01*
X186446188Y-68729166D02*
X186541426Y-68824404D01*
X186541426Y-68824404D02*
X186636664Y-68872023D01*
X186636664Y-68872023D02*
X186827140Y-68919642D01*
X186827140Y-68919642D02*
X186969997Y-68919642D01*
X186969997Y-68919642D02*
X187160473Y-68872023D01*
X187160473Y-68872023D02*
X187255711Y-68824404D01*
X187255711Y-68824404D02*
X187350950Y-68729166D01*
X187350950Y-68729166D02*
X187398569Y-68586309D01*
X187398569Y-68586309D02*
X187398569Y-68348214D01*
X186493807Y-69300595D02*
X186446188Y-69348214D01*
X186446188Y-69348214D02*
X186398569Y-69443452D01*
X186398569Y-69443452D02*
X186398569Y-69681547D01*
X186398569Y-69681547D02*
X186446188Y-69776785D01*
X186446188Y-69776785D02*
X186493807Y-69824404D01*
X186493807Y-69824404D02*
X186589045Y-69872023D01*
X186589045Y-69872023D02*
X186684283Y-69872023D01*
X186684283Y-69872023D02*
X186827140Y-69824404D01*
X186827140Y-69824404D02*
X187398569Y-69252976D01*
X187398569Y-69252976D02*
X187398569Y-69872023D01*
X186398569Y-70729166D02*
X186398569Y-70538690D01*
X186398569Y-70538690D02*
X186446188Y-70443452D01*
X186446188Y-70443452D02*
X186493807Y-70395833D01*
X186493807Y-70395833D02*
X186636664Y-70300595D01*
X186636664Y-70300595D02*
X186827140Y-70252976D01*
X186827140Y-70252976D02*
X187208092Y-70252976D01*
X187208092Y-70252976D02*
X187303330Y-70300595D01*
X187303330Y-70300595D02*
X187350950Y-70348214D01*
X187350950Y-70348214D02*
X187398569Y-70443452D01*
X187398569Y-70443452D02*
X187398569Y-70633928D01*
X187398569Y-70633928D02*
X187350950Y-70729166D01*
X187350950Y-70729166D02*
X187303330Y-70776785D01*
X187303330Y-70776785D02*
X187208092Y-70824404D01*
X187208092Y-70824404D02*
X186969997Y-70824404D01*
X186969997Y-70824404D02*
X186874759Y-70776785D01*
X186874759Y-70776785D02*
X186827140Y-70729166D01*
X186827140Y-70729166D02*
X186779521Y-70633928D01*
X186779521Y-70633928D02*
X186779521Y-70443452D01*
X186779521Y-70443452D02*
X186827140Y-70348214D01*
X186827140Y-70348214D02*
X186874759Y-70300595D01*
X186874759Y-70300595D02*
X186969997Y-70252976D01*
X109611069Y-106448214D02*
X108611069Y-106448214D01*
X108611069Y-106448214D02*
X108611069Y-106686309D01*
X108611069Y-106686309D02*
X108658688Y-106829166D01*
X108658688Y-106829166D02*
X108753926Y-106924404D01*
X108753926Y-106924404D02*
X108849164Y-106972023D01*
X108849164Y-106972023D02*
X109039640Y-107019642D01*
X109039640Y-107019642D02*
X109182497Y-107019642D01*
X109182497Y-107019642D02*
X109372973Y-106972023D01*
X109372973Y-106972023D02*
X109468211Y-106924404D01*
X109468211Y-106924404D02*
X109563450Y-106829166D01*
X109563450Y-106829166D02*
X109611069Y-106686309D01*
X109611069Y-106686309D02*
X109611069Y-106448214D01*
X109611069Y-107972023D02*
X109611069Y-107400595D01*
X109611069Y-107686309D02*
X108611069Y-107686309D01*
X108611069Y-107686309D02*
X108753926Y-107591071D01*
X108753926Y-107591071D02*
X108849164Y-107495833D01*
X108849164Y-107495833D02*
X108896783Y-107400595D01*
X108611069Y-108305357D02*
X108611069Y-108972023D01*
X108611069Y-108972023D02*
X109611069Y-108543452D01*
X90561069Y-83429464D02*
X89561069Y-83429464D01*
X89561069Y-83429464D02*
X89561069Y-83667559D01*
X89561069Y-83667559D02*
X89608688Y-83810416D01*
X89608688Y-83810416D02*
X89703926Y-83905654D01*
X89703926Y-83905654D02*
X89799164Y-83953273D01*
X89799164Y-83953273D02*
X89989640Y-84000892D01*
X89989640Y-84000892D02*
X90132497Y-84000892D01*
X90132497Y-84000892D02*
X90322973Y-83953273D01*
X90322973Y-83953273D02*
X90418211Y-83905654D01*
X90418211Y-83905654D02*
X90513450Y-83810416D01*
X90513450Y-83810416D02*
X90561069Y-83667559D01*
X90561069Y-83667559D02*
X90561069Y-83429464D01*
X90561069Y-84953273D02*
X90561069Y-84381845D01*
X90561069Y-84667559D02*
X89561069Y-84667559D01*
X89561069Y-84667559D02*
X89703926Y-84572321D01*
X89703926Y-84572321D02*
X89799164Y-84477083D01*
X89799164Y-84477083D02*
X89846783Y-84381845D01*
X89561069Y-85572321D02*
X89561069Y-85667559D01*
X89561069Y-85667559D02*
X89608688Y-85762797D01*
X89608688Y-85762797D02*
X89656307Y-85810416D01*
X89656307Y-85810416D02*
X89751545Y-85858035D01*
X89751545Y-85858035D02*
X89942021Y-85905654D01*
X89942021Y-85905654D02*
X90180116Y-85905654D01*
X90180116Y-85905654D02*
X90370592Y-85858035D01*
X90370592Y-85858035D02*
X90465830Y-85810416D01*
X90465830Y-85810416D02*
X90513450Y-85762797D01*
X90513450Y-85762797D02*
X90561069Y-85667559D01*
X90561069Y-85667559D02*
X90561069Y-85572321D01*
X90561069Y-85572321D02*
X90513450Y-85477083D01*
X90513450Y-85477083D02*
X90465830Y-85429464D01*
X90465830Y-85429464D02*
X90370592Y-85381845D01*
X90370592Y-85381845D02*
X90180116Y-85334226D01*
X90180116Y-85334226D02*
X89942021Y-85334226D01*
X89942021Y-85334226D02*
X89751545Y-85381845D01*
X89751545Y-85381845D02*
X89656307Y-85429464D01*
X89656307Y-85429464D02*
X89608688Y-85477083D01*
X89608688Y-85477083D02*
X89561069Y-85572321D01*
X187398569Y-125498214D02*
X186398569Y-125498214D01*
X186398569Y-125498214D02*
X186398569Y-125736309D01*
X186398569Y-125736309D02*
X186446188Y-125879166D01*
X186446188Y-125879166D02*
X186541426Y-125974404D01*
X186541426Y-125974404D02*
X186636664Y-126022023D01*
X186636664Y-126022023D02*
X186827140Y-126069642D01*
X186827140Y-126069642D02*
X186969997Y-126069642D01*
X186969997Y-126069642D02*
X187160473Y-126022023D01*
X187160473Y-126022023D02*
X187255711Y-125974404D01*
X187255711Y-125974404D02*
X187350950Y-125879166D01*
X187350950Y-125879166D02*
X187398569Y-125736309D01*
X187398569Y-125736309D02*
X187398569Y-125498214D01*
X186731902Y-126926785D02*
X187398569Y-126926785D01*
X186350950Y-126688690D02*
X187065235Y-126450595D01*
X187065235Y-126450595D02*
X187065235Y-127069642D01*
X186731902Y-127879166D02*
X187398569Y-127879166D01*
X186350950Y-127641071D02*
X187065235Y-127402976D01*
X187065235Y-127402976D02*
X187065235Y-128022023D01*
X168348569Y-106385714D02*
X167348569Y-106385714D01*
X167348569Y-106385714D02*
X167348569Y-106623809D01*
X167348569Y-106623809D02*
X167396188Y-106766666D01*
X167396188Y-106766666D02*
X167491426Y-106861904D01*
X167491426Y-106861904D02*
X167586664Y-106909523D01*
X167586664Y-106909523D02*
X167777140Y-106957142D01*
X167777140Y-106957142D02*
X167919997Y-106957142D01*
X167919997Y-106957142D02*
X168110473Y-106909523D01*
X168110473Y-106909523D02*
X168205711Y-106861904D01*
X168205711Y-106861904D02*
X168300950Y-106766666D01*
X168300950Y-106766666D02*
X168348569Y-106623809D01*
X168348569Y-106623809D02*
X168348569Y-106385714D01*
X167348569Y-107290476D02*
X167348569Y-107909523D01*
X167348569Y-107909523D02*
X167729521Y-107576190D01*
X167729521Y-107576190D02*
X167729521Y-107719047D01*
X167729521Y-107719047D02*
X167777140Y-107814285D01*
X167777140Y-107814285D02*
X167824759Y-107861904D01*
X167824759Y-107861904D02*
X167919997Y-107909523D01*
X167919997Y-107909523D02*
X168158092Y-107909523D01*
X168158092Y-107909523D02*
X168253330Y-107861904D01*
X168253330Y-107861904D02*
X168300950Y-107814285D01*
X168300950Y-107814285D02*
X168348569Y-107719047D01*
X168348569Y-107719047D02*
X168348569Y-107433333D01*
X168348569Y-107433333D02*
X168300950Y-107338095D01*
X168300950Y-107338095D02*
X168253330Y-107290476D01*
X167348569Y-108242857D02*
X167348569Y-108909523D01*
X167348569Y-108909523D02*
X168348569Y-108480952D01*
X225498569Y-87398214D02*
X224498569Y-87398214D01*
X224498569Y-87398214D02*
X224498569Y-87636309D01*
X224498569Y-87636309D02*
X224546188Y-87779166D01*
X224546188Y-87779166D02*
X224641426Y-87874404D01*
X224641426Y-87874404D02*
X224736664Y-87922023D01*
X224736664Y-87922023D02*
X224927140Y-87969642D01*
X224927140Y-87969642D02*
X225069997Y-87969642D01*
X225069997Y-87969642D02*
X225260473Y-87922023D01*
X225260473Y-87922023D02*
X225355711Y-87874404D01*
X225355711Y-87874404D02*
X225450950Y-87779166D01*
X225450950Y-87779166D02*
X225498569Y-87636309D01*
X225498569Y-87636309D02*
X225498569Y-87398214D01*
X224498569Y-88302976D02*
X224498569Y-88922023D01*
X224498569Y-88922023D02*
X224879521Y-88588690D01*
X224879521Y-88588690D02*
X224879521Y-88731547D01*
X224879521Y-88731547D02*
X224927140Y-88826785D01*
X224927140Y-88826785D02*
X224974759Y-88874404D01*
X224974759Y-88874404D02*
X225069997Y-88922023D01*
X225069997Y-88922023D02*
X225308092Y-88922023D01*
X225308092Y-88922023D02*
X225403330Y-88874404D01*
X225403330Y-88874404D02*
X225450950Y-88826785D01*
X225450950Y-88826785D02*
X225498569Y-88731547D01*
X225498569Y-88731547D02*
X225498569Y-88445833D01*
X225498569Y-88445833D02*
X225450950Y-88350595D01*
X225450950Y-88350595D02*
X225403330Y-88302976D01*
X224831902Y-89779166D02*
X225498569Y-89779166D01*
X224450950Y-89541071D02*
X225165235Y-89302976D01*
X225165235Y-89302976D02*
X225165235Y-89922023D01*
X33411069Y-110354464D02*
X32411069Y-110354464D01*
X32411069Y-110354464D02*
X32411069Y-110592559D01*
X32411069Y-110592559D02*
X32458688Y-110735416D01*
X32458688Y-110735416D02*
X32553926Y-110830654D01*
X32553926Y-110830654D02*
X32649164Y-110878273D01*
X32649164Y-110878273D02*
X32839640Y-110925892D01*
X32839640Y-110925892D02*
X32982497Y-110925892D01*
X32982497Y-110925892D02*
X33172973Y-110878273D01*
X33172973Y-110878273D02*
X33268211Y-110830654D01*
X33268211Y-110830654D02*
X33363450Y-110735416D01*
X33363450Y-110735416D02*
X33411069Y-110592559D01*
X33411069Y-110592559D02*
X33411069Y-110354464D01*
X33411069Y-111878273D02*
X33411069Y-111306845D01*
X33411069Y-111592559D02*
X32411069Y-111592559D01*
X32411069Y-111592559D02*
X32553926Y-111497321D01*
X32553926Y-111497321D02*
X32649164Y-111402083D01*
X32649164Y-111402083D02*
X32696783Y-111306845D01*
X32411069Y-112211607D02*
X32411069Y-112830654D01*
X32411069Y-112830654D02*
X32792021Y-112497321D01*
X32792021Y-112497321D02*
X32792021Y-112640178D01*
X32792021Y-112640178D02*
X32839640Y-112735416D01*
X32839640Y-112735416D02*
X32887259Y-112783035D01*
X32887259Y-112783035D02*
X32982497Y-112830654D01*
X32982497Y-112830654D02*
X33220592Y-112830654D01*
X33220592Y-112830654D02*
X33315830Y-112783035D01*
X33315830Y-112783035D02*
X33363450Y-112735416D01*
X33363450Y-112735416D02*
X33411069Y-112640178D01*
X33411069Y-112640178D02*
X33411069Y-112354464D01*
X33411069Y-112354464D02*
X33363450Y-112259226D01*
X33363450Y-112259226D02*
X33315830Y-112211607D01*
X52461069Y-91780655D02*
X51461069Y-91780655D01*
X51461069Y-91780655D02*
X51461069Y-92018750D01*
X51461069Y-92018750D02*
X51508688Y-92161607D01*
X51508688Y-92161607D02*
X51603926Y-92256845D01*
X51603926Y-92256845D02*
X51699164Y-92304464D01*
X51699164Y-92304464D02*
X51889640Y-92352083D01*
X51889640Y-92352083D02*
X52032497Y-92352083D01*
X52032497Y-92352083D02*
X52222973Y-92304464D01*
X52222973Y-92304464D02*
X52318211Y-92256845D01*
X52318211Y-92256845D02*
X52413450Y-92161607D01*
X52413450Y-92161607D02*
X52461069Y-92018750D01*
X52461069Y-92018750D02*
X52461069Y-91780655D01*
X51889640Y-92923512D02*
X51842021Y-92828274D01*
X51842021Y-92828274D02*
X51794402Y-92780655D01*
X51794402Y-92780655D02*
X51699164Y-92733036D01*
X51699164Y-92733036D02*
X51651545Y-92733036D01*
X51651545Y-92733036D02*
X51556307Y-92780655D01*
X51556307Y-92780655D02*
X51508688Y-92828274D01*
X51508688Y-92828274D02*
X51461069Y-92923512D01*
X51461069Y-92923512D02*
X51461069Y-93113988D01*
X51461069Y-93113988D02*
X51508688Y-93209226D01*
X51508688Y-93209226D02*
X51556307Y-93256845D01*
X51556307Y-93256845D02*
X51651545Y-93304464D01*
X51651545Y-93304464D02*
X51699164Y-93304464D01*
X51699164Y-93304464D02*
X51794402Y-93256845D01*
X51794402Y-93256845D02*
X51842021Y-93209226D01*
X51842021Y-93209226D02*
X51889640Y-93113988D01*
X51889640Y-93113988D02*
X51889640Y-92923512D01*
X51889640Y-92923512D02*
X51937259Y-92828274D01*
X51937259Y-92828274D02*
X51984878Y-92780655D01*
X51984878Y-92780655D02*
X52080116Y-92733036D01*
X52080116Y-92733036D02*
X52270592Y-92733036D01*
X52270592Y-92733036D02*
X52365830Y-92780655D01*
X52365830Y-92780655D02*
X52413450Y-92828274D01*
X52413450Y-92828274D02*
X52461069Y-92923512D01*
X52461069Y-92923512D02*
X52461069Y-93113988D01*
X52461069Y-93113988D02*
X52413450Y-93209226D01*
X52413450Y-93209226D02*
X52365830Y-93256845D01*
X52365830Y-93256845D02*
X52270592Y-93304464D01*
X52270592Y-93304464D02*
X52080116Y-93304464D01*
X52080116Y-93304464D02*
X51984878Y-93256845D01*
X51984878Y-93256845D02*
X51937259Y-93209226D01*
X51937259Y-93209226D02*
X51889640Y-93113988D01*
X109611069Y-125498214D02*
X108611069Y-125498214D01*
X108611069Y-125498214D02*
X108611069Y-125736309D01*
X108611069Y-125736309D02*
X108658688Y-125879166D01*
X108658688Y-125879166D02*
X108753926Y-125974404D01*
X108753926Y-125974404D02*
X108849164Y-126022023D01*
X108849164Y-126022023D02*
X109039640Y-126069642D01*
X109039640Y-126069642D02*
X109182497Y-126069642D01*
X109182497Y-126069642D02*
X109372973Y-126022023D01*
X109372973Y-126022023D02*
X109468211Y-125974404D01*
X109468211Y-125974404D02*
X109563450Y-125879166D01*
X109563450Y-125879166D02*
X109611069Y-125736309D01*
X109611069Y-125736309D02*
X109611069Y-125498214D01*
X108706307Y-126450595D02*
X108658688Y-126498214D01*
X108658688Y-126498214D02*
X108611069Y-126593452D01*
X108611069Y-126593452D02*
X108611069Y-126831547D01*
X108611069Y-126831547D02*
X108658688Y-126926785D01*
X108658688Y-126926785D02*
X108706307Y-126974404D01*
X108706307Y-126974404D02*
X108801545Y-127022023D01*
X108801545Y-127022023D02*
X108896783Y-127022023D01*
X108896783Y-127022023D02*
X109039640Y-126974404D01*
X109039640Y-126974404D02*
X109611069Y-126402976D01*
X109611069Y-126402976D02*
X109611069Y-127022023D01*
X108611069Y-127355357D02*
X108611069Y-127974404D01*
X108611069Y-127974404D02*
X108992021Y-127641071D01*
X108992021Y-127641071D02*
X108992021Y-127783928D01*
X108992021Y-127783928D02*
X109039640Y-127879166D01*
X109039640Y-127879166D02*
X109087259Y-127926785D01*
X109087259Y-127926785D02*
X109182497Y-127974404D01*
X109182497Y-127974404D02*
X109420592Y-127974404D01*
X109420592Y-127974404D02*
X109515830Y-127926785D01*
X109515830Y-127926785D02*
X109563450Y-127879166D01*
X109563450Y-127879166D02*
X109611069Y-127783928D01*
X109611069Y-127783928D02*
X109611069Y-127498214D01*
X109611069Y-127498214D02*
X109563450Y-127402976D01*
X109563450Y-127402976D02*
X109515830Y-127355357D01*
X128661069Y-125498214D02*
X127661069Y-125498214D01*
X127661069Y-125498214D02*
X127661069Y-125736309D01*
X127661069Y-125736309D02*
X127708688Y-125879166D01*
X127708688Y-125879166D02*
X127803926Y-125974404D01*
X127803926Y-125974404D02*
X127899164Y-126022023D01*
X127899164Y-126022023D02*
X128089640Y-126069642D01*
X128089640Y-126069642D02*
X128232497Y-126069642D01*
X128232497Y-126069642D02*
X128422973Y-126022023D01*
X128422973Y-126022023D02*
X128518211Y-125974404D01*
X128518211Y-125974404D02*
X128613450Y-125879166D01*
X128613450Y-125879166D02*
X128661069Y-125736309D01*
X128661069Y-125736309D02*
X128661069Y-125498214D01*
X127756307Y-126450595D02*
X127708688Y-126498214D01*
X127708688Y-126498214D02*
X127661069Y-126593452D01*
X127661069Y-126593452D02*
X127661069Y-126831547D01*
X127661069Y-126831547D02*
X127708688Y-126926785D01*
X127708688Y-126926785D02*
X127756307Y-126974404D01*
X127756307Y-126974404D02*
X127851545Y-127022023D01*
X127851545Y-127022023D02*
X127946783Y-127022023D01*
X127946783Y-127022023D02*
X128089640Y-126974404D01*
X128089640Y-126974404D02*
X128661069Y-126402976D01*
X128661069Y-126402976D02*
X128661069Y-127022023D01*
X127994402Y-127879166D02*
X128661069Y-127879166D01*
X127613450Y-127641071D02*
X128327735Y-127402976D01*
X128327735Y-127402976D02*
X128327735Y-128022023D01*
X187398569Y-87398214D02*
X186398569Y-87398214D01*
X186398569Y-87398214D02*
X186398569Y-87636309D01*
X186398569Y-87636309D02*
X186446188Y-87779166D01*
X186446188Y-87779166D02*
X186541426Y-87874404D01*
X186541426Y-87874404D02*
X186636664Y-87922023D01*
X186636664Y-87922023D02*
X186827140Y-87969642D01*
X186827140Y-87969642D02*
X186969997Y-87969642D01*
X186969997Y-87969642D02*
X187160473Y-87922023D01*
X187160473Y-87922023D02*
X187255711Y-87874404D01*
X187255711Y-87874404D02*
X187350950Y-87779166D01*
X187350950Y-87779166D02*
X187398569Y-87636309D01*
X187398569Y-87636309D02*
X187398569Y-87398214D01*
X186398569Y-88302976D02*
X186398569Y-88922023D01*
X186398569Y-88922023D02*
X186779521Y-88588690D01*
X186779521Y-88588690D02*
X186779521Y-88731547D01*
X186779521Y-88731547D02*
X186827140Y-88826785D01*
X186827140Y-88826785D02*
X186874759Y-88874404D01*
X186874759Y-88874404D02*
X186969997Y-88922023D01*
X186969997Y-88922023D02*
X187208092Y-88922023D01*
X187208092Y-88922023D02*
X187303330Y-88874404D01*
X187303330Y-88874404D02*
X187350950Y-88826785D01*
X187350950Y-88826785D02*
X187398569Y-88731547D01*
X187398569Y-88731547D02*
X187398569Y-88445833D01*
X187398569Y-88445833D02*
X187350950Y-88350595D01*
X187350950Y-88350595D02*
X187303330Y-88302976D01*
X186493807Y-89302976D02*
X186446188Y-89350595D01*
X186446188Y-89350595D02*
X186398569Y-89445833D01*
X186398569Y-89445833D02*
X186398569Y-89683928D01*
X186398569Y-89683928D02*
X186446188Y-89779166D01*
X186446188Y-89779166D02*
X186493807Y-89826785D01*
X186493807Y-89826785D02*
X186589045Y-89874404D01*
X186589045Y-89874404D02*
X186684283Y-89874404D01*
X186684283Y-89874404D02*
X186827140Y-89826785D01*
X186827140Y-89826785D02*
X187398569Y-89255357D01*
X187398569Y-89255357D02*
X187398569Y-89874404D01*
X52461069Y-110354464D02*
X51461069Y-110354464D01*
X51461069Y-110354464D02*
X51461069Y-110592559D01*
X51461069Y-110592559D02*
X51508688Y-110735416D01*
X51508688Y-110735416D02*
X51603926Y-110830654D01*
X51603926Y-110830654D02*
X51699164Y-110878273D01*
X51699164Y-110878273D02*
X51889640Y-110925892D01*
X51889640Y-110925892D02*
X52032497Y-110925892D01*
X52032497Y-110925892D02*
X52222973Y-110878273D01*
X52222973Y-110878273D02*
X52318211Y-110830654D01*
X52318211Y-110830654D02*
X52413450Y-110735416D01*
X52413450Y-110735416D02*
X52461069Y-110592559D01*
X52461069Y-110592559D02*
X52461069Y-110354464D01*
X52461069Y-111878273D02*
X52461069Y-111306845D01*
X52461069Y-111592559D02*
X51461069Y-111592559D01*
X51461069Y-111592559D02*
X51603926Y-111497321D01*
X51603926Y-111497321D02*
X51699164Y-111402083D01*
X51699164Y-111402083D02*
X51746783Y-111306845D01*
X51794402Y-112735416D02*
X52461069Y-112735416D01*
X51413450Y-112497321D02*
X52127735Y-112259226D01*
X52127735Y-112259226D02*
X52127735Y-112878273D01*
X225498569Y-68348214D02*
X224498569Y-68348214D01*
X224498569Y-68348214D02*
X224498569Y-68586309D01*
X224498569Y-68586309D02*
X224546188Y-68729166D01*
X224546188Y-68729166D02*
X224641426Y-68824404D01*
X224641426Y-68824404D02*
X224736664Y-68872023D01*
X224736664Y-68872023D02*
X224927140Y-68919642D01*
X224927140Y-68919642D02*
X225069997Y-68919642D01*
X225069997Y-68919642D02*
X225260473Y-68872023D01*
X225260473Y-68872023D02*
X225355711Y-68824404D01*
X225355711Y-68824404D02*
X225450950Y-68729166D01*
X225450950Y-68729166D02*
X225498569Y-68586309D01*
X225498569Y-68586309D02*
X225498569Y-68348214D01*
X224593807Y-69300595D02*
X224546188Y-69348214D01*
X224546188Y-69348214D02*
X224498569Y-69443452D01*
X224498569Y-69443452D02*
X224498569Y-69681547D01*
X224498569Y-69681547D02*
X224546188Y-69776785D01*
X224546188Y-69776785D02*
X224593807Y-69824404D01*
X224593807Y-69824404D02*
X224689045Y-69872023D01*
X224689045Y-69872023D02*
X224784283Y-69872023D01*
X224784283Y-69872023D02*
X224927140Y-69824404D01*
X224927140Y-69824404D02*
X225498569Y-69252976D01*
X225498569Y-69252976D02*
X225498569Y-69872023D01*
X224927140Y-70443452D02*
X224879521Y-70348214D01*
X224879521Y-70348214D02*
X224831902Y-70300595D01*
X224831902Y-70300595D02*
X224736664Y-70252976D01*
X224736664Y-70252976D02*
X224689045Y-70252976D01*
X224689045Y-70252976D02*
X224593807Y-70300595D01*
X224593807Y-70300595D02*
X224546188Y-70348214D01*
X224546188Y-70348214D02*
X224498569Y-70443452D01*
X224498569Y-70443452D02*
X224498569Y-70633928D01*
X224498569Y-70633928D02*
X224546188Y-70729166D01*
X224546188Y-70729166D02*
X224593807Y-70776785D01*
X224593807Y-70776785D02*
X224689045Y-70824404D01*
X224689045Y-70824404D02*
X224736664Y-70824404D01*
X224736664Y-70824404D02*
X224831902Y-70776785D01*
X224831902Y-70776785D02*
X224879521Y-70729166D01*
X224879521Y-70729166D02*
X224927140Y-70633928D01*
X224927140Y-70633928D02*
X224927140Y-70443452D01*
X224927140Y-70443452D02*
X224974759Y-70348214D01*
X224974759Y-70348214D02*
X225022378Y-70300595D01*
X225022378Y-70300595D02*
X225117616Y-70252976D01*
X225117616Y-70252976D02*
X225308092Y-70252976D01*
X225308092Y-70252976D02*
X225403330Y-70300595D01*
X225403330Y-70300595D02*
X225450950Y-70348214D01*
X225450950Y-70348214D02*
X225498569Y-70443452D01*
X225498569Y-70443452D02*
X225498569Y-70633928D01*
X225498569Y-70633928D02*
X225450950Y-70729166D01*
X225450950Y-70729166D02*
X225403330Y-70776785D01*
X225403330Y-70776785D02*
X225308092Y-70824404D01*
X225308092Y-70824404D02*
X225117616Y-70824404D01*
X225117616Y-70824404D02*
X225022378Y-70776785D01*
X225022378Y-70776785D02*
X224974759Y-70729166D01*
X224974759Y-70729166D02*
X224927140Y-70633928D01*
X90561069Y-64855655D02*
X89561069Y-64855655D01*
X89561069Y-64855655D02*
X89561069Y-65093750D01*
X89561069Y-65093750D02*
X89608688Y-65236607D01*
X89608688Y-65236607D02*
X89703926Y-65331845D01*
X89703926Y-65331845D02*
X89799164Y-65379464D01*
X89799164Y-65379464D02*
X89989640Y-65427083D01*
X89989640Y-65427083D02*
X90132497Y-65427083D01*
X90132497Y-65427083D02*
X90322973Y-65379464D01*
X90322973Y-65379464D02*
X90418211Y-65331845D01*
X90418211Y-65331845D02*
X90513450Y-65236607D01*
X90513450Y-65236607D02*
X90561069Y-65093750D01*
X90561069Y-65093750D02*
X90561069Y-64855655D01*
X89894402Y-66284226D02*
X90561069Y-66284226D01*
X89513450Y-66046131D02*
X90227735Y-65808036D01*
X90227735Y-65808036D02*
X90227735Y-66427083D01*
X168348569Y-125435714D02*
X167348569Y-125435714D01*
X167348569Y-125435714D02*
X167348569Y-125673809D01*
X167348569Y-125673809D02*
X167396188Y-125816666D01*
X167396188Y-125816666D02*
X167491426Y-125911904D01*
X167491426Y-125911904D02*
X167586664Y-125959523D01*
X167586664Y-125959523D02*
X167777140Y-126007142D01*
X167777140Y-126007142D02*
X167919997Y-126007142D01*
X167919997Y-126007142D02*
X168110473Y-125959523D01*
X168110473Y-125959523D02*
X168205711Y-125911904D01*
X168205711Y-125911904D02*
X168300950Y-125816666D01*
X168300950Y-125816666D02*
X168348569Y-125673809D01*
X168348569Y-125673809D02*
X168348569Y-125435714D01*
X167681902Y-126864285D02*
X168348569Y-126864285D01*
X167300950Y-126626190D02*
X168015235Y-126388095D01*
X168015235Y-126388095D02*
X168015235Y-127007142D01*
X167348569Y-127292857D02*
X167348569Y-127911904D01*
X167348569Y-127911904D02*
X167729521Y-127578571D01*
X167729521Y-127578571D02*
X167729521Y-127721428D01*
X167729521Y-127721428D02*
X167777140Y-127816666D01*
X167777140Y-127816666D02*
X167824759Y-127864285D01*
X167824759Y-127864285D02*
X167919997Y-127911904D01*
X167919997Y-127911904D02*
X168158092Y-127911904D01*
X168158092Y-127911904D02*
X168253330Y-127864285D01*
X168253330Y-127864285D02*
X168300950Y-127816666D01*
X168300950Y-127816666D02*
X168348569Y-127721428D01*
X168348569Y-127721428D02*
X168348569Y-127435714D01*
X168348569Y-127435714D02*
X168300950Y-127340476D01*
X168300950Y-127340476D02*
X168253330Y-127292857D01*
X187398569Y-106448214D02*
X186398569Y-106448214D01*
X186398569Y-106448214D02*
X186398569Y-106686309D01*
X186398569Y-106686309D02*
X186446188Y-106829166D01*
X186446188Y-106829166D02*
X186541426Y-106924404D01*
X186541426Y-106924404D02*
X186636664Y-106972023D01*
X186636664Y-106972023D02*
X186827140Y-107019642D01*
X186827140Y-107019642D02*
X186969997Y-107019642D01*
X186969997Y-107019642D02*
X187160473Y-106972023D01*
X187160473Y-106972023D02*
X187255711Y-106924404D01*
X187255711Y-106924404D02*
X187350950Y-106829166D01*
X187350950Y-106829166D02*
X187398569Y-106686309D01*
X187398569Y-106686309D02*
X187398569Y-106448214D01*
X186398569Y-107352976D02*
X186398569Y-107972023D01*
X186398569Y-107972023D02*
X186779521Y-107638690D01*
X186779521Y-107638690D02*
X186779521Y-107781547D01*
X186779521Y-107781547D02*
X186827140Y-107876785D01*
X186827140Y-107876785D02*
X186874759Y-107924404D01*
X186874759Y-107924404D02*
X186969997Y-107972023D01*
X186969997Y-107972023D02*
X187208092Y-107972023D01*
X187208092Y-107972023D02*
X187303330Y-107924404D01*
X187303330Y-107924404D02*
X187350950Y-107876785D01*
X187350950Y-107876785D02*
X187398569Y-107781547D01*
X187398569Y-107781547D02*
X187398569Y-107495833D01*
X187398569Y-107495833D02*
X187350950Y-107400595D01*
X187350950Y-107400595D02*
X187303330Y-107352976D01*
X186827140Y-108543452D02*
X186779521Y-108448214D01*
X186779521Y-108448214D02*
X186731902Y-108400595D01*
X186731902Y-108400595D02*
X186636664Y-108352976D01*
X186636664Y-108352976D02*
X186589045Y-108352976D01*
X186589045Y-108352976D02*
X186493807Y-108400595D01*
X186493807Y-108400595D02*
X186446188Y-108448214D01*
X186446188Y-108448214D02*
X186398569Y-108543452D01*
X186398569Y-108543452D02*
X186398569Y-108733928D01*
X186398569Y-108733928D02*
X186446188Y-108829166D01*
X186446188Y-108829166D02*
X186493807Y-108876785D01*
X186493807Y-108876785D02*
X186589045Y-108924404D01*
X186589045Y-108924404D02*
X186636664Y-108924404D01*
X186636664Y-108924404D02*
X186731902Y-108876785D01*
X186731902Y-108876785D02*
X186779521Y-108829166D01*
X186779521Y-108829166D02*
X186827140Y-108733928D01*
X186827140Y-108733928D02*
X186827140Y-108543452D01*
X186827140Y-108543452D02*
X186874759Y-108448214D01*
X186874759Y-108448214D02*
X186922378Y-108400595D01*
X186922378Y-108400595D02*
X187017616Y-108352976D01*
X187017616Y-108352976D02*
X187208092Y-108352976D01*
X187208092Y-108352976D02*
X187303330Y-108400595D01*
X187303330Y-108400595D02*
X187350950Y-108448214D01*
X187350950Y-108448214D02*
X187398569Y-108543452D01*
X187398569Y-108543452D02*
X187398569Y-108733928D01*
X187398569Y-108733928D02*
X187350950Y-108829166D01*
X187350950Y-108829166D02*
X187303330Y-108876785D01*
X187303330Y-108876785D02*
X187208092Y-108924404D01*
X187208092Y-108924404D02*
X187017616Y-108924404D01*
X187017616Y-108924404D02*
X186922378Y-108876785D01*
X186922378Y-108876785D02*
X186874759Y-108829166D01*
X186874759Y-108829166D02*
X186827140Y-108733928D01*
X52461069Y-72730655D02*
X51461069Y-72730655D01*
X51461069Y-72730655D02*
X51461069Y-72968750D01*
X51461069Y-72968750D02*
X51508688Y-73111607D01*
X51508688Y-73111607D02*
X51603926Y-73206845D01*
X51603926Y-73206845D02*
X51699164Y-73254464D01*
X51699164Y-73254464D02*
X51889640Y-73302083D01*
X51889640Y-73302083D02*
X52032497Y-73302083D01*
X52032497Y-73302083D02*
X52222973Y-73254464D01*
X52222973Y-73254464D02*
X52318211Y-73206845D01*
X52318211Y-73206845D02*
X52413450Y-73111607D01*
X52413450Y-73111607D02*
X52461069Y-72968750D01*
X52461069Y-72968750D02*
X52461069Y-72730655D01*
X51556307Y-73683036D02*
X51508688Y-73730655D01*
X51508688Y-73730655D02*
X51461069Y-73825893D01*
X51461069Y-73825893D02*
X51461069Y-74063988D01*
X51461069Y-74063988D02*
X51508688Y-74159226D01*
X51508688Y-74159226D02*
X51556307Y-74206845D01*
X51556307Y-74206845D02*
X51651545Y-74254464D01*
X51651545Y-74254464D02*
X51746783Y-74254464D01*
X51746783Y-74254464D02*
X51889640Y-74206845D01*
X51889640Y-74206845D02*
X52461069Y-73635417D01*
X52461069Y-73635417D02*
X52461069Y-74254464D01*
X244548569Y-110416964D02*
X243548569Y-110416964D01*
X243548569Y-110416964D02*
X243548569Y-110655059D01*
X243548569Y-110655059D02*
X243596188Y-110797916D01*
X243596188Y-110797916D02*
X243691426Y-110893154D01*
X243691426Y-110893154D02*
X243786664Y-110940773D01*
X243786664Y-110940773D02*
X243977140Y-110988392D01*
X243977140Y-110988392D02*
X244119997Y-110988392D01*
X244119997Y-110988392D02*
X244310473Y-110940773D01*
X244310473Y-110940773D02*
X244405711Y-110893154D01*
X244405711Y-110893154D02*
X244500950Y-110797916D01*
X244500950Y-110797916D02*
X244548569Y-110655059D01*
X244548569Y-110655059D02*
X244548569Y-110416964D01*
X243881902Y-111845535D02*
X244548569Y-111845535D01*
X243500950Y-111607440D02*
X244215235Y-111369345D01*
X244215235Y-111369345D02*
X244215235Y-111988392D01*
X244548569Y-112893154D02*
X244548569Y-112321726D01*
X244548569Y-112607440D02*
X243548569Y-112607440D01*
X243548569Y-112607440D02*
X243691426Y-112512202D01*
X243691426Y-112512202D02*
X243786664Y-112416964D01*
X243786664Y-112416964D02*
X243834283Y-112321726D01*
X71511069Y-125498214D02*
X70511069Y-125498214D01*
X70511069Y-125498214D02*
X70511069Y-125736309D01*
X70511069Y-125736309D02*
X70558688Y-125879166D01*
X70558688Y-125879166D02*
X70653926Y-125974404D01*
X70653926Y-125974404D02*
X70749164Y-126022023D01*
X70749164Y-126022023D02*
X70939640Y-126069642D01*
X70939640Y-126069642D02*
X71082497Y-126069642D01*
X71082497Y-126069642D02*
X71272973Y-126022023D01*
X71272973Y-126022023D02*
X71368211Y-125974404D01*
X71368211Y-125974404D02*
X71463450Y-125879166D01*
X71463450Y-125879166D02*
X71511069Y-125736309D01*
X71511069Y-125736309D02*
X71511069Y-125498214D01*
X70606307Y-126450595D02*
X70558688Y-126498214D01*
X70558688Y-126498214D02*
X70511069Y-126593452D01*
X70511069Y-126593452D02*
X70511069Y-126831547D01*
X70511069Y-126831547D02*
X70558688Y-126926785D01*
X70558688Y-126926785D02*
X70606307Y-126974404D01*
X70606307Y-126974404D02*
X70701545Y-127022023D01*
X70701545Y-127022023D02*
X70796783Y-127022023D01*
X70796783Y-127022023D02*
X70939640Y-126974404D01*
X70939640Y-126974404D02*
X71511069Y-126402976D01*
X71511069Y-126402976D02*
X71511069Y-127022023D01*
X71511069Y-127974404D02*
X71511069Y-127402976D01*
X71511069Y-127688690D02*
X70511069Y-127688690D01*
X70511069Y-127688690D02*
X70653926Y-127593452D01*
X70653926Y-127593452D02*
X70749164Y-127498214D01*
X70749164Y-127498214D02*
X70796783Y-127402976D01*
X128661069Y-68761905D02*
X127661069Y-68761905D01*
X127661069Y-68761905D02*
X127661069Y-69000000D01*
X127661069Y-69000000D02*
X127708688Y-69142857D01*
X127708688Y-69142857D02*
X127803926Y-69238095D01*
X127803926Y-69238095D02*
X127899164Y-69285714D01*
X127899164Y-69285714D02*
X128089640Y-69333333D01*
X128089640Y-69333333D02*
X128232497Y-69333333D01*
X128232497Y-69333333D02*
X128422973Y-69285714D01*
X128422973Y-69285714D02*
X128518211Y-69238095D01*
X128518211Y-69238095D02*
X128613450Y-69142857D01*
X128613450Y-69142857D02*
X128661069Y-69000000D01*
X128661069Y-69000000D02*
X128661069Y-68761905D01*
X127661069Y-70190476D02*
X127661069Y-70000000D01*
X127661069Y-70000000D02*
X127708688Y-69904762D01*
X127708688Y-69904762D02*
X127756307Y-69857143D01*
X127756307Y-69857143D02*
X127899164Y-69761905D01*
X127899164Y-69761905D02*
X128089640Y-69714286D01*
X128089640Y-69714286D02*
X128470592Y-69714286D01*
X128470592Y-69714286D02*
X128565830Y-69761905D01*
X128565830Y-69761905D02*
X128613450Y-69809524D01*
X128613450Y-69809524D02*
X128661069Y-69904762D01*
X128661069Y-69904762D02*
X128661069Y-70095238D01*
X128661069Y-70095238D02*
X128613450Y-70190476D01*
X128613450Y-70190476D02*
X128565830Y-70238095D01*
X128565830Y-70238095D02*
X128470592Y-70285714D01*
X128470592Y-70285714D02*
X128232497Y-70285714D01*
X128232497Y-70285714D02*
X128137259Y-70238095D01*
X128137259Y-70238095D02*
X128089640Y-70190476D01*
X128089640Y-70190476D02*
X128042021Y-70095238D01*
X128042021Y-70095238D02*
X128042021Y-69904762D01*
X128042021Y-69904762D02*
X128089640Y-69809524D01*
X128089640Y-69809524D02*
X128137259Y-69761905D01*
X128137259Y-69761905D02*
X128232497Y-69714286D01*
X244548569Y-130260714D02*
X243548569Y-130260714D01*
X243548569Y-130260714D02*
X243548569Y-130498809D01*
X243548569Y-130498809D02*
X243596188Y-130641666D01*
X243596188Y-130641666D02*
X243691426Y-130736904D01*
X243691426Y-130736904D02*
X243786664Y-130784523D01*
X243786664Y-130784523D02*
X243977140Y-130832142D01*
X243977140Y-130832142D02*
X244119997Y-130832142D01*
X244119997Y-130832142D02*
X244310473Y-130784523D01*
X244310473Y-130784523D02*
X244405711Y-130736904D01*
X244405711Y-130736904D02*
X244500950Y-130641666D01*
X244500950Y-130641666D02*
X244548569Y-130498809D01*
X244548569Y-130498809D02*
X244548569Y-130260714D01*
X243881902Y-131689285D02*
X244548569Y-131689285D01*
X243500950Y-131451190D02*
X244215235Y-131213095D01*
X244215235Y-131213095D02*
X244215235Y-131832142D01*
X243548569Y-132117857D02*
X243548569Y-132784523D01*
X243548569Y-132784523D02*
X244548569Y-132355952D01*
X206448569Y-83429464D02*
X205448569Y-83429464D01*
X205448569Y-83429464D02*
X205448569Y-83667559D01*
X205448569Y-83667559D02*
X205496188Y-83810416D01*
X205496188Y-83810416D02*
X205591426Y-83905654D01*
X205591426Y-83905654D02*
X205686664Y-83953273D01*
X205686664Y-83953273D02*
X205877140Y-84000892D01*
X205877140Y-84000892D02*
X206019997Y-84000892D01*
X206019997Y-84000892D02*
X206210473Y-83953273D01*
X206210473Y-83953273D02*
X206305711Y-83905654D01*
X206305711Y-83905654D02*
X206400950Y-83810416D01*
X206400950Y-83810416D02*
X206448569Y-83667559D01*
X206448569Y-83667559D02*
X206448569Y-83429464D01*
X205448569Y-84334226D02*
X205448569Y-84953273D01*
X205448569Y-84953273D02*
X205829521Y-84619940D01*
X205829521Y-84619940D02*
X205829521Y-84762797D01*
X205829521Y-84762797D02*
X205877140Y-84858035D01*
X205877140Y-84858035D02*
X205924759Y-84905654D01*
X205924759Y-84905654D02*
X206019997Y-84953273D01*
X206019997Y-84953273D02*
X206258092Y-84953273D01*
X206258092Y-84953273D02*
X206353330Y-84905654D01*
X206353330Y-84905654D02*
X206400950Y-84858035D01*
X206400950Y-84858035D02*
X206448569Y-84762797D01*
X206448569Y-84762797D02*
X206448569Y-84477083D01*
X206448569Y-84477083D02*
X206400950Y-84381845D01*
X206400950Y-84381845D02*
X206353330Y-84334226D01*
X205448569Y-85286607D02*
X205448569Y-85905654D01*
X205448569Y-85905654D02*
X205829521Y-85572321D01*
X205829521Y-85572321D02*
X205829521Y-85715178D01*
X205829521Y-85715178D02*
X205877140Y-85810416D01*
X205877140Y-85810416D02*
X205924759Y-85858035D01*
X205924759Y-85858035D02*
X206019997Y-85905654D01*
X206019997Y-85905654D02*
X206258092Y-85905654D01*
X206258092Y-85905654D02*
X206353330Y-85858035D01*
X206353330Y-85858035D02*
X206400950Y-85810416D01*
X206400950Y-85810416D02*
X206448569Y-85715178D01*
X206448569Y-85715178D02*
X206448569Y-85429464D01*
X206448569Y-85429464D02*
X206400950Y-85334226D01*
X206400950Y-85334226D02*
X206353330Y-85286607D01*
X263598569Y-129691964D02*
X262598569Y-129691964D01*
X262598569Y-129691964D02*
X262598569Y-129930059D01*
X262598569Y-129930059D02*
X262646188Y-130072916D01*
X262646188Y-130072916D02*
X262741426Y-130168154D01*
X262741426Y-130168154D02*
X262836664Y-130215773D01*
X262836664Y-130215773D02*
X263027140Y-130263392D01*
X263027140Y-130263392D02*
X263169997Y-130263392D01*
X263169997Y-130263392D02*
X263360473Y-130215773D01*
X263360473Y-130215773D02*
X263455711Y-130168154D01*
X263455711Y-130168154D02*
X263550950Y-130072916D01*
X263550950Y-130072916D02*
X263598569Y-129930059D01*
X263598569Y-129930059D02*
X263598569Y-129691964D01*
X262931902Y-131120535D02*
X263598569Y-131120535D01*
X262550950Y-130882440D02*
X263265235Y-130644345D01*
X263265235Y-130644345D02*
X263265235Y-131263392D01*
X263027140Y-131787202D02*
X262979521Y-131691964D01*
X262979521Y-131691964D02*
X262931902Y-131644345D01*
X262931902Y-131644345D02*
X262836664Y-131596726D01*
X262836664Y-131596726D02*
X262789045Y-131596726D01*
X262789045Y-131596726D02*
X262693807Y-131644345D01*
X262693807Y-131644345D02*
X262646188Y-131691964D01*
X262646188Y-131691964D02*
X262598569Y-131787202D01*
X262598569Y-131787202D02*
X262598569Y-131977678D01*
X262598569Y-131977678D02*
X262646188Y-132072916D01*
X262646188Y-132072916D02*
X262693807Y-132120535D01*
X262693807Y-132120535D02*
X262789045Y-132168154D01*
X262789045Y-132168154D02*
X262836664Y-132168154D01*
X262836664Y-132168154D02*
X262931902Y-132120535D01*
X262931902Y-132120535D02*
X262979521Y-132072916D01*
X262979521Y-132072916D02*
X263027140Y-131977678D01*
X263027140Y-131977678D02*
X263027140Y-131787202D01*
X263027140Y-131787202D02*
X263074759Y-131691964D01*
X263074759Y-131691964D02*
X263122378Y-131644345D01*
X263122378Y-131644345D02*
X263217616Y-131596726D01*
X263217616Y-131596726D02*
X263408092Y-131596726D01*
X263408092Y-131596726D02*
X263503330Y-131644345D01*
X263503330Y-131644345D02*
X263550950Y-131691964D01*
X263550950Y-131691964D02*
X263598569Y-131787202D01*
X263598569Y-131787202D02*
X263598569Y-131977678D01*
X263598569Y-131977678D02*
X263550950Y-132072916D01*
X263550950Y-132072916D02*
X263503330Y-132120535D01*
X263503330Y-132120535D02*
X263408092Y-132168154D01*
X263408092Y-132168154D02*
X263217616Y-132168154D01*
X263217616Y-132168154D02*
X263122378Y-132120535D01*
X263122378Y-132120535D02*
X263074759Y-132072916D01*
X263074759Y-132072916D02*
X263027140Y-131977678D01*
X263598569Y-91591964D02*
X262598569Y-91591964D01*
X262598569Y-91591964D02*
X262598569Y-91830059D01*
X262598569Y-91830059D02*
X262646188Y-91972916D01*
X262646188Y-91972916D02*
X262741426Y-92068154D01*
X262741426Y-92068154D02*
X262836664Y-92115773D01*
X262836664Y-92115773D02*
X263027140Y-92163392D01*
X263027140Y-92163392D02*
X263169997Y-92163392D01*
X263169997Y-92163392D02*
X263360473Y-92115773D01*
X263360473Y-92115773D02*
X263455711Y-92068154D01*
X263455711Y-92068154D02*
X263550950Y-91972916D01*
X263550950Y-91972916D02*
X263598569Y-91830059D01*
X263598569Y-91830059D02*
X263598569Y-91591964D01*
X262598569Y-92496726D02*
X262598569Y-93115773D01*
X262598569Y-93115773D02*
X262979521Y-92782440D01*
X262979521Y-92782440D02*
X262979521Y-92925297D01*
X262979521Y-92925297D02*
X263027140Y-93020535D01*
X263027140Y-93020535D02*
X263074759Y-93068154D01*
X263074759Y-93068154D02*
X263169997Y-93115773D01*
X263169997Y-93115773D02*
X263408092Y-93115773D01*
X263408092Y-93115773D02*
X263503330Y-93068154D01*
X263503330Y-93068154D02*
X263550950Y-93020535D01*
X263550950Y-93020535D02*
X263598569Y-92925297D01*
X263598569Y-92925297D02*
X263598569Y-92639583D01*
X263598569Y-92639583D02*
X263550950Y-92544345D01*
X263550950Y-92544345D02*
X263503330Y-92496726D01*
X262598569Y-93972916D02*
X262598569Y-93782440D01*
X262598569Y-93782440D02*
X262646188Y-93687202D01*
X262646188Y-93687202D02*
X262693807Y-93639583D01*
X262693807Y-93639583D02*
X262836664Y-93544345D01*
X262836664Y-93544345D02*
X263027140Y-93496726D01*
X263027140Y-93496726D02*
X263408092Y-93496726D01*
X263408092Y-93496726D02*
X263503330Y-93544345D01*
X263503330Y-93544345D02*
X263550950Y-93591964D01*
X263550950Y-93591964D02*
X263598569Y-93687202D01*
X263598569Y-93687202D02*
X263598569Y-93877678D01*
X263598569Y-93877678D02*
X263550950Y-93972916D01*
X263550950Y-93972916D02*
X263503330Y-94020535D01*
X263503330Y-94020535D02*
X263408092Y-94068154D01*
X263408092Y-94068154D02*
X263169997Y-94068154D01*
X263169997Y-94068154D02*
X263074759Y-94020535D01*
X263074759Y-94020535D02*
X263027140Y-93972916D01*
X263027140Y-93972916D02*
X262979521Y-93877678D01*
X262979521Y-93877678D02*
X262979521Y-93687202D01*
X262979521Y-93687202D02*
X263027140Y-93591964D01*
X263027140Y-93591964D02*
X263074759Y-93544345D01*
X263074759Y-93544345D02*
X263169997Y-93496726D01*
X33411069Y-91780655D02*
X32411069Y-91780655D01*
X32411069Y-91780655D02*
X32411069Y-92018750D01*
X32411069Y-92018750D02*
X32458688Y-92161607D01*
X32458688Y-92161607D02*
X32553926Y-92256845D01*
X32553926Y-92256845D02*
X32649164Y-92304464D01*
X32649164Y-92304464D02*
X32839640Y-92352083D01*
X32839640Y-92352083D02*
X32982497Y-92352083D01*
X32982497Y-92352083D02*
X33172973Y-92304464D01*
X33172973Y-92304464D02*
X33268211Y-92256845D01*
X33268211Y-92256845D02*
X33363450Y-92161607D01*
X33363450Y-92161607D02*
X33411069Y-92018750D01*
X33411069Y-92018750D02*
X33411069Y-91780655D01*
X32411069Y-92685417D02*
X32411069Y-93352083D01*
X32411069Y-93352083D02*
X33411069Y-92923512D01*
X71511069Y-68824405D02*
X70511069Y-68824405D01*
X70511069Y-68824405D02*
X70511069Y-69062500D01*
X70511069Y-69062500D02*
X70558688Y-69205357D01*
X70558688Y-69205357D02*
X70653926Y-69300595D01*
X70653926Y-69300595D02*
X70749164Y-69348214D01*
X70749164Y-69348214D02*
X70939640Y-69395833D01*
X70939640Y-69395833D02*
X71082497Y-69395833D01*
X71082497Y-69395833D02*
X71272973Y-69348214D01*
X71272973Y-69348214D02*
X71368211Y-69300595D01*
X71368211Y-69300595D02*
X71463450Y-69205357D01*
X71463450Y-69205357D02*
X71511069Y-69062500D01*
X71511069Y-69062500D02*
X71511069Y-68824405D01*
X70511069Y-69729167D02*
X70511069Y-70348214D01*
X70511069Y-70348214D02*
X70892021Y-70014881D01*
X70892021Y-70014881D02*
X70892021Y-70157738D01*
X70892021Y-70157738D02*
X70939640Y-70252976D01*
X70939640Y-70252976D02*
X70987259Y-70300595D01*
X70987259Y-70300595D02*
X71082497Y-70348214D01*
X71082497Y-70348214D02*
X71320592Y-70348214D01*
X71320592Y-70348214D02*
X71415830Y-70300595D01*
X71415830Y-70300595D02*
X71463450Y-70252976D01*
X71463450Y-70252976D02*
X71511069Y-70157738D01*
X71511069Y-70157738D02*
X71511069Y-69872024D01*
X71511069Y-69872024D02*
X71463450Y-69776786D01*
X71463450Y-69776786D02*
X71415830Y-69729167D01*
X90561069Y-121529464D02*
X89561069Y-121529464D01*
X89561069Y-121529464D02*
X89561069Y-121767559D01*
X89561069Y-121767559D02*
X89608688Y-121910416D01*
X89608688Y-121910416D02*
X89703926Y-122005654D01*
X89703926Y-122005654D02*
X89799164Y-122053273D01*
X89799164Y-122053273D02*
X89989640Y-122100892D01*
X89989640Y-122100892D02*
X90132497Y-122100892D01*
X90132497Y-122100892D02*
X90322973Y-122053273D01*
X90322973Y-122053273D02*
X90418211Y-122005654D01*
X90418211Y-122005654D02*
X90513450Y-121910416D01*
X90513450Y-121910416D02*
X90561069Y-121767559D01*
X90561069Y-121767559D02*
X90561069Y-121529464D01*
X89656307Y-122481845D02*
X89608688Y-122529464D01*
X89608688Y-122529464D02*
X89561069Y-122624702D01*
X89561069Y-122624702D02*
X89561069Y-122862797D01*
X89561069Y-122862797D02*
X89608688Y-122958035D01*
X89608688Y-122958035D02*
X89656307Y-123005654D01*
X89656307Y-123005654D02*
X89751545Y-123053273D01*
X89751545Y-123053273D02*
X89846783Y-123053273D01*
X89846783Y-123053273D02*
X89989640Y-123005654D01*
X89989640Y-123005654D02*
X90561069Y-122434226D01*
X90561069Y-122434226D02*
X90561069Y-123053273D01*
X89656307Y-123434226D02*
X89608688Y-123481845D01*
X89608688Y-123481845D02*
X89561069Y-123577083D01*
X89561069Y-123577083D02*
X89561069Y-123815178D01*
X89561069Y-123815178D02*
X89608688Y-123910416D01*
X89608688Y-123910416D02*
X89656307Y-123958035D01*
X89656307Y-123958035D02*
X89751545Y-124005654D01*
X89751545Y-124005654D02*
X89846783Y-124005654D01*
X89846783Y-124005654D02*
X89989640Y-123958035D01*
X89989640Y-123958035D02*
X90561069Y-123386607D01*
X90561069Y-123386607D02*
X90561069Y-124005654D01*
X52461069Y-129404464D02*
X51461069Y-129404464D01*
X51461069Y-129404464D02*
X51461069Y-129642559D01*
X51461069Y-129642559D02*
X51508688Y-129785416D01*
X51508688Y-129785416D02*
X51603926Y-129880654D01*
X51603926Y-129880654D02*
X51699164Y-129928273D01*
X51699164Y-129928273D02*
X51889640Y-129975892D01*
X51889640Y-129975892D02*
X52032497Y-129975892D01*
X52032497Y-129975892D02*
X52222973Y-129928273D01*
X52222973Y-129928273D02*
X52318211Y-129880654D01*
X52318211Y-129880654D02*
X52413450Y-129785416D01*
X52413450Y-129785416D02*
X52461069Y-129642559D01*
X52461069Y-129642559D02*
X52461069Y-129404464D01*
X51556307Y-130356845D02*
X51508688Y-130404464D01*
X51508688Y-130404464D02*
X51461069Y-130499702D01*
X51461069Y-130499702D02*
X51461069Y-130737797D01*
X51461069Y-130737797D02*
X51508688Y-130833035D01*
X51508688Y-130833035D02*
X51556307Y-130880654D01*
X51556307Y-130880654D02*
X51651545Y-130928273D01*
X51651545Y-130928273D02*
X51746783Y-130928273D01*
X51746783Y-130928273D02*
X51889640Y-130880654D01*
X51889640Y-130880654D02*
X52461069Y-130309226D01*
X52461069Y-130309226D02*
X52461069Y-130928273D01*
X51461069Y-131547321D02*
X51461069Y-131642559D01*
X51461069Y-131642559D02*
X51508688Y-131737797D01*
X51508688Y-131737797D02*
X51556307Y-131785416D01*
X51556307Y-131785416D02*
X51651545Y-131833035D01*
X51651545Y-131833035D02*
X51842021Y-131880654D01*
X51842021Y-131880654D02*
X52080116Y-131880654D01*
X52080116Y-131880654D02*
X52270592Y-131833035D01*
X52270592Y-131833035D02*
X52365830Y-131785416D01*
X52365830Y-131785416D02*
X52413450Y-131737797D01*
X52413450Y-131737797D02*
X52461069Y-131642559D01*
X52461069Y-131642559D02*
X52461069Y-131547321D01*
X52461069Y-131547321D02*
X52413450Y-131452083D01*
X52413450Y-131452083D02*
X52365830Y-131404464D01*
X52365830Y-131404464D02*
X52270592Y-131356845D01*
X52270592Y-131356845D02*
X52080116Y-131309226D01*
X52080116Y-131309226D02*
X51842021Y-131309226D01*
X51842021Y-131309226D02*
X51651545Y-131356845D01*
X51651545Y-131356845D02*
X51556307Y-131404464D01*
X51556307Y-131404464D02*
X51508688Y-131452083D01*
X51508688Y-131452083D02*
X51461069Y-131547321D01*
X206448569Y-64379464D02*
X205448569Y-64379464D01*
X205448569Y-64379464D02*
X205448569Y-64617559D01*
X205448569Y-64617559D02*
X205496188Y-64760416D01*
X205496188Y-64760416D02*
X205591426Y-64855654D01*
X205591426Y-64855654D02*
X205686664Y-64903273D01*
X205686664Y-64903273D02*
X205877140Y-64950892D01*
X205877140Y-64950892D02*
X206019997Y-64950892D01*
X206019997Y-64950892D02*
X206210473Y-64903273D01*
X206210473Y-64903273D02*
X206305711Y-64855654D01*
X206305711Y-64855654D02*
X206400950Y-64760416D01*
X206400950Y-64760416D02*
X206448569Y-64617559D01*
X206448569Y-64617559D02*
X206448569Y-64379464D01*
X205543807Y-65331845D02*
X205496188Y-65379464D01*
X205496188Y-65379464D02*
X205448569Y-65474702D01*
X205448569Y-65474702D02*
X205448569Y-65712797D01*
X205448569Y-65712797D02*
X205496188Y-65808035D01*
X205496188Y-65808035D02*
X205543807Y-65855654D01*
X205543807Y-65855654D02*
X205639045Y-65903273D01*
X205639045Y-65903273D02*
X205734283Y-65903273D01*
X205734283Y-65903273D02*
X205877140Y-65855654D01*
X205877140Y-65855654D02*
X206448569Y-65284226D01*
X206448569Y-65284226D02*
X206448569Y-65903273D01*
X205448569Y-66236607D02*
X205448569Y-66903273D01*
X205448569Y-66903273D02*
X206448569Y-66474702D01*
X263598569Y-72541964D02*
X262598569Y-72541964D01*
X262598569Y-72541964D02*
X262598569Y-72780059D01*
X262598569Y-72780059D02*
X262646188Y-72922916D01*
X262646188Y-72922916D02*
X262741426Y-73018154D01*
X262741426Y-73018154D02*
X262836664Y-73065773D01*
X262836664Y-73065773D02*
X263027140Y-73113392D01*
X263027140Y-73113392D02*
X263169997Y-73113392D01*
X263169997Y-73113392D02*
X263360473Y-73065773D01*
X263360473Y-73065773D02*
X263455711Y-73018154D01*
X263455711Y-73018154D02*
X263550950Y-72922916D01*
X263550950Y-72922916D02*
X263598569Y-72780059D01*
X263598569Y-72780059D02*
X263598569Y-72541964D01*
X262598569Y-73446726D02*
X262598569Y-74065773D01*
X262598569Y-74065773D02*
X262979521Y-73732440D01*
X262979521Y-73732440D02*
X262979521Y-73875297D01*
X262979521Y-73875297D02*
X263027140Y-73970535D01*
X263027140Y-73970535D02*
X263074759Y-74018154D01*
X263074759Y-74018154D02*
X263169997Y-74065773D01*
X263169997Y-74065773D02*
X263408092Y-74065773D01*
X263408092Y-74065773D02*
X263503330Y-74018154D01*
X263503330Y-74018154D02*
X263550950Y-73970535D01*
X263550950Y-73970535D02*
X263598569Y-73875297D01*
X263598569Y-73875297D02*
X263598569Y-73589583D01*
X263598569Y-73589583D02*
X263550950Y-73494345D01*
X263550950Y-73494345D02*
X263503330Y-73446726D01*
X262598569Y-74684821D02*
X262598569Y-74780059D01*
X262598569Y-74780059D02*
X262646188Y-74875297D01*
X262646188Y-74875297D02*
X262693807Y-74922916D01*
X262693807Y-74922916D02*
X262789045Y-74970535D01*
X262789045Y-74970535D02*
X262979521Y-75018154D01*
X262979521Y-75018154D02*
X263217616Y-75018154D01*
X263217616Y-75018154D02*
X263408092Y-74970535D01*
X263408092Y-74970535D02*
X263503330Y-74922916D01*
X263503330Y-74922916D02*
X263550950Y-74875297D01*
X263550950Y-74875297D02*
X263598569Y-74780059D01*
X263598569Y-74780059D02*
X263598569Y-74684821D01*
X263598569Y-74684821D02*
X263550950Y-74589583D01*
X263550950Y-74589583D02*
X263503330Y-74541964D01*
X263503330Y-74541964D02*
X263408092Y-74494345D01*
X263408092Y-74494345D02*
X263217616Y-74446726D01*
X263217616Y-74446726D02*
X262979521Y-74446726D01*
X262979521Y-74446726D02*
X262789045Y-74494345D01*
X262789045Y-74494345D02*
X262693807Y-74541964D01*
X262693807Y-74541964D02*
X262646188Y-74589583D01*
X262646188Y-74589583D02*
X262598569Y-74684821D01*
X206448569Y-121466964D02*
X205448569Y-121466964D01*
X205448569Y-121466964D02*
X205448569Y-121705059D01*
X205448569Y-121705059D02*
X205496188Y-121847916D01*
X205496188Y-121847916D02*
X205591426Y-121943154D01*
X205591426Y-121943154D02*
X205686664Y-121990773D01*
X205686664Y-121990773D02*
X205877140Y-122038392D01*
X205877140Y-122038392D02*
X206019997Y-122038392D01*
X206019997Y-122038392D02*
X206210473Y-121990773D01*
X206210473Y-121990773D02*
X206305711Y-121943154D01*
X206305711Y-121943154D02*
X206400950Y-121847916D01*
X206400950Y-121847916D02*
X206448569Y-121705059D01*
X206448569Y-121705059D02*
X206448569Y-121466964D01*
X205781902Y-122895535D02*
X206448569Y-122895535D01*
X205400950Y-122657440D02*
X206115235Y-122419345D01*
X206115235Y-122419345D02*
X206115235Y-123038392D01*
X205448569Y-123895535D02*
X205448569Y-123419345D01*
X205448569Y-123419345D02*
X205924759Y-123371726D01*
X205924759Y-123371726D02*
X205877140Y-123419345D01*
X205877140Y-123419345D02*
X205829521Y-123514583D01*
X205829521Y-123514583D02*
X205829521Y-123752678D01*
X205829521Y-123752678D02*
X205877140Y-123847916D01*
X205877140Y-123847916D02*
X205924759Y-123895535D01*
X205924759Y-123895535D02*
X206019997Y-123943154D01*
X206019997Y-123943154D02*
X206258092Y-123943154D01*
X206258092Y-123943154D02*
X206353330Y-123895535D01*
X206353330Y-123895535D02*
X206400950Y-123847916D01*
X206400950Y-123847916D02*
X206448569Y-123752678D01*
X206448569Y-123752678D02*
X206448569Y-123514583D01*
X206448569Y-123514583D02*
X206400950Y-123419345D01*
X206400950Y-123419345D02*
X206353330Y-123371726D01*
X206448569Y-102479464D02*
X205448569Y-102479464D01*
X205448569Y-102479464D02*
X205448569Y-102717559D01*
X205448569Y-102717559D02*
X205496188Y-102860416D01*
X205496188Y-102860416D02*
X205591426Y-102955654D01*
X205591426Y-102955654D02*
X205686664Y-103003273D01*
X205686664Y-103003273D02*
X205877140Y-103050892D01*
X205877140Y-103050892D02*
X206019997Y-103050892D01*
X206019997Y-103050892D02*
X206210473Y-103003273D01*
X206210473Y-103003273D02*
X206305711Y-102955654D01*
X206305711Y-102955654D02*
X206400950Y-102860416D01*
X206400950Y-102860416D02*
X206448569Y-102717559D01*
X206448569Y-102717559D02*
X206448569Y-102479464D01*
X205448569Y-103384226D02*
X205448569Y-104003273D01*
X205448569Y-104003273D02*
X205829521Y-103669940D01*
X205829521Y-103669940D02*
X205829521Y-103812797D01*
X205829521Y-103812797D02*
X205877140Y-103908035D01*
X205877140Y-103908035D02*
X205924759Y-103955654D01*
X205924759Y-103955654D02*
X206019997Y-104003273D01*
X206019997Y-104003273D02*
X206258092Y-104003273D01*
X206258092Y-104003273D02*
X206353330Y-103955654D01*
X206353330Y-103955654D02*
X206400950Y-103908035D01*
X206400950Y-103908035D02*
X206448569Y-103812797D01*
X206448569Y-103812797D02*
X206448569Y-103527083D01*
X206448569Y-103527083D02*
X206400950Y-103431845D01*
X206400950Y-103431845D02*
X206353330Y-103384226D01*
X206448569Y-104479464D02*
X206448569Y-104669940D01*
X206448569Y-104669940D02*
X206400950Y-104765178D01*
X206400950Y-104765178D02*
X206353330Y-104812797D01*
X206353330Y-104812797D02*
X206210473Y-104908035D01*
X206210473Y-104908035D02*
X206019997Y-104955654D01*
X206019997Y-104955654D02*
X205639045Y-104955654D01*
X205639045Y-104955654D02*
X205543807Y-104908035D01*
X205543807Y-104908035D02*
X205496188Y-104860416D01*
X205496188Y-104860416D02*
X205448569Y-104765178D01*
X205448569Y-104765178D02*
X205448569Y-104574702D01*
X205448569Y-104574702D02*
X205496188Y-104479464D01*
X205496188Y-104479464D02*
X205543807Y-104431845D01*
X205543807Y-104431845D02*
X205639045Y-104384226D01*
X205639045Y-104384226D02*
X205877140Y-104384226D01*
X205877140Y-104384226D02*
X205972378Y-104431845D01*
X205972378Y-104431845D02*
X206019997Y-104479464D01*
X206019997Y-104479464D02*
X206067616Y-104574702D01*
X206067616Y-104574702D02*
X206067616Y-104765178D01*
X206067616Y-104765178D02*
X206019997Y-104860416D01*
X206019997Y-104860416D02*
X205972378Y-104908035D01*
X205972378Y-104908035D02*
X205877140Y-104955654D01*
X109611069Y-68824405D02*
X108611069Y-68824405D01*
X108611069Y-68824405D02*
X108611069Y-69062500D01*
X108611069Y-69062500D02*
X108658688Y-69205357D01*
X108658688Y-69205357D02*
X108753926Y-69300595D01*
X108753926Y-69300595D02*
X108849164Y-69348214D01*
X108849164Y-69348214D02*
X109039640Y-69395833D01*
X109039640Y-69395833D02*
X109182497Y-69395833D01*
X109182497Y-69395833D02*
X109372973Y-69348214D01*
X109372973Y-69348214D02*
X109468211Y-69300595D01*
X109468211Y-69300595D02*
X109563450Y-69205357D01*
X109563450Y-69205357D02*
X109611069Y-69062500D01*
X109611069Y-69062500D02*
X109611069Y-68824405D01*
X108611069Y-70300595D02*
X108611069Y-69824405D01*
X108611069Y-69824405D02*
X109087259Y-69776786D01*
X109087259Y-69776786D02*
X109039640Y-69824405D01*
X109039640Y-69824405D02*
X108992021Y-69919643D01*
X108992021Y-69919643D02*
X108992021Y-70157738D01*
X108992021Y-70157738D02*
X109039640Y-70252976D01*
X109039640Y-70252976D02*
X109087259Y-70300595D01*
X109087259Y-70300595D02*
X109182497Y-70348214D01*
X109182497Y-70348214D02*
X109420592Y-70348214D01*
X109420592Y-70348214D02*
X109515830Y-70300595D01*
X109515830Y-70300595D02*
X109563450Y-70252976D01*
X109563450Y-70252976D02*
X109611069Y-70157738D01*
X109611069Y-70157738D02*
X109611069Y-69919643D01*
X109611069Y-69919643D02*
X109563450Y-69824405D01*
X109563450Y-69824405D02*
X109515830Y-69776786D01*
X263598569Y-110641964D02*
X262598569Y-110641964D01*
X262598569Y-110641964D02*
X262598569Y-110880059D01*
X262598569Y-110880059D02*
X262646188Y-111022916D01*
X262646188Y-111022916D02*
X262741426Y-111118154D01*
X262741426Y-111118154D02*
X262836664Y-111165773D01*
X262836664Y-111165773D02*
X263027140Y-111213392D01*
X263027140Y-111213392D02*
X263169997Y-111213392D01*
X263169997Y-111213392D02*
X263360473Y-111165773D01*
X263360473Y-111165773D02*
X263455711Y-111118154D01*
X263455711Y-111118154D02*
X263550950Y-111022916D01*
X263550950Y-111022916D02*
X263598569Y-110880059D01*
X263598569Y-110880059D02*
X263598569Y-110641964D01*
X262931902Y-112070535D02*
X263598569Y-112070535D01*
X262550950Y-111832440D02*
X263265235Y-111594345D01*
X263265235Y-111594345D02*
X263265235Y-112213392D01*
X262693807Y-112546726D02*
X262646188Y-112594345D01*
X262646188Y-112594345D02*
X262598569Y-112689583D01*
X262598569Y-112689583D02*
X262598569Y-112927678D01*
X262598569Y-112927678D02*
X262646188Y-113022916D01*
X262646188Y-113022916D02*
X262693807Y-113070535D01*
X262693807Y-113070535D02*
X262789045Y-113118154D01*
X262789045Y-113118154D02*
X262884283Y-113118154D01*
X262884283Y-113118154D02*
X263027140Y-113070535D01*
X263027140Y-113070535D02*
X263598569Y-112499107D01*
X263598569Y-112499107D02*
X263598569Y-113118154D01*
X244548569Y-91366964D02*
X243548569Y-91366964D01*
X243548569Y-91366964D02*
X243548569Y-91605059D01*
X243548569Y-91605059D02*
X243596188Y-91747916D01*
X243596188Y-91747916D02*
X243691426Y-91843154D01*
X243691426Y-91843154D02*
X243786664Y-91890773D01*
X243786664Y-91890773D02*
X243977140Y-91938392D01*
X243977140Y-91938392D02*
X244119997Y-91938392D01*
X244119997Y-91938392D02*
X244310473Y-91890773D01*
X244310473Y-91890773D02*
X244405711Y-91843154D01*
X244405711Y-91843154D02*
X244500950Y-91747916D01*
X244500950Y-91747916D02*
X244548569Y-91605059D01*
X244548569Y-91605059D02*
X244548569Y-91366964D01*
X243548569Y-92271726D02*
X243548569Y-92890773D01*
X243548569Y-92890773D02*
X243929521Y-92557440D01*
X243929521Y-92557440D02*
X243929521Y-92700297D01*
X243929521Y-92700297D02*
X243977140Y-92795535D01*
X243977140Y-92795535D02*
X244024759Y-92843154D01*
X244024759Y-92843154D02*
X244119997Y-92890773D01*
X244119997Y-92890773D02*
X244358092Y-92890773D01*
X244358092Y-92890773D02*
X244453330Y-92843154D01*
X244453330Y-92843154D02*
X244500950Y-92795535D01*
X244500950Y-92795535D02*
X244548569Y-92700297D01*
X244548569Y-92700297D02*
X244548569Y-92414583D01*
X244548569Y-92414583D02*
X244500950Y-92319345D01*
X244500950Y-92319345D02*
X244453330Y-92271726D01*
X243548569Y-93795535D02*
X243548569Y-93319345D01*
X243548569Y-93319345D02*
X244024759Y-93271726D01*
X244024759Y-93271726D02*
X243977140Y-93319345D01*
X243977140Y-93319345D02*
X243929521Y-93414583D01*
X243929521Y-93414583D02*
X243929521Y-93652678D01*
X243929521Y-93652678D02*
X243977140Y-93747916D01*
X243977140Y-93747916D02*
X244024759Y-93795535D01*
X244024759Y-93795535D02*
X244119997Y-93843154D01*
X244119997Y-93843154D02*
X244358092Y-93843154D01*
X244358092Y-93843154D02*
X244453330Y-93795535D01*
X244453330Y-93795535D02*
X244500950Y-93747916D01*
X244500950Y-93747916D02*
X244548569Y-93652678D01*
X244548569Y-93652678D02*
X244548569Y-93414583D01*
X244548569Y-93414583D02*
X244500950Y-93319345D01*
X244500950Y-93319345D02*
X244453330Y-93271726D01*
X71511069Y-106448214D02*
X70511069Y-106448214D01*
X70511069Y-106448214D02*
X70511069Y-106686309D01*
X70511069Y-106686309D02*
X70558688Y-106829166D01*
X70558688Y-106829166D02*
X70653926Y-106924404D01*
X70653926Y-106924404D02*
X70749164Y-106972023D01*
X70749164Y-106972023D02*
X70939640Y-107019642D01*
X70939640Y-107019642D02*
X71082497Y-107019642D01*
X71082497Y-107019642D02*
X71272973Y-106972023D01*
X71272973Y-106972023D02*
X71368211Y-106924404D01*
X71368211Y-106924404D02*
X71463450Y-106829166D01*
X71463450Y-106829166D02*
X71511069Y-106686309D01*
X71511069Y-106686309D02*
X71511069Y-106448214D01*
X71511069Y-107972023D02*
X71511069Y-107400595D01*
X71511069Y-107686309D02*
X70511069Y-107686309D01*
X70511069Y-107686309D02*
X70653926Y-107591071D01*
X70653926Y-107591071D02*
X70749164Y-107495833D01*
X70749164Y-107495833D02*
X70796783Y-107400595D01*
X70511069Y-108876785D02*
X70511069Y-108400595D01*
X70511069Y-108400595D02*
X70987259Y-108352976D01*
X70987259Y-108352976D02*
X70939640Y-108400595D01*
X70939640Y-108400595D02*
X70892021Y-108495833D01*
X70892021Y-108495833D02*
X70892021Y-108733928D01*
X70892021Y-108733928D02*
X70939640Y-108829166D01*
X70939640Y-108829166D02*
X70987259Y-108876785D01*
X70987259Y-108876785D02*
X71082497Y-108924404D01*
X71082497Y-108924404D02*
X71320592Y-108924404D01*
X71320592Y-108924404D02*
X71415830Y-108876785D01*
X71415830Y-108876785D02*
X71463450Y-108829166D01*
X71463450Y-108829166D02*
X71511069Y-108733928D01*
X71511069Y-108733928D02*
X71511069Y-108495833D01*
X71511069Y-108495833D02*
X71463450Y-108400595D01*
X71463450Y-108400595D02*
X71415830Y-108352976D01*
X225498569Y-125498214D02*
X224498569Y-125498214D01*
X224498569Y-125498214D02*
X224498569Y-125736309D01*
X224498569Y-125736309D02*
X224546188Y-125879166D01*
X224546188Y-125879166D02*
X224641426Y-125974404D01*
X224641426Y-125974404D02*
X224736664Y-126022023D01*
X224736664Y-126022023D02*
X224927140Y-126069642D01*
X224927140Y-126069642D02*
X225069997Y-126069642D01*
X225069997Y-126069642D02*
X225260473Y-126022023D01*
X225260473Y-126022023D02*
X225355711Y-125974404D01*
X225355711Y-125974404D02*
X225450950Y-125879166D01*
X225450950Y-125879166D02*
X225498569Y-125736309D01*
X225498569Y-125736309D02*
X225498569Y-125498214D01*
X224831902Y-126926785D02*
X225498569Y-126926785D01*
X224450950Y-126688690D02*
X225165235Y-126450595D01*
X225165235Y-126450595D02*
X225165235Y-127069642D01*
X224498569Y-127879166D02*
X224498569Y-127688690D01*
X224498569Y-127688690D02*
X224546188Y-127593452D01*
X224546188Y-127593452D02*
X224593807Y-127545833D01*
X224593807Y-127545833D02*
X224736664Y-127450595D01*
X224736664Y-127450595D02*
X224927140Y-127402976D01*
X224927140Y-127402976D02*
X225308092Y-127402976D01*
X225308092Y-127402976D02*
X225403330Y-127450595D01*
X225403330Y-127450595D02*
X225450950Y-127498214D01*
X225450950Y-127498214D02*
X225498569Y-127593452D01*
X225498569Y-127593452D02*
X225498569Y-127783928D01*
X225498569Y-127783928D02*
X225450950Y-127879166D01*
X225450950Y-127879166D02*
X225403330Y-127926785D01*
X225403330Y-127926785D02*
X225308092Y-127974404D01*
X225308092Y-127974404D02*
X225069997Y-127974404D01*
X225069997Y-127974404D02*
X224974759Y-127926785D01*
X224974759Y-127926785D02*
X224927140Y-127879166D01*
X224927140Y-127879166D02*
X224879521Y-127783928D01*
X224879521Y-127783928D02*
X224879521Y-127593452D01*
X224879521Y-127593452D02*
X224927140Y-127498214D01*
X224927140Y-127498214D02*
X224974759Y-127450595D01*
X224974759Y-127450595D02*
X225069997Y-127402976D01*
X168348569Y-87398214D02*
X167348569Y-87398214D01*
X167348569Y-87398214D02*
X167348569Y-87636309D01*
X167348569Y-87636309D02*
X167396188Y-87779166D01*
X167396188Y-87779166D02*
X167491426Y-87874404D01*
X167491426Y-87874404D02*
X167586664Y-87922023D01*
X167586664Y-87922023D02*
X167777140Y-87969642D01*
X167777140Y-87969642D02*
X167919997Y-87969642D01*
X167919997Y-87969642D02*
X168110473Y-87922023D01*
X168110473Y-87922023D02*
X168205711Y-87874404D01*
X168205711Y-87874404D02*
X168300950Y-87779166D01*
X168300950Y-87779166D02*
X168348569Y-87636309D01*
X168348569Y-87636309D02*
X168348569Y-87398214D01*
X167348569Y-88302976D02*
X167348569Y-88922023D01*
X167348569Y-88922023D02*
X167729521Y-88588690D01*
X167729521Y-88588690D02*
X167729521Y-88731547D01*
X167729521Y-88731547D02*
X167777140Y-88826785D01*
X167777140Y-88826785D02*
X167824759Y-88874404D01*
X167824759Y-88874404D02*
X167919997Y-88922023D01*
X167919997Y-88922023D02*
X168158092Y-88922023D01*
X168158092Y-88922023D02*
X168253330Y-88874404D01*
X168253330Y-88874404D02*
X168300950Y-88826785D01*
X168300950Y-88826785D02*
X168348569Y-88731547D01*
X168348569Y-88731547D02*
X168348569Y-88445833D01*
X168348569Y-88445833D02*
X168300950Y-88350595D01*
X168300950Y-88350595D02*
X168253330Y-88302976D01*
X168348569Y-89874404D02*
X168348569Y-89302976D01*
X168348569Y-89588690D02*
X167348569Y-89588690D01*
X167348569Y-89588690D02*
X167491426Y-89493452D01*
X167491426Y-89493452D02*
X167586664Y-89398214D01*
X167586664Y-89398214D02*
X167634283Y-89302976D01*
X33411069Y-129404464D02*
X32411069Y-129404464D01*
X32411069Y-129404464D02*
X32411069Y-129642559D01*
X32411069Y-129642559D02*
X32458688Y-129785416D01*
X32458688Y-129785416D02*
X32553926Y-129880654D01*
X32553926Y-129880654D02*
X32649164Y-129928273D01*
X32649164Y-129928273D02*
X32839640Y-129975892D01*
X32839640Y-129975892D02*
X32982497Y-129975892D01*
X32982497Y-129975892D02*
X33172973Y-129928273D01*
X33172973Y-129928273D02*
X33268211Y-129880654D01*
X33268211Y-129880654D02*
X33363450Y-129785416D01*
X33363450Y-129785416D02*
X33411069Y-129642559D01*
X33411069Y-129642559D02*
X33411069Y-129404464D01*
X33411069Y-130928273D02*
X33411069Y-130356845D01*
X33411069Y-130642559D02*
X32411069Y-130642559D01*
X32411069Y-130642559D02*
X32553926Y-130547321D01*
X32553926Y-130547321D02*
X32649164Y-130452083D01*
X32649164Y-130452083D02*
X32696783Y-130356845D01*
X33411069Y-131404464D02*
X33411069Y-131594940D01*
X33411069Y-131594940D02*
X33363450Y-131690178D01*
X33363450Y-131690178D02*
X33315830Y-131737797D01*
X33315830Y-131737797D02*
X33172973Y-131833035D01*
X33172973Y-131833035D02*
X32982497Y-131880654D01*
X32982497Y-131880654D02*
X32601545Y-131880654D01*
X32601545Y-131880654D02*
X32506307Y-131833035D01*
X32506307Y-131833035D02*
X32458688Y-131785416D01*
X32458688Y-131785416D02*
X32411069Y-131690178D01*
X32411069Y-131690178D02*
X32411069Y-131499702D01*
X32411069Y-131499702D02*
X32458688Y-131404464D01*
X32458688Y-131404464D02*
X32506307Y-131356845D01*
X32506307Y-131356845D02*
X32601545Y-131309226D01*
X32601545Y-131309226D02*
X32839640Y-131309226D01*
X32839640Y-131309226D02*
X32934878Y-131356845D01*
X32934878Y-131356845D02*
X32982497Y-131404464D01*
X32982497Y-131404464D02*
X33030116Y-131499702D01*
X33030116Y-131499702D02*
X33030116Y-131690178D01*
X33030116Y-131690178D02*
X32982497Y-131785416D01*
X32982497Y-131785416D02*
X32934878Y-131833035D01*
X32934878Y-131833035D02*
X32839640Y-131880654D01*
X33411069Y-72730655D02*
X32411069Y-72730655D01*
X32411069Y-72730655D02*
X32411069Y-72968750D01*
X32411069Y-72968750D02*
X32458688Y-73111607D01*
X32458688Y-73111607D02*
X32553926Y-73206845D01*
X32553926Y-73206845D02*
X32649164Y-73254464D01*
X32649164Y-73254464D02*
X32839640Y-73302083D01*
X32839640Y-73302083D02*
X32982497Y-73302083D01*
X32982497Y-73302083D02*
X33172973Y-73254464D01*
X33172973Y-73254464D02*
X33268211Y-73206845D01*
X33268211Y-73206845D02*
X33363450Y-73111607D01*
X33363450Y-73111607D02*
X33411069Y-72968750D01*
X33411069Y-72968750D02*
X33411069Y-72730655D01*
X33411069Y-74254464D02*
X33411069Y-73683036D01*
X33411069Y-73968750D02*
X32411069Y-73968750D01*
X32411069Y-73968750D02*
X32553926Y-73873512D01*
X32553926Y-73873512D02*
X32649164Y-73778274D01*
X32649164Y-73778274D02*
X32696783Y-73683036D01*
X71511069Y-87874405D02*
X70511069Y-87874405D01*
X70511069Y-87874405D02*
X70511069Y-88112500D01*
X70511069Y-88112500D02*
X70558688Y-88255357D01*
X70558688Y-88255357D02*
X70653926Y-88350595D01*
X70653926Y-88350595D02*
X70749164Y-88398214D01*
X70749164Y-88398214D02*
X70939640Y-88445833D01*
X70939640Y-88445833D02*
X71082497Y-88445833D01*
X71082497Y-88445833D02*
X71272973Y-88398214D01*
X71272973Y-88398214D02*
X71368211Y-88350595D01*
X71368211Y-88350595D02*
X71463450Y-88255357D01*
X71463450Y-88255357D02*
X71511069Y-88112500D01*
X71511069Y-88112500D02*
X71511069Y-87874405D01*
X71511069Y-88922024D02*
X71511069Y-89112500D01*
X71511069Y-89112500D02*
X71463450Y-89207738D01*
X71463450Y-89207738D02*
X71415830Y-89255357D01*
X71415830Y-89255357D02*
X71272973Y-89350595D01*
X71272973Y-89350595D02*
X71082497Y-89398214D01*
X71082497Y-89398214D02*
X70701545Y-89398214D01*
X70701545Y-89398214D02*
X70606307Y-89350595D01*
X70606307Y-89350595D02*
X70558688Y-89302976D01*
X70558688Y-89302976D02*
X70511069Y-89207738D01*
X70511069Y-89207738D02*
X70511069Y-89017262D01*
X70511069Y-89017262D02*
X70558688Y-88922024D01*
X70558688Y-88922024D02*
X70606307Y-88874405D01*
X70606307Y-88874405D02*
X70701545Y-88826786D01*
X70701545Y-88826786D02*
X70939640Y-88826786D01*
X70939640Y-88826786D02*
X71034878Y-88874405D01*
X71034878Y-88874405D02*
X71082497Y-88922024D01*
X71082497Y-88922024D02*
X71130116Y-89017262D01*
X71130116Y-89017262D02*
X71130116Y-89207738D01*
X71130116Y-89207738D02*
X71082497Y-89302976D01*
X71082497Y-89302976D02*
X71034878Y-89350595D01*
X71034878Y-89350595D02*
X70939640Y-89398214D01*
X128661069Y-106448214D02*
X127661069Y-106448214D01*
X127661069Y-106448214D02*
X127661069Y-106686309D01*
X127661069Y-106686309D02*
X127708688Y-106829166D01*
X127708688Y-106829166D02*
X127803926Y-106924404D01*
X127803926Y-106924404D02*
X127899164Y-106972023D01*
X127899164Y-106972023D02*
X128089640Y-107019642D01*
X128089640Y-107019642D02*
X128232497Y-107019642D01*
X128232497Y-107019642D02*
X128422973Y-106972023D01*
X128422973Y-106972023D02*
X128518211Y-106924404D01*
X128518211Y-106924404D02*
X128613450Y-106829166D01*
X128613450Y-106829166D02*
X128661069Y-106686309D01*
X128661069Y-106686309D02*
X128661069Y-106448214D01*
X128661069Y-107972023D02*
X128661069Y-107400595D01*
X128661069Y-107686309D02*
X127661069Y-107686309D01*
X127661069Y-107686309D02*
X127803926Y-107591071D01*
X127803926Y-107591071D02*
X127899164Y-107495833D01*
X127899164Y-107495833D02*
X127946783Y-107400595D01*
X128089640Y-108543452D02*
X128042021Y-108448214D01*
X128042021Y-108448214D02*
X127994402Y-108400595D01*
X127994402Y-108400595D02*
X127899164Y-108352976D01*
X127899164Y-108352976D02*
X127851545Y-108352976D01*
X127851545Y-108352976D02*
X127756307Y-108400595D01*
X127756307Y-108400595D02*
X127708688Y-108448214D01*
X127708688Y-108448214D02*
X127661069Y-108543452D01*
X127661069Y-108543452D02*
X127661069Y-108733928D01*
X127661069Y-108733928D02*
X127708688Y-108829166D01*
X127708688Y-108829166D02*
X127756307Y-108876785D01*
X127756307Y-108876785D02*
X127851545Y-108924404D01*
X127851545Y-108924404D02*
X127899164Y-108924404D01*
X127899164Y-108924404D02*
X127994402Y-108876785D01*
X127994402Y-108876785D02*
X128042021Y-108829166D01*
X128042021Y-108829166D02*
X128089640Y-108733928D01*
X128089640Y-108733928D02*
X128089640Y-108543452D01*
X128089640Y-108543452D02*
X128137259Y-108448214D01*
X128137259Y-108448214D02*
X128184878Y-108400595D01*
X128184878Y-108400595D02*
X128280116Y-108352976D01*
X128280116Y-108352976D02*
X128470592Y-108352976D01*
X128470592Y-108352976D02*
X128565830Y-108400595D01*
X128565830Y-108400595D02*
X128613450Y-108448214D01*
X128613450Y-108448214D02*
X128661069Y-108543452D01*
X128661069Y-108543452D02*
X128661069Y-108733928D01*
X128661069Y-108733928D02*
X128613450Y-108829166D01*
X128613450Y-108829166D02*
X128565830Y-108876785D01*
X128565830Y-108876785D02*
X128470592Y-108924404D01*
X128470592Y-108924404D02*
X128280116Y-108924404D01*
X128280116Y-108924404D02*
X128184878Y-108876785D01*
X128184878Y-108876785D02*
X128137259Y-108829166D01*
X128137259Y-108829166D02*
X128089640Y-108733928D01*
X168348569Y-68348214D02*
X167348569Y-68348214D01*
X167348569Y-68348214D02*
X167348569Y-68586309D01*
X167348569Y-68586309D02*
X167396188Y-68729166D01*
X167396188Y-68729166D02*
X167491426Y-68824404D01*
X167491426Y-68824404D02*
X167586664Y-68872023D01*
X167586664Y-68872023D02*
X167777140Y-68919642D01*
X167777140Y-68919642D02*
X167919997Y-68919642D01*
X167919997Y-68919642D02*
X168110473Y-68872023D01*
X168110473Y-68872023D02*
X168205711Y-68824404D01*
X168205711Y-68824404D02*
X168300950Y-68729166D01*
X168300950Y-68729166D02*
X168348569Y-68586309D01*
X168348569Y-68586309D02*
X168348569Y-68348214D01*
X167443807Y-69300595D02*
X167396188Y-69348214D01*
X167396188Y-69348214D02*
X167348569Y-69443452D01*
X167348569Y-69443452D02*
X167348569Y-69681547D01*
X167348569Y-69681547D02*
X167396188Y-69776785D01*
X167396188Y-69776785D02*
X167443807Y-69824404D01*
X167443807Y-69824404D02*
X167539045Y-69872023D01*
X167539045Y-69872023D02*
X167634283Y-69872023D01*
X167634283Y-69872023D02*
X167777140Y-69824404D01*
X167777140Y-69824404D02*
X168348569Y-69252976D01*
X168348569Y-69252976D02*
X168348569Y-69872023D01*
X167348569Y-70776785D02*
X167348569Y-70300595D01*
X167348569Y-70300595D02*
X167824759Y-70252976D01*
X167824759Y-70252976D02*
X167777140Y-70300595D01*
X167777140Y-70300595D02*
X167729521Y-70395833D01*
X167729521Y-70395833D02*
X167729521Y-70633928D01*
X167729521Y-70633928D02*
X167777140Y-70729166D01*
X167777140Y-70729166D02*
X167824759Y-70776785D01*
X167824759Y-70776785D02*
X167919997Y-70824404D01*
X167919997Y-70824404D02*
X168158092Y-70824404D01*
X168158092Y-70824404D02*
X168253330Y-70776785D01*
X168253330Y-70776785D02*
X168300950Y-70729166D01*
X168300950Y-70729166D02*
X168348569Y-70633928D01*
X168348569Y-70633928D02*
X168348569Y-70395833D01*
X168348569Y-70395833D02*
X168300950Y-70300595D01*
X168300950Y-70300595D02*
X168253330Y-70252976D01*
X225498569Y-106448214D02*
X224498569Y-106448214D01*
X224498569Y-106448214D02*
X224498569Y-106686309D01*
X224498569Y-106686309D02*
X224546188Y-106829166D01*
X224546188Y-106829166D02*
X224641426Y-106924404D01*
X224641426Y-106924404D02*
X224736664Y-106972023D01*
X224736664Y-106972023D02*
X224927140Y-107019642D01*
X224927140Y-107019642D02*
X225069997Y-107019642D01*
X225069997Y-107019642D02*
X225260473Y-106972023D01*
X225260473Y-106972023D02*
X225355711Y-106924404D01*
X225355711Y-106924404D02*
X225450950Y-106829166D01*
X225450950Y-106829166D02*
X225498569Y-106686309D01*
X225498569Y-106686309D02*
X225498569Y-106448214D01*
X224831902Y-107876785D02*
X225498569Y-107876785D01*
X224450950Y-107638690D02*
X225165235Y-107400595D01*
X225165235Y-107400595D02*
X225165235Y-108019642D01*
X224498569Y-108591071D02*
X224498569Y-108686309D01*
X224498569Y-108686309D02*
X224546188Y-108781547D01*
X224546188Y-108781547D02*
X224593807Y-108829166D01*
X224593807Y-108829166D02*
X224689045Y-108876785D01*
X224689045Y-108876785D02*
X224879521Y-108924404D01*
X224879521Y-108924404D02*
X225117616Y-108924404D01*
X225117616Y-108924404D02*
X225308092Y-108876785D01*
X225308092Y-108876785D02*
X225403330Y-108829166D01*
X225403330Y-108829166D02*
X225450950Y-108781547D01*
X225450950Y-108781547D02*
X225498569Y-108686309D01*
X225498569Y-108686309D02*
X225498569Y-108591071D01*
X225498569Y-108591071D02*
X225450950Y-108495833D01*
X225450950Y-108495833D02*
X225403330Y-108448214D01*
X225403330Y-108448214D02*
X225308092Y-108400595D01*
X225308092Y-108400595D02*
X225117616Y-108352976D01*
X225117616Y-108352976D02*
X224879521Y-108352976D01*
X224879521Y-108352976D02*
X224689045Y-108400595D01*
X224689045Y-108400595D02*
X224593807Y-108448214D01*
X224593807Y-108448214D02*
X224546188Y-108495833D01*
X224546188Y-108495833D02*
X224498569Y-108591071D01*
X109611069Y-87398214D02*
X108611069Y-87398214D01*
X108611069Y-87398214D02*
X108611069Y-87636309D01*
X108611069Y-87636309D02*
X108658688Y-87779166D01*
X108658688Y-87779166D02*
X108753926Y-87874404D01*
X108753926Y-87874404D02*
X108849164Y-87922023D01*
X108849164Y-87922023D02*
X109039640Y-87969642D01*
X109039640Y-87969642D02*
X109182497Y-87969642D01*
X109182497Y-87969642D02*
X109372973Y-87922023D01*
X109372973Y-87922023D02*
X109468211Y-87874404D01*
X109468211Y-87874404D02*
X109563450Y-87779166D01*
X109563450Y-87779166D02*
X109611069Y-87636309D01*
X109611069Y-87636309D02*
X109611069Y-87398214D01*
X109611069Y-88922023D02*
X109611069Y-88350595D01*
X109611069Y-88636309D02*
X108611069Y-88636309D01*
X108611069Y-88636309D02*
X108753926Y-88541071D01*
X108753926Y-88541071D02*
X108849164Y-88445833D01*
X108849164Y-88445833D02*
X108896783Y-88350595D01*
X109611069Y-89874404D02*
X109611069Y-89302976D01*
X109611069Y-89588690D02*
X108611069Y-89588690D01*
X108611069Y-89588690D02*
X108753926Y-89493452D01*
X108753926Y-89493452D02*
X108849164Y-89398214D01*
X108849164Y-89398214D02*
X108896783Y-89302976D01*
X244548569Y-72379464D02*
X243548569Y-72379464D01*
X243548569Y-72379464D02*
X243548569Y-72617559D01*
X243548569Y-72617559D02*
X243596188Y-72760416D01*
X243596188Y-72760416D02*
X243691426Y-72855654D01*
X243691426Y-72855654D02*
X243786664Y-72903273D01*
X243786664Y-72903273D02*
X243977140Y-72950892D01*
X243977140Y-72950892D02*
X244119997Y-72950892D01*
X244119997Y-72950892D02*
X244310473Y-72903273D01*
X244310473Y-72903273D02*
X244405711Y-72855654D01*
X244405711Y-72855654D02*
X244500950Y-72760416D01*
X244500950Y-72760416D02*
X244548569Y-72617559D01*
X244548569Y-72617559D02*
X244548569Y-72379464D01*
X243643807Y-73331845D02*
X243596188Y-73379464D01*
X243596188Y-73379464D02*
X243548569Y-73474702D01*
X243548569Y-73474702D02*
X243548569Y-73712797D01*
X243548569Y-73712797D02*
X243596188Y-73808035D01*
X243596188Y-73808035D02*
X243643807Y-73855654D01*
X243643807Y-73855654D02*
X243739045Y-73903273D01*
X243739045Y-73903273D02*
X243834283Y-73903273D01*
X243834283Y-73903273D02*
X243977140Y-73855654D01*
X243977140Y-73855654D02*
X244548569Y-73284226D01*
X244548569Y-73284226D02*
X244548569Y-73903273D01*
X244548569Y-74379464D02*
X244548569Y-74569940D01*
X244548569Y-74569940D02*
X244500950Y-74665178D01*
X244500950Y-74665178D02*
X244453330Y-74712797D01*
X244453330Y-74712797D02*
X244310473Y-74808035D01*
X244310473Y-74808035D02*
X244119997Y-74855654D01*
X244119997Y-74855654D02*
X243739045Y-74855654D01*
X243739045Y-74855654D02*
X243643807Y-74808035D01*
X243643807Y-74808035D02*
X243596188Y-74760416D01*
X243596188Y-74760416D02*
X243548569Y-74665178D01*
X243548569Y-74665178D02*
X243548569Y-74474702D01*
X243548569Y-74474702D02*
X243596188Y-74379464D01*
X243596188Y-74379464D02*
X243643807Y-74331845D01*
X243643807Y-74331845D02*
X243739045Y-74284226D01*
X243739045Y-74284226D02*
X243977140Y-74284226D01*
X243977140Y-74284226D02*
X244072378Y-74331845D01*
X244072378Y-74331845D02*
X244119997Y-74379464D01*
X244119997Y-74379464D02*
X244167616Y-74474702D01*
X244167616Y-74474702D02*
X244167616Y-74665178D01*
X244167616Y-74665178D02*
X244119997Y-74760416D01*
X244119997Y-74760416D02*
X244072378Y-74808035D01*
X244072378Y-74808035D02*
X243977140Y-74855654D01*
D11*
%TO.C,D16*%
X87106250Y-102043750D02*
X87106250Y-106053750D01*
X87106250Y-106053750D02*
X89106250Y-106053750D01*
X89106250Y-102043750D02*
X89106250Y-106053750D01*
%TO.C,D12*%
X125206250Y-86962500D02*
X125206250Y-90972500D01*
X125206250Y-90972500D02*
X127206250Y-90972500D01*
X127206250Y-86962500D02*
X127206250Y-90972500D01*
%TO.C,D26*%
X183943750Y-67912500D02*
X183943750Y-71922500D01*
X183943750Y-71922500D02*
X185943750Y-71922500D01*
X185943750Y-67912500D02*
X185943750Y-71922500D01*
%TO.C,D17*%
X106156250Y-106012500D02*
X106156250Y-110022500D01*
X106156250Y-110022500D02*
X108156250Y-110022500D01*
X108156250Y-106012500D02*
X108156250Y-110022500D01*
%TO.C,D10*%
X87106250Y-82993750D02*
X87106250Y-87003750D01*
X87106250Y-87003750D02*
X89106250Y-87003750D01*
X89106250Y-82993750D02*
X89106250Y-87003750D01*
%TO.C,D44*%
X183943750Y-125062500D02*
X183943750Y-129072500D01*
X183943750Y-129072500D02*
X185943750Y-129072500D01*
X185943750Y-125062500D02*
X185943750Y-129072500D01*
%TO.C,D37*%
X164893750Y-105950000D02*
X164893750Y-109960000D01*
X164893750Y-109960000D02*
X166893750Y-109960000D01*
X166893750Y-105950000D02*
X166893750Y-109960000D01*
%TO.C,D34*%
X222043750Y-86962500D02*
X222043750Y-90972500D01*
X222043750Y-90972500D02*
X224043750Y-90972500D01*
X224043750Y-86962500D02*
X224043750Y-90972500D01*
%TO.C,D13*%
X29956250Y-109918750D02*
X29956250Y-113928750D01*
X29956250Y-113928750D02*
X31956250Y-113928750D01*
X31956250Y-109918750D02*
X31956250Y-113928750D01*
%TO.C,D8*%
X49006250Y-90868750D02*
X49006250Y-94878750D01*
X49006250Y-94878750D02*
X51006250Y-94878750D01*
X51006250Y-90868750D02*
X51006250Y-94878750D01*
%TO.C,D23*%
X106156250Y-125062500D02*
X106156250Y-129072500D01*
X106156250Y-129072500D02*
X108156250Y-129072500D01*
X108156250Y-125062500D02*
X108156250Y-129072500D01*
%TO.C,D24*%
X125206250Y-125062500D02*
X125206250Y-129072500D01*
X125206250Y-129072500D02*
X127206250Y-129072500D01*
X127206250Y-125062500D02*
X127206250Y-129072500D01*
%TO.C,D32*%
X183943750Y-86962500D02*
X183943750Y-90972500D01*
X183943750Y-90972500D02*
X185943750Y-90972500D01*
X185943750Y-86962500D02*
X185943750Y-90972500D01*
%TO.C,D14*%
X49006250Y-109918750D02*
X49006250Y-113928750D01*
X49006250Y-113928750D02*
X51006250Y-113928750D01*
X51006250Y-109918750D02*
X51006250Y-113928750D01*
%TO.C,D28*%
X222043750Y-67912500D02*
X222043750Y-71922500D01*
X222043750Y-71922500D02*
X224043750Y-71922500D01*
X224043750Y-67912500D02*
X224043750Y-71922500D01*
%TO.C,D4*%
X87106250Y-63943750D02*
X87106250Y-67953750D01*
X87106250Y-67953750D02*
X89106250Y-67953750D01*
X89106250Y-63943750D02*
X89106250Y-67953750D01*
%TO.C,D43*%
X164893750Y-125000000D02*
X164893750Y-129010000D01*
X164893750Y-129010000D02*
X166893750Y-129010000D01*
X166893750Y-125000000D02*
X166893750Y-129010000D01*
%TO.C,D38*%
X183943750Y-106012500D02*
X183943750Y-110022500D01*
X183943750Y-110022500D02*
X185943750Y-110022500D01*
X185943750Y-106012500D02*
X185943750Y-110022500D01*
%TO.C,D2*%
X49006250Y-71818750D02*
X49006250Y-75828750D01*
X49006250Y-75828750D02*
X51006250Y-75828750D01*
X51006250Y-71818750D02*
X51006250Y-75828750D01*
%TO.C,D41*%
X241093750Y-109981250D02*
X241093750Y-113991250D01*
X241093750Y-113991250D02*
X243093750Y-113991250D01*
X243093750Y-109981250D02*
X243093750Y-113991250D01*
%TO.C,D21*%
X68056250Y-125062500D02*
X68056250Y-129072500D01*
X68056250Y-129072500D02*
X70056250Y-129072500D01*
X70056250Y-125062500D02*
X70056250Y-129072500D01*
%TO.C,D6*%
X125206250Y-67850000D02*
X125206250Y-71860000D01*
X125206250Y-71860000D02*
X127206250Y-71860000D01*
X127206250Y-67850000D02*
X127206250Y-71860000D01*
%TO.C,D47*%
X241093750Y-129825000D02*
X241093750Y-133835000D01*
X241093750Y-133835000D02*
X243093750Y-133835000D01*
X243093750Y-129825000D02*
X243093750Y-133835000D01*
%TO.C,D33*%
X202993750Y-82993750D02*
X202993750Y-87003750D01*
X202993750Y-87003750D02*
X204993750Y-87003750D01*
X204993750Y-82993750D02*
X204993750Y-87003750D01*
%TO.C,D48*%
X260143750Y-129256250D02*
X260143750Y-133266250D01*
X260143750Y-133266250D02*
X262143750Y-133266250D01*
X262143750Y-129256250D02*
X262143750Y-133266250D01*
%TO.C,D36*%
X260143750Y-91156250D02*
X260143750Y-95166250D01*
X260143750Y-95166250D02*
X262143750Y-95166250D01*
X262143750Y-91156250D02*
X262143750Y-95166250D01*
%TO.C,D7*%
X29956250Y-90868750D02*
X29956250Y-94878750D01*
X29956250Y-94878750D02*
X31956250Y-94878750D01*
X31956250Y-90868750D02*
X31956250Y-94878750D01*
%TO.C,D3*%
X68056250Y-67912500D02*
X68056250Y-71922500D01*
X68056250Y-71922500D02*
X70056250Y-71922500D01*
X70056250Y-67912500D02*
X70056250Y-71922500D01*
%TO.C,D22*%
X87106250Y-121093750D02*
X87106250Y-125103750D01*
X87106250Y-125103750D02*
X89106250Y-125103750D01*
X89106250Y-121093750D02*
X89106250Y-125103750D01*
%TO.C,D20*%
X49006250Y-128968750D02*
X49006250Y-132978750D01*
X49006250Y-132978750D02*
X51006250Y-132978750D01*
X51006250Y-128968750D02*
X51006250Y-132978750D01*
%TO.C,D27*%
X202993750Y-63943750D02*
X202993750Y-67953750D01*
X202993750Y-67953750D02*
X204993750Y-67953750D01*
X204993750Y-63943750D02*
X204993750Y-67953750D01*
%TO.C,D30*%
X260143750Y-72106250D02*
X260143750Y-76116250D01*
X260143750Y-76116250D02*
X262143750Y-76116250D01*
X262143750Y-72106250D02*
X262143750Y-76116250D01*
%TO.C,D45*%
X202993750Y-121031250D02*
X202993750Y-125041250D01*
X202993750Y-125041250D02*
X204993750Y-125041250D01*
X204993750Y-121031250D02*
X204993750Y-125041250D01*
%TO.C,D39*%
X202993750Y-102043750D02*
X202993750Y-106053750D01*
X202993750Y-106053750D02*
X204993750Y-106053750D01*
X204993750Y-102043750D02*
X204993750Y-106053750D01*
%TO.C,D5*%
X106156250Y-67912500D02*
X106156250Y-71922500D01*
X106156250Y-71922500D02*
X108156250Y-71922500D01*
X108156250Y-67912500D02*
X108156250Y-71922500D01*
%TO.C,D42*%
X260143750Y-110206250D02*
X260143750Y-114216250D01*
X260143750Y-114216250D02*
X262143750Y-114216250D01*
X262143750Y-110206250D02*
X262143750Y-114216250D01*
%TO.C,D35*%
X241093750Y-90931250D02*
X241093750Y-94941250D01*
X241093750Y-94941250D02*
X243093750Y-94941250D01*
X243093750Y-90931250D02*
X243093750Y-94941250D01*
%TO.C,D15*%
X68056250Y-106012500D02*
X68056250Y-110022500D01*
X68056250Y-110022500D02*
X70056250Y-110022500D01*
X70056250Y-106012500D02*
X70056250Y-110022500D01*
%TO.C,D46*%
X222043750Y-125062500D02*
X222043750Y-129072500D01*
X222043750Y-129072500D02*
X224043750Y-129072500D01*
X224043750Y-125062500D02*
X224043750Y-129072500D01*
%TO.C,D31*%
X164893750Y-86962500D02*
X164893750Y-90972500D01*
X164893750Y-90972500D02*
X166893750Y-90972500D01*
X166893750Y-86962500D02*
X166893750Y-90972500D01*
%TO.C,D19*%
X29956250Y-128968750D02*
X29956250Y-132978750D01*
X29956250Y-132978750D02*
X31956250Y-132978750D01*
X31956250Y-128968750D02*
X31956250Y-132978750D01*
%TO.C,D1*%
X29956250Y-71818750D02*
X29956250Y-75828750D01*
X29956250Y-75828750D02*
X31956250Y-75828750D01*
X31956250Y-71818750D02*
X31956250Y-75828750D01*
%TO.C,D9*%
X68056250Y-86962500D02*
X68056250Y-90972500D01*
X68056250Y-90972500D02*
X70056250Y-90972500D01*
X70056250Y-86962500D02*
X70056250Y-90972500D01*
%TO.C,D18*%
X125206250Y-106012500D02*
X125206250Y-110022500D01*
X125206250Y-110022500D02*
X127206250Y-110022500D01*
X127206250Y-106012500D02*
X127206250Y-110022500D01*
%TO.C,D25*%
X164893750Y-67912500D02*
X164893750Y-71922500D01*
X164893750Y-71922500D02*
X166893750Y-71922500D01*
X166893750Y-67912500D02*
X166893750Y-71922500D01*
%TO.C,D40*%
X222043750Y-106012500D02*
X222043750Y-110022500D01*
X222043750Y-110022500D02*
X224043750Y-110022500D01*
X224043750Y-106012500D02*
X224043750Y-110022500D01*
%TO.C,D11*%
X106156250Y-86962500D02*
X106156250Y-90972500D01*
X106156250Y-90972500D02*
X108156250Y-90972500D01*
X108156250Y-86962500D02*
X108156250Y-90972500D01*
%TO.C,D29*%
X241093750Y-71943750D02*
X241093750Y-75953750D01*
X241093750Y-75953750D02*
X243093750Y-75953750D01*
X243093750Y-71943750D02*
X243093750Y-75953750D01*
%TD*%
M02*
