%TF.GenerationSoftware,KiCad,Pcbnew,8.0.2*%
%TF.CreationDate,2024-05-01T20:17:26+07:00*%
%TF.ProjectId,apiratchai_split,61706972-6174-4636-9861-695f73706c69,rev?*%
%TF.SameCoordinates,Original*%
%TF.FileFunction,Paste,Bot*%
%TF.FilePolarity,Positive*%
%FSLAX46Y46*%
G04 Gerber Fmt 4.6, Leading zero omitted, Abs format (unit mm)*
G04 Created by KiCad (PCBNEW 8.0.2) date 2024-05-01 20:17:26*
%MOMM*%
%LPD*%
G01*
G04 APERTURE LIST*
G04 Aperture macros list*
%AMRoundRect*
0 Rectangle with rounded corners*
0 $1 Rounding radius*
0 $2 $3 $4 $5 $6 $7 $8 $9 X,Y pos of 4 corners*
0 Add a 4 corners polygon primitive as box body*
4,1,4,$2,$3,$4,$5,$6,$7,$8,$9,$2,$3,0*
0 Add four circle primitives for the rounded corners*
1,1,$1+$1,$2,$3*
1,1,$1+$1,$4,$5*
1,1,$1+$1,$6,$7*
1,1,$1+$1,$8,$9*
0 Add four rect primitives between the rounded corners*
20,1,$1+$1,$2,$3,$4,$5,0*
20,1,$1+$1,$4,$5,$6,$7,0*
20,1,$1+$1,$6,$7,$8,$9,0*
20,1,$1+$1,$8,$9,$2,$3,0*%
G04 Aperture macros list end*
%ADD10RoundRect,0.225000X0.375000X-0.225000X0.375000X0.225000X-0.375000X0.225000X-0.375000X-0.225000X0*%
G04 APERTURE END LIST*
D10*
%TO.C,D16*%
X88106250Y-105343750D03*
X88106250Y-102043750D03*
%TD*%
%TO.C,D12*%
X126206250Y-90262500D03*
X126206250Y-86962500D03*
%TD*%
%TO.C,D26*%
X184943750Y-71212500D03*
X184943750Y-67912500D03*
%TD*%
%TO.C,D17*%
X107156250Y-109312500D03*
X107156250Y-106012500D03*
%TD*%
%TO.C,D10*%
X88106250Y-86293750D03*
X88106250Y-82993750D03*
%TD*%
%TO.C,D44*%
X184943750Y-128362500D03*
X184943750Y-125062500D03*
%TD*%
%TO.C,D37*%
X165893750Y-109250000D03*
X165893750Y-105950000D03*
%TD*%
%TO.C,D34*%
X223043750Y-90262500D03*
X223043750Y-86962500D03*
%TD*%
%TO.C,D13*%
X30956250Y-113218750D03*
X30956250Y-109918750D03*
%TD*%
%TO.C,D8*%
X50006250Y-94168750D03*
X50006250Y-90868750D03*
%TD*%
%TO.C,D23*%
X107156250Y-128362500D03*
X107156250Y-125062500D03*
%TD*%
%TO.C,D24*%
X126206250Y-128362500D03*
X126206250Y-125062500D03*
%TD*%
%TO.C,D32*%
X184943750Y-90262500D03*
X184943750Y-86962500D03*
%TD*%
%TO.C,D14*%
X50006250Y-113218750D03*
X50006250Y-109918750D03*
%TD*%
%TO.C,D28*%
X223043750Y-71212500D03*
X223043750Y-67912500D03*
%TD*%
%TO.C,D4*%
X88106250Y-67243750D03*
X88106250Y-63943750D03*
%TD*%
%TO.C,D43*%
X165893750Y-128300000D03*
X165893750Y-125000000D03*
%TD*%
%TO.C,D38*%
X184943750Y-109312500D03*
X184943750Y-106012500D03*
%TD*%
%TO.C,D2*%
X50006250Y-75118750D03*
X50006250Y-71818750D03*
%TD*%
%TO.C,D41*%
X242093750Y-113281250D03*
X242093750Y-109981250D03*
%TD*%
%TO.C,D21*%
X69056250Y-128362500D03*
X69056250Y-125062500D03*
%TD*%
%TO.C,D6*%
X126206250Y-71150000D03*
X126206250Y-67850000D03*
%TD*%
%TO.C,D47*%
X242093750Y-133125000D03*
X242093750Y-129825000D03*
%TD*%
%TO.C,D33*%
X203993750Y-86293750D03*
X203993750Y-82993750D03*
%TD*%
%TO.C,D48*%
X261143750Y-132556250D03*
X261143750Y-129256250D03*
%TD*%
%TO.C,D36*%
X261143750Y-94456250D03*
X261143750Y-91156250D03*
%TD*%
%TO.C,D7*%
X30956250Y-94168750D03*
X30956250Y-90868750D03*
%TD*%
%TO.C,D3*%
X69056250Y-71212500D03*
X69056250Y-67912500D03*
%TD*%
%TO.C,D22*%
X88106250Y-124393750D03*
X88106250Y-121093750D03*
%TD*%
%TO.C,D20*%
X50006250Y-132268750D03*
X50006250Y-128968750D03*
%TD*%
%TO.C,D27*%
X203993750Y-67243750D03*
X203993750Y-63943750D03*
%TD*%
%TO.C,D30*%
X261143750Y-75406250D03*
X261143750Y-72106250D03*
%TD*%
%TO.C,D45*%
X203993750Y-124331250D03*
X203993750Y-121031250D03*
%TD*%
%TO.C,D39*%
X203993750Y-105343750D03*
X203993750Y-102043750D03*
%TD*%
%TO.C,D5*%
X107156250Y-71212500D03*
X107156250Y-67912500D03*
%TD*%
%TO.C,D42*%
X261143750Y-113506250D03*
X261143750Y-110206250D03*
%TD*%
%TO.C,D35*%
X242093750Y-94231250D03*
X242093750Y-90931250D03*
%TD*%
%TO.C,D15*%
X69056250Y-109312500D03*
X69056250Y-106012500D03*
%TD*%
%TO.C,D46*%
X223043750Y-128362500D03*
X223043750Y-125062500D03*
%TD*%
%TO.C,D31*%
X165893750Y-90262500D03*
X165893750Y-86962500D03*
%TD*%
%TO.C,D19*%
X30956250Y-132268750D03*
X30956250Y-128968750D03*
%TD*%
%TO.C,D1*%
X30956250Y-75118750D03*
X30956250Y-71818750D03*
%TD*%
%TO.C,D9*%
X69056250Y-90262500D03*
X69056250Y-86962500D03*
%TD*%
%TO.C,D18*%
X126206250Y-109312500D03*
X126206250Y-106012500D03*
%TD*%
%TO.C,D25*%
X165893750Y-71212500D03*
X165893750Y-67912500D03*
%TD*%
%TO.C,D40*%
X223043750Y-109312500D03*
X223043750Y-106012500D03*
%TD*%
%TO.C,D11*%
X107156250Y-90262500D03*
X107156250Y-86962500D03*
%TD*%
%TO.C,D29*%
X242093750Y-75243750D03*
X242093750Y-71943750D03*
%TD*%
M02*
