M48
; DRILL file {KiCad 8.0.2} date 2024-05-01T20:20:14+0700
; FORMAT={-:-/ absolute / inch / decimal}
; #@! TF.CreationDate,2024-05-01T20:20:14+07:00
; #@! TF.GenerationSoftware,Kicad,Pcbnew,8.0.2
; #@! TF.FileFunction,NonPlated,1,2,NPTH
FMAT,2
INCH
; #@! TA.AperFunction,NonPlated,NPTH,ComponentDrill
T1C0.0472
; #@! TA.AperFunction,NonPlated,NPTH,ComponentDrill
T2C0.0689
; #@! TA.AperFunction,NonPlated,NPTH,ComponentDrill
T3C0.1570
%
G90
G05
T1
X5.0312Y-1.7188
X5.0312Y-1.9943
X6.2188Y-1.7188
X6.2188Y-1.9943
T2
X0.8859Y-5.0199
X0.8898Y-2.7699
X0.8898Y-3.5199
X0.8898Y-4.2699
X1.2859Y-5.0199
X1.2898Y-2.7699
X1.2898Y-3.5199
X1.2898Y-4.2699
X1.6398Y-2.7699
X1.6398Y-3.5199
X1.6398Y-4.2699
X1.6398Y-5.0199
X2.0398Y-2.7699
X2.0398Y-3.5199
X2.0398Y-4.2699
X2.0398Y-5.0199
X2.3898Y-2.6137
X2.3898Y-3.3637
X2.3898Y-4.1137
X2.3898Y-4.8637
X2.7898Y-2.6137
X2.7898Y-3.3637
X2.7898Y-4.1137
X2.7898Y-4.8637
X3.1398Y-2.455
X3.1398Y-3.205
X3.1398Y-3.955
X3.1398Y-4.705
X3.5398Y-2.455
X3.5398Y-3.205
X3.5398Y-3.955
X3.5398Y-4.705
X3.8898Y-2.6137
X3.8898Y-3.3637
X3.8898Y-4.1137
X3.8898Y-4.8637
X4.2898Y-2.6137
X4.2898Y-3.3637
X4.2898Y-4.1137
X4.2898Y-4.8637
X4.6398Y-2.6137
X4.6398Y-3.3637
X4.6398Y-4.1137
X4.6398Y-4.8637
X5.0398Y-2.6137
X5.0398Y-3.3637
X5.0398Y-4.1137
X5.0398Y-4.8637
X6.2062Y-2.6137
X6.2062Y-3.3637
X6.2062Y-4.1137
X6.2062Y-4.8637
X6.6063Y-2.6137
X6.6063Y-3.3637
X6.6063Y-4.1137
X6.6063Y-4.8637
X6.9562Y-2.6137
X6.9562Y-3.3637
X6.9562Y-4.1137
X6.9562Y-4.8637
X7.3563Y-2.6137
X7.3563Y-3.3637
X7.3563Y-4.1137
X7.3563Y-4.8637
X7.7062Y-2.4574
X7.7062Y-3.2074
X7.7062Y-3.9574
X7.7062Y-4.7074
X8.1062Y-2.4574
X8.1062Y-3.2074
X8.1062Y-3.9574
X8.1062Y-4.7074
X8.4555Y-4.8639
X8.4562Y-2.6137
X8.4562Y-3.3637
X8.4562Y-4.1137
X8.8555Y-4.8639
X8.8562Y-2.6137
X8.8562Y-3.3637
X8.8562Y-4.1137
X9.2062Y-2.7699
X9.2062Y-3.5199
X9.2062Y-4.2699
X9.2062Y-5.0199
X9.6062Y-2.7699
X9.6062Y-3.5199
X9.6062Y-4.2699
X9.6062Y-5.0199
X9.9562Y-2.7699
X9.9562Y-3.5199
X9.9562Y-4.2699
X9.9562Y-5.0199
X10.3562Y-2.7699
X10.3562Y-3.5199
X10.3562Y-4.2699
X10.3562Y-5.0199
T3
X1.0859Y-5.0199
X1.0898Y-2.7699
X1.0898Y-3.5199
X1.0898Y-4.2699
X1.8398Y-2.7699
X1.8398Y-3.5199
X1.8398Y-4.2699
X1.8398Y-5.0199
X2.5898Y-2.6137
X2.5898Y-3.3637
X2.5898Y-4.1137
X2.5898Y-4.8637
X3.3398Y-2.455
X3.3398Y-3.205
X3.3398Y-3.955
X3.3398Y-4.705
X4.0898Y-2.6137
X4.0898Y-3.3637
X4.0898Y-4.1137
X4.0898Y-4.8637
X4.8398Y-2.6137
X4.8398Y-3.3637
X4.8398Y-4.1137
X4.8398Y-4.8637
X6.4062Y-2.6137
X6.4062Y-3.3637
X6.4062Y-4.1137
X6.4062Y-4.8637
X7.1562Y-2.6137
X7.1562Y-3.3637
X7.1562Y-4.1137
X7.1562Y-4.8637
X7.9062Y-2.4574
X7.9062Y-3.2074
X7.9062Y-3.9574
X7.9062Y-4.7074
X8.6555Y-4.8639
X8.6562Y-2.6137
X8.6562Y-3.3637
X8.6562Y-4.1137
X9.4062Y-2.7699
X9.4062Y-3.5199
X9.4062Y-4.2699
X9.4062Y-5.0199
X10.1562Y-2.7699
X10.1562Y-3.5199
X10.1562Y-4.2699
X10.1562Y-5.0199
M30
