%TF.GenerationSoftware,KiCad,Pcbnew,8.0.2*%
%TF.CreationDate,2024-05-01T20:17:26+07:00*%
%TF.ProjectId,apiratchai_split,61706972-6174-4636-9861-695f73706c69,rev?*%
%TF.SameCoordinates,Original*%
%TF.FileFunction,Copper,L1,Top*%
%TF.FilePolarity,Positive*%
%FSLAX46Y46*%
G04 Gerber Fmt 4.6, Leading zero omitted, Abs format (unit mm)*
G04 Created by KiCad (PCBNEW 8.0.2) date 2024-05-01 20:17:26*
%MOMM*%
%LPD*%
G01*
G04 APERTURE LIST*
G04 Aperture macros list*
%AMRoundRect*
0 Rectangle with rounded corners*
0 $1 Rounding radius*
0 $2 $3 $4 $5 $6 $7 $8 $9 X,Y pos of 4 corners*
0 Add a 4 corners polygon primitive as box body*
4,1,4,$2,$3,$4,$5,$6,$7,$8,$9,$2,$3,0*
0 Add four circle primitives for the rounded corners*
1,1,$1+$1,$2,$3*
1,1,$1+$1,$4,$5*
1,1,$1+$1,$6,$7*
1,1,$1+$1,$8,$9*
0 Add four rect primitives between the rounded corners*
20,1,$1+$1,$2,$3,$4,$5,0*
20,1,$1+$1,$4,$5,$6,$7,0*
20,1,$1+$1,$6,$7,$8,$9,0*
20,1,$1+$1,$8,$9,$2,$3,0*%
G04 Aperture macros list end*
%TA.AperFunction,ComponentPad*%
%ADD10C,2.300000*%
%TD*%
%TA.AperFunction,ComponentPad*%
%ADD11O,1.700000X2.400000*%
%TD*%
%TA.AperFunction,ComponentPad*%
%ADD12C,1.800000*%
%TD*%
%TA.AperFunction,ComponentPad*%
%ADD13RoundRect,0.450000X0.450000X-0.450000X0.450000X0.450000X-0.450000X0.450000X-0.450000X-0.450000X0*%
%TD*%
%TA.AperFunction,ComponentPad*%
%ADD14RoundRect,0.450000X-0.450000X0.450000X-0.450000X-0.450000X0.450000X-0.450000X0.450000X0.450000X0*%
%TD*%
%TA.AperFunction,ViaPad*%
%ADD15C,0.600000*%
%TD*%
%TA.AperFunction,Conductor*%
%ADD16C,0.200000*%
%TD*%
G04 APERTURE END LIST*
D10*
%TO.P,MX43,1,1*%
%TO.N,Col0R*%
X158908750Y-120997500D03*
%TO.P,MX43,2,2*%
%TO.N,Net-(D43-A)*%
X165258750Y-118457500D03*
%TD*%
%TO.P,MX26,1,1*%
%TO.N,Col1R*%
X177958750Y-63847500D03*
%TO.P,MX26,2,2*%
%TO.N,Net-(D26-A)*%
X184308750Y-61307500D03*
%TD*%
%TO.P,MX7,1,1*%
%TO.N,Col0*%
X23871250Y-86866250D03*
%TO.P,MX7,2,2*%
%TO.N,Net-(D7-A)*%
X30221250Y-84326250D03*
%TD*%
D11*
%TO.P,J3,R1*%
%TO.N,Net-(J4-Pin_2)*%
X160056250Y-52456250D03*
%TO.P,J3,R2*%
%TO.N,unconnected-(J3-PadR2)*%
X160056250Y-48456250D03*
%TO.P,J3,S*%
%TO.N,Net-(J4-Pin_14)*%
X160056250Y-45456250D03*
%TO.P,J3,T*%
%TO.N,Net-(J4-Pin_16)*%
X155856250Y-53956250D03*
%TD*%
D10*
%TO.P,MX31,1,1*%
%TO.N,Col0R*%
X158908750Y-82897500D03*
%TO.P,MX31,2,2*%
%TO.N,Net-(D31-A)*%
X165258750Y-80357500D03*
%TD*%
%TO.P,MX21,1,1*%
%TO.N,Col2*%
X61971250Y-120997500D03*
%TO.P,MX21,2,2*%
%TO.N,Net-(D21-A)*%
X68321250Y-118457500D03*
%TD*%
%TO.P,MX18,1,1*%
%TO.N,Col5*%
X119121250Y-101947500D03*
%TO.P,MX18,2,2*%
%TO.N,Net-(D18-A)*%
X125471250Y-99407500D03*
%TD*%
%TO.P,MX24,1,1*%
%TO.N,Col5*%
X119121250Y-120997500D03*
%TO.P,MX24,2,2*%
%TO.N,Net-(D24-A)*%
X125471250Y-118457500D03*
%TD*%
D11*
%TO.P,J2,R1*%
%TO.N,Net-(J1-Pin_2)*%
X129893750Y-52456250D03*
%TO.P,J2,R2*%
%TO.N,unconnected-(J2-PadR2)*%
X129893750Y-48456250D03*
%TO.P,J2,S*%
%TO.N,Net-(J1-Pin_14)*%
X129893750Y-45456250D03*
%TO.P,J2,T*%
%TO.N,Net-(J1-Pin_16)*%
X125693750Y-53956250D03*
%TD*%
D10*
%TO.P,MX47,1,1*%
%TO.N,Col4R*%
X235108750Y-124966250D03*
%TO.P,MX47,2,2*%
%TO.N,Net-(D47-A)*%
X241458750Y-122426250D03*
%TD*%
%TO.P,MX27,1,1*%
%TO.N,Col2R*%
X197008750Y-59878750D03*
%TO.P,MX27,2,2*%
%TO.N,Net-(D27-A)*%
X203358750Y-57338750D03*
%TD*%
%TO.P,MX44,1,1*%
%TO.N,Col1R*%
X177958750Y-120997500D03*
%TO.P,MX44,2,2*%
%TO.N,Net-(D44-A)*%
X184308750Y-118457500D03*
%TD*%
%TO.P,MX8,1,1*%
%TO.N,Col1*%
X42921250Y-86866250D03*
%TO.P,MX8,2,2*%
%TO.N,Net-(D8-A)*%
X49271250Y-84326250D03*
%TD*%
%TO.P,MX39,1,1*%
%TO.N,Col2R*%
X197008750Y-97978750D03*
%TO.P,MX39,2,2*%
%TO.N,Net-(D39-A)*%
X203358750Y-95438750D03*
%TD*%
D12*
%TO.P,J1,1,Pin_1*%
%TO.N,unconnected-(J1-Pin_1-Pad1)*%
X88265000Y-49212500D03*
%TO.P,J1,2,Pin_2*%
%TO.N,Net-(J1-Pin_2)*%
X90805000Y-49212500D03*
D13*
%TO.P,J1,3,Pin_3*%
%TO.N,unconnected-(J1-Pin_3-Pad3)*%
X93345000Y-49212500D03*
%TO.P,J1,4,Pin_4*%
%TO.N,unconnected-(J1-Pin_4-Pad4)*%
X95885000Y-49212500D03*
D12*
%TO.P,J1,5,Pin_5*%
%TO.N,Col0*%
X98425000Y-49212500D03*
%TO.P,J1,6,Pin_6*%
%TO.N,Col1*%
X100965000Y-49212500D03*
%TO.P,J1,7,Pin_7*%
%TO.N,Col2*%
X103505000Y-49212500D03*
%TO.P,J1,8,Pin_8*%
%TO.N,unconnected-(J1-Pin_8-Pad8)*%
X106045000Y-49212500D03*
%TO.P,J1,9,Pin_9*%
%TO.N,unconnected-(J1-Pin_9-Pad9)*%
X108585000Y-49212500D03*
%TO.P,J1,10,Pin_10*%
%TO.N,unconnected-(J1-Pin_10-Pad10)*%
X111125000Y-49212500D03*
%TO.P,J1,11,Pin_11*%
%TO.N,Row0*%
X113665000Y-49212500D03*
%TO.P,J1,12,Pin_12*%
%TO.N,Row1*%
X116205000Y-49212500D03*
%TO.P,J1,13,Pin_13*%
%TO.N,unconnected-(J1-Pin_13-Pad13)*%
X88265000Y-33972500D03*
D13*
%TO.P,J1,14,Pin_14*%
%TO.N,Net-(J1-Pin_14)*%
X90805000Y-33972500D03*
D12*
%TO.P,J1,15,Pin_15*%
%TO.N,unconnected-(J1-Pin_15-Pad15)*%
X93345000Y-33972500D03*
%TO.P,J1,16,Pin_16*%
%TO.N,Net-(J1-Pin_16)*%
X95885000Y-33972500D03*
%TO.P,J1,17,Pin_17*%
%TO.N,Col3*%
X98425000Y-33972500D03*
%TO.P,J1,18,Pin_18*%
%TO.N,Col4*%
X100965000Y-33972500D03*
%TO.P,J1,19,Pin_19*%
%TO.N,Col5*%
X103505000Y-33972500D03*
%TO.P,J1,20,Pin_20*%
%TO.N,unconnected-(J1-Pin_20-Pad20)*%
X106045000Y-33972500D03*
%TO.P,J1,21,Pin_21*%
%TO.N,unconnected-(J1-Pin_21-Pad21)*%
X108585000Y-33972500D03*
%TO.P,J1,22,Pin_22*%
%TO.N,unconnected-(J1-Pin_22-Pad22)*%
X111125000Y-33972500D03*
%TO.P,J1,23,Pin_23*%
%TO.N,Row2*%
X113665000Y-33972500D03*
%TO.P,J1,24,Pin_24*%
%TO.N,Row3*%
X116205000Y-33972500D03*
%TD*%
D10*
%TO.P,MX1,1,1*%
%TO.N,Col0*%
X23871250Y-67816250D03*
%TO.P,MX1,2,2*%
%TO.N,Net-(D1-A)*%
X30221250Y-65276250D03*
%TD*%
%TO.P,MX15,1,1*%
%TO.N,Col2*%
X61971250Y-101947500D03*
%TO.P,MX15,2,2*%
%TO.N,Net-(D15-A)*%
X68321250Y-99407500D03*
%TD*%
%TO.P,MX25,1,1*%
%TO.N,Col0R*%
X158908750Y-63847500D03*
%TO.P,MX25,2,2*%
%TO.N,Net-(D25-A)*%
X165258750Y-61307500D03*
%TD*%
%TO.P,MX37,1,1*%
%TO.N,Col0R*%
X158908750Y-101947500D03*
%TO.P,MX37,2,2*%
%TO.N,Net-(D37-A)*%
X165258750Y-99407500D03*
%TD*%
D12*
%TO.P,J4,1,Pin_1*%
%TO.N,unconnected-(J4-Pin_1-Pad1)*%
X197485000Y-34131250D03*
%TO.P,J4,2,Pin_2*%
%TO.N,Net-(J4-Pin_2)*%
X194945000Y-34131250D03*
D14*
%TO.P,J4,3,Pin_3*%
%TO.N,unconnected-(J4-Pin_3-Pad3)*%
X192405000Y-34131250D03*
%TO.P,J4,4,Pin_4*%
%TO.N,unconnected-(J4-Pin_4-Pad4)*%
X189865000Y-34131250D03*
D12*
%TO.P,J4,5,Pin_5*%
%TO.N,Col0R*%
X187325000Y-34131250D03*
%TO.P,J4,6,Pin_6*%
%TO.N,Col1R*%
X184785000Y-34131250D03*
%TO.P,J4,7,Pin_7*%
%TO.N,Col2R*%
X182245000Y-34131250D03*
%TO.P,J4,8,Pin_8*%
%TO.N,unconnected-(J4-Pin_8-Pad8)*%
X179705000Y-34131250D03*
%TO.P,J4,9,Pin_9*%
%TO.N,unconnected-(J4-Pin_9-Pad9)*%
X177165000Y-34131250D03*
%TO.P,J4,10,Pin_10*%
%TO.N,unconnected-(J4-Pin_10-Pad10)*%
X174625000Y-34131250D03*
%TO.P,J4,11,Pin_11*%
%TO.N,Row0R*%
X172085000Y-34131250D03*
%TO.P,J4,12,Pin_12*%
%TO.N,Row1R*%
X169545000Y-34131250D03*
%TO.P,J4,13,Pin_13*%
%TO.N,unconnected-(J4-Pin_13-Pad13)*%
X197485000Y-49371250D03*
D14*
%TO.P,J4,14,Pin_14*%
%TO.N,Net-(J4-Pin_14)*%
X194945000Y-49371250D03*
D12*
%TO.P,J4,15,Pin_15*%
%TO.N,unconnected-(J4-Pin_15-Pad15)*%
X192405000Y-49371250D03*
%TO.P,J4,16,Pin_16*%
%TO.N,Net-(J4-Pin_16)*%
X189865000Y-49371250D03*
%TO.P,J4,17,Pin_17*%
%TO.N,Col3R*%
X187325000Y-49371250D03*
%TO.P,J4,18,Pin_18*%
%TO.N,Col4R*%
X184785000Y-49371250D03*
%TO.P,J4,19,Pin_19*%
%TO.N,Col5R*%
X182245000Y-49371250D03*
%TO.P,J4,20,Pin_20*%
%TO.N,unconnected-(J4-Pin_20-Pad20)*%
X179705000Y-49371250D03*
%TO.P,J4,21,Pin_21*%
%TO.N,unconnected-(J4-Pin_21-Pad21)*%
X177165000Y-49371250D03*
%TO.P,J4,22,Pin_22*%
%TO.N,unconnected-(J4-Pin_22-Pad22)*%
X174625000Y-49371250D03*
%TO.P,J4,23,Pin_23*%
%TO.N,Row2R*%
X172085000Y-49371250D03*
%TO.P,J4,24,Pin_24*%
%TO.N,Row3R*%
X169545000Y-49371250D03*
%TD*%
D10*
%TO.P,MX45,1,1*%
%TO.N,Col2R*%
X197008750Y-117028750D03*
%TO.P,MX45,2,2*%
%TO.N,Net-(D45-A)*%
X203358750Y-114488750D03*
%TD*%
%TO.P,MX3,1,1*%
%TO.N,Col2*%
X61971250Y-63847500D03*
%TO.P,MX3,2,2*%
%TO.N,Net-(D3-A)*%
X68321250Y-61307500D03*
%TD*%
%TO.P,MX46,1,1*%
%TO.N,Col3R*%
X216040000Y-121003750D03*
%TO.P,MX46,2,2*%
%TO.N,Net-(D46-A)*%
X222390000Y-118463750D03*
%TD*%
%TO.P,MX41,1,1*%
%TO.N,Col4R*%
X235108750Y-105916250D03*
%TO.P,MX41,2,2*%
%TO.N,Net-(D41-A)*%
X241458750Y-103376250D03*
%TD*%
%TO.P,MX20,1,1*%
%TO.N,Col1*%
X42921250Y-124966250D03*
%TO.P,MX20,2,2*%
%TO.N,Net-(D20-A)*%
X49271250Y-122426250D03*
%TD*%
%TO.P,MX22,1,1*%
%TO.N,Col3*%
X81021250Y-116966250D03*
%TO.P,MX22,2,2*%
%TO.N,Net-(D22-A)*%
X87371250Y-114426250D03*
%TD*%
%TO.P,MX33,1,1*%
%TO.N,Col2R*%
X197008750Y-78928750D03*
%TO.P,MX33,2,2*%
%TO.N,Net-(D33-A)*%
X203358750Y-76388750D03*
%TD*%
%TO.P,MX17,1,1*%
%TO.N,Col4*%
X100071250Y-101947500D03*
%TO.P,MX17,2,2*%
%TO.N,Net-(D17-A)*%
X106421250Y-99407500D03*
%TD*%
%TO.P,MX5,1,1*%
%TO.N,Col4*%
X100071250Y-63847500D03*
%TO.P,MX5,2,2*%
%TO.N,Net-(D5-A)*%
X106421250Y-61307500D03*
%TD*%
%TO.P,MX9,1,1*%
%TO.N,Col2*%
X61971250Y-82897500D03*
%TO.P,MX9,2,2*%
%TO.N,Net-(D9-A)*%
X68321250Y-80357500D03*
%TD*%
%TO.P,MX34,1,1*%
%TO.N,Col3R*%
X216058750Y-82897500D03*
%TO.P,MX34,2,2*%
%TO.N,Net-(D34-A)*%
X222408750Y-80357500D03*
%TD*%
%TO.P,MX32,1,1*%
%TO.N,Col1R*%
X177958750Y-82897500D03*
%TO.P,MX32,2,2*%
%TO.N,Net-(D32-A)*%
X184308750Y-80357500D03*
%TD*%
%TO.P,MX48,1,1*%
%TO.N,Col5R*%
X254158750Y-124966250D03*
%TO.P,MX48,2,2*%
%TO.N,Net-(D48-A)*%
X260508750Y-122426250D03*
%TD*%
%TO.P,MX40,1,1*%
%TO.N,Col3R*%
X216058750Y-101947500D03*
%TO.P,MX40,2,2*%
%TO.N,Net-(D40-A)*%
X222408750Y-99407500D03*
%TD*%
%TO.P,MX11,1,1*%
%TO.N,Col4*%
X100071250Y-82897500D03*
%TO.P,MX11,2,2*%
%TO.N,Net-(D11-A)*%
X106421250Y-80357500D03*
%TD*%
%TO.P,MX23,1,1*%
%TO.N,Col4*%
X100071250Y-120997500D03*
%TO.P,MX23,2,2*%
%TO.N,Net-(D23-A)*%
X106421250Y-118457500D03*
%TD*%
%TO.P,MX14,1,1*%
%TO.N,Col1*%
X42921250Y-105916250D03*
%TO.P,MX14,2,2*%
%TO.N,Net-(D14-A)*%
X49271250Y-103376250D03*
%TD*%
%TO.P,MX19,1,1*%
%TO.N,Col0*%
X23772500Y-124966250D03*
%TO.P,MX19,2,2*%
%TO.N,Net-(D19-A)*%
X30122500Y-122426250D03*
%TD*%
%TO.P,MX12,1,1*%
%TO.N,Col5*%
X119121250Y-82897500D03*
%TO.P,MX12,2,2*%
%TO.N,Net-(D12-A)*%
X125471250Y-80357500D03*
%TD*%
%TO.P,MX30,1,1*%
%TO.N,Col5R*%
X254158750Y-67816250D03*
%TO.P,MX30,2,2*%
%TO.N,Net-(D30-A)*%
X260508750Y-65276250D03*
%TD*%
%TO.P,MX10,1,1*%
%TO.N,Col3*%
X81021250Y-78866250D03*
%TO.P,MX10,2,2*%
%TO.N,Net-(D10-A)*%
X87371250Y-76326250D03*
%TD*%
%TO.P,MX2,1,1*%
%TO.N,Col1*%
X42921250Y-67816250D03*
%TO.P,MX2,2,2*%
%TO.N,Net-(D2-A)*%
X49271250Y-65276250D03*
%TD*%
%TO.P,MX42,1,1*%
%TO.N,Col5R*%
X254158750Y-105916250D03*
%TO.P,MX42,2,2*%
%TO.N,Net-(D42-A)*%
X260508750Y-103376250D03*
%TD*%
%TO.P,MX16,1,1*%
%TO.N,Col3*%
X81021250Y-97916250D03*
%TO.P,MX16,2,2*%
%TO.N,Net-(D16-A)*%
X87371250Y-95376250D03*
%TD*%
%TO.P,MX29,1,1*%
%TO.N,Col4R*%
X235108750Y-67816250D03*
%TO.P,MX29,2,2*%
%TO.N,Net-(D29-A)*%
X241458750Y-65276250D03*
%TD*%
%TO.P,MX28,1,1*%
%TO.N,Col3R*%
X216058750Y-63847500D03*
%TO.P,MX28,2,2*%
%TO.N,Net-(D28-A)*%
X222408750Y-61307500D03*
%TD*%
%TO.P,MX36,1,1*%
%TO.N,Col5R*%
X254158750Y-86866250D03*
%TO.P,MX36,2,2*%
%TO.N,Net-(D36-A)*%
X260508750Y-84326250D03*
%TD*%
%TO.P,MX13,1,1*%
%TO.N,Col0*%
X23871250Y-105916250D03*
%TO.P,MX13,2,2*%
%TO.N,Net-(D13-A)*%
X30221250Y-103376250D03*
%TD*%
%TO.P,MX4,1,1*%
%TO.N,Col3*%
X81021250Y-59816250D03*
%TO.P,MX4,2,2*%
%TO.N,Net-(D4-A)*%
X87371250Y-57276250D03*
%TD*%
%TO.P,MX38,1,1*%
%TO.N,Col1R*%
X177958750Y-101947500D03*
%TO.P,MX38,2,2*%
%TO.N,Net-(D38-A)*%
X184308750Y-99407500D03*
%TD*%
%TO.P,MX35,1,1*%
%TO.N,Col4R*%
X235108750Y-86866250D03*
%TO.P,MX35,2,2*%
%TO.N,Net-(D35-A)*%
X241458750Y-84326250D03*
%TD*%
%TO.P,MX6,1,1*%
%TO.N,Col5*%
X119121250Y-63847500D03*
%TO.P,MX6,2,2*%
%TO.N,Net-(D6-A)*%
X125471250Y-61307500D03*
%TD*%
D15*
%TO.N,Row2R*%
X155575000Y-107950000D03*
%TO.N,Col5R*%
X182562500Y-41275000D03*
X187325000Y-41275000D03*
%TO.N,Col2R*%
X188912500Y-56356250D03*
X185737500Y-42862500D03*
X162718750Y-54768750D03*
X171450000Y-42862500D03*
%TD*%
D16*
%TO.N,Col1R*%
X180975000Y-60831250D02*
X177958750Y-63847500D01*
X180975000Y-32543750D02*
X180975000Y-60831250D01*
X183197500Y-32543750D02*
X180975000Y-32543750D01*
X184785000Y-34131250D02*
X183197500Y-32543750D01*
%TO.N,Col0R*%
X163225000Y-59531250D02*
X158908750Y-63847500D01*
X166162057Y-59531250D02*
X163225000Y-59531250D01*
X175825000Y-49868307D02*
X166162057Y-59531250D01*
X178505000Y-31838750D02*
X178505000Y-45948750D01*
X178593750Y-31750000D02*
X178505000Y-31838750D01*
X178505000Y-45948750D02*
X175825000Y-48628750D01*
X175825000Y-48628750D02*
X175825000Y-49868307D01*
X187325000Y-31750000D02*
X178593750Y-31750000D01*
X187325000Y-34131250D02*
X187325000Y-31750000D01*
%TO.N,Net-(J1-Pin_2)*%
X88900000Y-38893750D02*
X90805000Y-40798750D01*
X88900000Y-38100000D02*
X88900000Y-38893750D01*
X86518750Y-35718750D02*
X88900000Y-38100000D01*
X90805000Y-40798750D02*
X90805000Y-49212500D01*
X88106250Y-31750000D02*
X86518750Y-33337500D01*
X126206250Y-38893750D02*
X119062500Y-31750000D01*
X129893750Y-51056250D02*
X126206250Y-47368750D01*
X129893750Y-52456250D02*
X129893750Y-51056250D01*
X119062500Y-31750000D02*
X88106250Y-31750000D01*
X86518750Y-33337500D02*
X86518750Y-35718750D01*
X126206250Y-47368750D02*
X126206250Y-38893750D01*
%TO.N,Net-(J1-Pin_16)*%
X97313750Y-32543750D02*
X95885000Y-33972500D01*
X116681250Y-32543750D02*
X97313750Y-32543750D01*
X123825000Y-48418750D02*
X123825000Y-41275000D01*
X119856250Y-41275000D02*
X117475000Y-38893750D01*
X117475000Y-38893750D02*
X117475000Y-33337500D01*
X117475000Y-33337500D02*
X116681250Y-32543750D01*
X125693750Y-50287500D02*
X123825000Y-48418750D01*
X125693750Y-53956250D02*
X125693750Y-50287500D01*
X123825000Y-41275000D02*
X119856250Y-41275000D01*
%TO.N,Row2R*%
X154781250Y-61912500D02*
X155575000Y-62706250D01*
X171334390Y-49371250D02*
X158793140Y-61912500D01*
X155575000Y-62706250D02*
X155575000Y-107950000D01*
X158793140Y-61912500D02*
X154781250Y-61912500D01*
X172085000Y-49371250D02*
X171334390Y-49371250D01*
%TO.N,Col0*%
X55562500Y-57150000D02*
X52387500Y-57150000D01*
X52387500Y-57150000D02*
X51593750Y-57943750D01*
X23871250Y-67816250D02*
X23871250Y-68321250D01*
X24606250Y-69056250D02*
X24606250Y-86131250D01*
X24606250Y-106651250D02*
X24606250Y-124132500D01*
X80962500Y-50800000D02*
X77787500Y-53975000D01*
X23871250Y-63558750D02*
X23871250Y-67816250D01*
X58737500Y-53975000D02*
X55562500Y-57150000D01*
X77787500Y-53975000D02*
X58737500Y-53975000D01*
X23871250Y-86866250D02*
X23871250Y-87371250D01*
X96837500Y-50800000D02*
X80962500Y-50800000D01*
X24606250Y-105181250D02*
X23871250Y-105916250D01*
X51593750Y-57943750D02*
X29368750Y-57943750D01*
X24606250Y-86131250D02*
X23871250Y-86866250D01*
X23871250Y-68321250D02*
X24606250Y-69056250D01*
X29368750Y-57943750D02*
X23812500Y-63500000D01*
X24606250Y-88106250D02*
X24606250Y-105181250D01*
X24606250Y-124132500D02*
X23772500Y-124966250D01*
X23871250Y-105916250D02*
X24606250Y-106651250D01*
X23812500Y-63500000D02*
X23871250Y-63558750D01*
X98425000Y-49212500D02*
X96837500Y-50800000D01*
X23871250Y-87371250D02*
X24606250Y-88106250D01*
%TO.N,Col3*%
X81021250Y-78866250D02*
X81530000Y-79375000D01*
X118268750Y-50006250D02*
X112712500Y-55562500D01*
X81530000Y-79375000D02*
X81756250Y-79375000D01*
X81756250Y-116231250D02*
X81021250Y-116966250D01*
X100012500Y-46037500D02*
X117475000Y-46037500D01*
X81247500Y-59816250D02*
X81756250Y-60325000D01*
X117475000Y-46037500D02*
X118268750Y-46831250D01*
X92075000Y-55562500D02*
X87821250Y-59816250D01*
X81021250Y-59816250D02*
X81247500Y-59816250D01*
X98425000Y-33972500D02*
X98425000Y-44450000D01*
X118268750Y-46831250D02*
X118268750Y-50006250D01*
X112712500Y-55562500D02*
X92075000Y-55562500D01*
X81021250Y-97916250D02*
X81530000Y-98425000D01*
X81756250Y-60325000D02*
X81756250Y-78131250D01*
X81756250Y-97181250D02*
X81021250Y-97916250D01*
X81530000Y-98425000D02*
X81756250Y-98425000D01*
X81756250Y-98425000D02*
X81756250Y-116231250D01*
X98425000Y-44450000D02*
X100012500Y-46037500D01*
X87821250Y-59816250D02*
X81021250Y-59816250D01*
X81756250Y-78131250D02*
X81021250Y-78866250D01*
X81756250Y-79375000D02*
X81756250Y-97181250D01*
%TO.N,Col1*%
X82550000Y-52387500D02*
X79375000Y-55562500D01*
X60325000Y-59531250D02*
X52040000Y-67816250D01*
X97790000Y-52387500D02*
X82550000Y-52387500D01*
X43656250Y-68551250D02*
X43656250Y-86131250D01*
X42921250Y-106421250D02*
X43656250Y-107156250D01*
X43656250Y-105181250D02*
X42921250Y-105916250D01*
X79375000Y-55562500D02*
X67468750Y-55562500D01*
X100965000Y-49212500D02*
X97790000Y-52387500D01*
X42921250Y-86866250D02*
X43656250Y-87601250D01*
X42921250Y-105916250D02*
X42921250Y-106421250D01*
X43656250Y-87601250D02*
X43656250Y-105181250D01*
X43656250Y-107156250D02*
X43656250Y-124231250D01*
X43656250Y-86131250D02*
X42921250Y-86866250D01*
X43656250Y-124231250D02*
X42921250Y-124966250D01*
X52040000Y-67816250D02*
X42921250Y-67816250D01*
X67468750Y-55562500D02*
X63500000Y-59531250D01*
X63500000Y-59531250D02*
X60325000Y-59531250D01*
X42921250Y-67816250D02*
X43656250Y-68551250D01*
%TO.N,Col5*%
X119410000Y-63847500D02*
X119856250Y-64293750D01*
X119856250Y-101212500D02*
X119121250Y-101947500D01*
X103505000Y-42386250D02*
X103981250Y-42862500D01*
X119856250Y-82162500D02*
X119121250Y-82897500D01*
X119121250Y-101947500D02*
X119856250Y-102682500D01*
X103505000Y-33972500D02*
X103505000Y-42386250D01*
X119856250Y-120262500D02*
X119121250Y-120997500D01*
X119121250Y-82897500D02*
X119410000Y-82897500D01*
X119121250Y-63847500D02*
X119410000Y-63847500D01*
X121443750Y-42862500D02*
X121443750Y-61525000D01*
X119410000Y-82897500D02*
X119856250Y-83343750D01*
X119856250Y-83343750D02*
X119856250Y-101212500D01*
X119856250Y-102682500D02*
X119856250Y-120262500D01*
X103981250Y-42862500D02*
X121443750Y-42862500D01*
X119856250Y-64293750D02*
X119856250Y-82162500D01*
%TO.N,Col4*%
X119062500Y-44450000D02*
X101600000Y-44450000D01*
X119521250Y-44908750D02*
X119062500Y-44450000D01*
X119521250Y-51928750D02*
X119521250Y-44908750D01*
X100360000Y-82897500D02*
X100806250Y-83343750D01*
X100360000Y-101947500D02*
X100806250Y-102393750D01*
X100071250Y-101947500D02*
X100360000Y-101947500D01*
X113506250Y-57943750D02*
X119521250Y-51928750D01*
X100965000Y-43815000D02*
X100965000Y-33972500D01*
X100806250Y-120262500D02*
X100071250Y-120997500D01*
X100806250Y-102393750D02*
X100806250Y-120262500D01*
X100360000Y-63847500D02*
X100806250Y-64293750D01*
X105975000Y-57943750D02*
X113506250Y-57943750D01*
X100071250Y-82897500D02*
X100360000Y-82897500D01*
X101600000Y-44450000D02*
X100965000Y-43815000D01*
X100806250Y-101212500D02*
X100071250Y-101947500D01*
X100071250Y-63847500D02*
X105975000Y-57943750D01*
X100071250Y-63847500D02*
X100360000Y-63847500D01*
X100806250Y-83343750D02*
X100806250Y-101212500D01*
X100806250Y-82162500D02*
X100071250Y-82897500D01*
X100806250Y-64293750D02*
X100806250Y-82162500D01*
%TO.N,Col2*%
X78581250Y-57943750D02*
X72677500Y-63847500D01*
X62260000Y-63847500D02*
X62706250Y-64293750D01*
X61971250Y-82897500D02*
X62417500Y-83343750D01*
X61971250Y-63847500D02*
X62260000Y-63847500D01*
X62706250Y-64293750D02*
X62706250Y-82162500D01*
X98742500Y-53975000D02*
X86518750Y-53975000D01*
X62706250Y-82162500D02*
X61971250Y-82897500D01*
X62706250Y-83343750D02*
X62706250Y-101212500D01*
X82550000Y-57943750D02*
X78581250Y-57943750D01*
X61971250Y-101947500D02*
X62260000Y-101947500D01*
X86518750Y-53975000D02*
X82550000Y-57943750D01*
X62706250Y-120262500D02*
X61971250Y-120997500D01*
X72677500Y-63847500D02*
X61971250Y-63847500D01*
X103505000Y-49212500D02*
X98742500Y-53975000D01*
X62260000Y-101947500D02*
X62706250Y-102393750D01*
X62706250Y-102393750D02*
X62706250Y-120262500D01*
X62706250Y-101212500D02*
X61971250Y-101947500D01*
X62417500Y-83343750D02*
X62706250Y-83343750D01*
%TO.N,Col3R*%
X216058750Y-101947500D02*
X216693750Y-102582500D01*
X216693750Y-64293750D02*
X216693750Y-82262500D01*
X216693750Y-102582500D02*
X216693750Y-120350000D01*
X216058750Y-82897500D02*
X216505000Y-83343750D01*
X216505000Y-83343750D02*
X216693750Y-83343750D01*
X216058750Y-63847500D02*
X216247500Y-63847500D01*
X216693750Y-101312500D02*
X216058750Y-101947500D01*
X199231250Y-56356250D02*
X203200000Y-60325000D01*
X216693750Y-82262500D02*
X216058750Y-82897500D01*
X216247500Y-63847500D02*
X216693750Y-64293750D01*
X187325000Y-49371250D02*
X187325000Y-50800000D01*
X203200000Y-60325000D02*
X212536250Y-60325000D01*
X192881250Y-56356250D02*
X199231250Y-56356250D01*
X216693750Y-120350000D02*
X216040000Y-121003750D01*
X216693750Y-83343750D02*
X216693750Y-101312500D01*
X212536250Y-60325000D02*
X216058750Y-63847500D01*
X187325000Y-50800000D02*
X192881250Y-56356250D01*
%TO.N,Col5R*%
X254158750Y-105916250D02*
X254158750Y-106521250D01*
X254793750Y-103187500D02*
X254158750Y-103822500D01*
X251618750Y-60325000D02*
X226218750Y-60325000D01*
X254793750Y-69056250D02*
X254793750Y-86231250D01*
X226218750Y-60325000D02*
X221456250Y-55562500D01*
X211931250Y-54768750D02*
X208756250Y-51593750D01*
X254158750Y-67816250D02*
X251618750Y-65276250D01*
X220662500Y-55562500D02*
X219868750Y-54768750D01*
X254158750Y-122872500D02*
X254158750Y-124966250D01*
X254793750Y-86231250D02*
X254158750Y-86866250D01*
X182245000Y-42386250D02*
X182245000Y-49371250D01*
X182562500Y-41275000D02*
X182562500Y-42068750D01*
X254158750Y-68421250D02*
X254793750Y-69056250D01*
X254158750Y-106521250D02*
X254793750Y-107156250D01*
X254158750Y-103822500D02*
X254158750Y-105916250D01*
X202406250Y-47625000D02*
X198437500Y-43656250D01*
X208756250Y-51593750D02*
X202406250Y-51593750D01*
X254158750Y-67816250D02*
X254158750Y-68421250D01*
X221456250Y-55562500D02*
X220662500Y-55562500D01*
X251618750Y-65276250D02*
X251618750Y-60325000D01*
X197643750Y-43656250D02*
X195262500Y-41275000D01*
X254347500Y-86866250D02*
X254793750Y-87312500D01*
X254793750Y-107156250D02*
X254793750Y-122237500D01*
X254793750Y-87312500D02*
X254793750Y-103187500D01*
X202406250Y-51593750D02*
X202406250Y-47625000D01*
X254158750Y-86866250D02*
X254347500Y-86866250D01*
X198437500Y-43656250D02*
X197643750Y-43656250D01*
X182562500Y-42068750D02*
X182245000Y-42386250D01*
X219868750Y-54768750D02*
X211931250Y-54768750D01*
X254793750Y-122237500D02*
X254158750Y-122872500D01*
X195262500Y-41275000D02*
X187325000Y-41275000D01*
%TO.N,Col4R*%
X215900000Y-58737500D02*
X222325000Y-65162500D01*
X235108750Y-103822500D02*
X235108750Y-105916250D01*
X235743750Y-124331250D02*
X235108750Y-124966250D01*
X235743750Y-107156250D02*
X235743750Y-124331250D01*
X211137500Y-58737500D02*
X215900000Y-58737500D01*
X198437500Y-46831250D02*
X199231250Y-47625000D01*
X200025000Y-49212500D02*
X200025000Y-54768750D01*
X222325000Y-65162500D02*
X232455000Y-65162500D01*
X235108750Y-105916250D02*
X235108750Y-106521250D01*
X207168750Y-54768750D02*
X211137500Y-58737500D01*
X235108750Y-106521250D02*
X235743750Y-107156250D01*
X235743750Y-86231250D02*
X235108750Y-86866250D01*
X235743750Y-68451250D02*
X235743750Y-86231250D01*
X184943750Y-46831250D02*
X198437500Y-46831250D01*
X235743750Y-87501250D02*
X235743750Y-103187500D01*
X199231250Y-48418750D02*
X200025000Y-49212500D01*
X184785000Y-49371250D02*
X184785000Y-46990000D01*
X232455000Y-65162500D02*
X235108750Y-67816250D01*
X235743750Y-103187500D02*
X235108750Y-103822500D01*
X235108750Y-86866250D02*
X235743750Y-87501250D01*
X235108750Y-67816250D02*
X235743750Y-68451250D01*
X184785000Y-46990000D02*
X184943750Y-46831250D01*
X200025000Y-54768750D02*
X207168750Y-54768750D01*
X199231250Y-47625000D02*
X199231250Y-48418750D01*
%TO.N,Col0R*%
X159543750Y-102393750D02*
X159543750Y-120362500D01*
X159543750Y-83343750D02*
X159543750Y-101312500D01*
X158908750Y-82897500D02*
X159097500Y-82897500D01*
X159097500Y-82897500D02*
X159543750Y-83343750D01*
X159097500Y-101947500D02*
X159543750Y-102393750D01*
X158908750Y-63847500D02*
X159097500Y-63847500D01*
X159543750Y-82262500D02*
X158908750Y-82897500D01*
X159543750Y-64293750D02*
X159543750Y-82262500D01*
X158908750Y-101947500D02*
X159097500Y-101947500D01*
X159543750Y-101312500D02*
X158908750Y-101947500D01*
X159543750Y-120362500D02*
X158908750Y-120997500D01*
X159097500Y-63847500D02*
X159543750Y-64293750D01*
%TO.N,Col2R*%
X197643750Y-97343750D02*
X197008750Y-97978750D01*
X164306250Y-46831250D02*
X164306250Y-47625000D01*
X162718750Y-49212500D02*
X162718750Y-54768750D01*
X197197500Y-97978750D02*
X197643750Y-98425000D01*
X197643750Y-98425000D02*
X197643750Y-116393750D01*
X197008750Y-78928750D02*
X197197500Y-78928750D01*
X168275000Y-42862500D02*
X164306250Y-46831250D01*
X197643750Y-79375000D02*
X197643750Y-97343750D01*
X164306250Y-47625000D02*
X162718750Y-49212500D01*
X192435000Y-59878750D02*
X197008750Y-59878750D01*
X171450000Y-42862500D02*
X168275000Y-42862500D01*
X188912500Y-56356250D02*
X192435000Y-59878750D01*
X182245000Y-34131250D02*
X185737500Y-37623750D01*
X185737500Y-37623750D02*
X185737500Y-42862500D01*
X197008750Y-59878750D02*
X197197500Y-59878750D01*
X197643750Y-116393750D02*
X197008750Y-117028750D01*
X197197500Y-78928750D02*
X197643750Y-79375000D01*
X197643750Y-78293750D02*
X197008750Y-78928750D01*
X197008750Y-97978750D02*
X197197500Y-97978750D01*
X197197500Y-59878750D02*
X197643750Y-60325000D01*
X197643750Y-60325000D02*
X197643750Y-78293750D01*
%TO.N,Col1R*%
X178593750Y-64293750D02*
X178593750Y-82262500D01*
X178593750Y-83343750D02*
X178593750Y-101312500D01*
X177958750Y-101947500D02*
X178593750Y-102582500D01*
X178593750Y-102582500D02*
X178593750Y-120362500D01*
X177958750Y-63847500D02*
X178147500Y-63847500D01*
X178147500Y-82897500D02*
X178593750Y-83343750D01*
X178593750Y-82262500D02*
X177958750Y-82897500D01*
X177958750Y-82897500D02*
X178147500Y-82897500D01*
X178593750Y-120362500D02*
X177958750Y-120997500D01*
X178147500Y-63847500D02*
X178593750Y-64293750D01*
X178593750Y-101312500D02*
X177958750Y-101947500D01*
%TO.N,Col5*%
X121443750Y-61525000D02*
X119121250Y-63847500D01*
%TD*%
M02*
