%TF.GenerationSoftware,KiCad,Pcbnew,8.0.2*%
%TF.CreationDate,2024-05-01T20:17:26+07:00*%
%TF.ProjectId,apiratchai_split,61706972-6174-4636-9861-695f73706c69,rev?*%
%TF.SameCoordinates,Original*%
%TF.FileFunction,Copper,L2,Bot*%
%TF.FilePolarity,Positive*%
%FSLAX46Y46*%
G04 Gerber Fmt 4.6, Leading zero omitted, Abs format (unit mm)*
G04 Created by KiCad (PCBNEW 8.0.2) date 2024-05-01 20:17:26*
%MOMM*%
%LPD*%
G01*
G04 APERTURE LIST*
G04 Aperture macros list*
%AMRoundRect*
0 Rectangle with rounded corners*
0 $1 Rounding radius*
0 $2 $3 $4 $5 $6 $7 $8 $9 X,Y pos of 4 corners*
0 Add a 4 corners polygon primitive as box body*
4,1,4,$2,$3,$4,$5,$6,$7,$8,$9,$2,$3,0*
0 Add four circle primitives for the rounded corners*
1,1,$1+$1,$2,$3*
1,1,$1+$1,$4,$5*
1,1,$1+$1,$6,$7*
1,1,$1+$1,$8,$9*
0 Add four rect primitives between the rounded corners*
20,1,$1+$1,$2,$3,$4,$5,0*
20,1,$1+$1,$4,$5,$6,$7,0*
20,1,$1+$1,$6,$7,$8,$9,0*
20,1,$1+$1,$8,$9,$2,$3,0*%
G04 Aperture macros list end*
%TA.AperFunction,ComponentPad*%
%ADD10C,2.300000*%
%TD*%
%TA.AperFunction,ComponentPad*%
%ADD11O,1.700000X2.400000*%
%TD*%
%TA.AperFunction,ComponentPad*%
%ADD12C,1.800000*%
%TD*%
%TA.AperFunction,ComponentPad*%
%ADD13RoundRect,0.450000X0.450000X-0.450000X0.450000X0.450000X-0.450000X0.450000X-0.450000X-0.450000X0*%
%TD*%
%TA.AperFunction,ComponentPad*%
%ADD14RoundRect,0.450000X-0.450000X0.450000X-0.450000X-0.450000X0.450000X-0.450000X0.450000X0.450000X0*%
%TD*%
%TA.AperFunction,SMDPad,CuDef*%
%ADD15RoundRect,0.225000X0.375000X-0.225000X0.375000X0.225000X-0.375000X0.225000X-0.375000X-0.225000X0*%
%TD*%
%TA.AperFunction,ViaPad*%
%ADD16C,0.600000*%
%TD*%
%TA.AperFunction,Conductor*%
%ADD17C,0.200000*%
%TD*%
G04 APERTURE END LIST*
D10*
%TO.P,MX43,1,1*%
%TO.N,Col0R*%
X158908750Y-120997500D03*
%TO.P,MX43,2,2*%
%TO.N,Net-(D43-A)*%
X165258750Y-118457500D03*
%TD*%
%TO.P,MX26,1,1*%
%TO.N,Col1R*%
X177958750Y-63847500D03*
%TO.P,MX26,2,2*%
%TO.N,Net-(D26-A)*%
X184308750Y-61307500D03*
%TD*%
%TO.P,MX7,1,1*%
%TO.N,Col0*%
X23871250Y-86866250D03*
%TO.P,MX7,2,2*%
%TO.N,Net-(D7-A)*%
X30221250Y-84326250D03*
%TD*%
D11*
%TO.P,J3,R1*%
%TO.N,Net-(J4-Pin_2)*%
X160056250Y-52456250D03*
%TO.P,J3,R2*%
%TO.N,unconnected-(J3-PadR2)*%
X160056250Y-48456250D03*
%TO.P,J3,S*%
%TO.N,Net-(J4-Pin_14)*%
X160056250Y-45456250D03*
%TO.P,J3,T*%
%TO.N,Net-(J4-Pin_16)*%
X155856250Y-53956250D03*
%TD*%
D10*
%TO.P,MX31,1,1*%
%TO.N,Col0R*%
X158908750Y-82897500D03*
%TO.P,MX31,2,2*%
%TO.N,Net-(D31-A)*%
X165258750Y-80357500D03*
%TD*%
%TO.P,MX21,1,1*%
%TO.N,Col2*%
X61971250Y-120997500D03*
%TO.P,MX21,2,2*%
%TO.N,Net-(D21-A)*%
X68321250Y-118457500D03*
%TD*%
%TO.P,MX18,1,1*%
%TO.N,Col5*%
X119121250Y-101947500D03*
%TO.P,MX18,2,2*%
%TO.N,Net-(D18-A)*%
X125471250Y-99407500D03*
%TD*%
%TO.P,MX24,1,1*%
%TO.N,Col5*%
X119121250Y-120997500D03*
%TO.P,MX24,2,2*%
%TO.N,Net-(D24-A)*%
X125471250Y-118457500D03*
%TD*%
D11*
%TO.P,J2,R1*%
%TO.N,Net-(J1-Pin_2)*%
X129893750Y-52456250D03*
%TO.P,J2,R2*%
%TO.N,unconnected-(J2-PadR2)*%
X129893750Y-48456250D03*
%TO.P,J2,S*%
%TO.N,Net-(J1-Pin_14)*%
X129893750Y-45456250D03*
%TO.P,J2,T*%
%TO.N,Net-(J1-Pin_16)*%
X125693750Y-53956250D03*
%TD*%
D10*
%TO.P,MX47,1,1*%
%TO.N,Col4R*%
X235108750Y-124966250D03*
%TO.P,MX47,2,2*%
%TO.N,Net-(D47-A)*%
X241458750Y-122426250D03*
%TD*%
%TO.P,MX27,1,1*%
%TO.N,Col2R*%
X197008750Y-59878750D03*
%TO.P,MX27,2,2*%
%TO.N,Net-(D27-A)*%
X203358750Y-57338750D03*
%TD*%
%TO.P,MX44,1,1*%
%TO.N,Col1R*%
X177958750Y-120997500D03*
%TO.P,MX44,2,2*%
%TO.N,Net-(D44-A)*%
X184308750Y-118457500D03*
%TD*%
%TO.P,MX8,1,1*%
%TO.N,Col1*%
X42921250Y-86866250D03*
%TO.P,MX8,2,2*%
%TO.N,Net-(D8-A)*%
X49271250Y-84326250D03*
%TD*%
%TO.P,MX39,1,1*%
%TO.N,Col2R*%
X197008750Y-97978750D03*
%TO.P,MX39,2,2*%
%TO.N,Net-(D39-A)*%
X203358750Y-95438750D03*
%TD*%
D12*
%TO.P,J1,1,Pin_1*%
%TO.N,unconnected-(J1-Pin_1-Pad1)*%
X88265000Y-49212500D03*
%TO.P,J1,2,Pin_2*%
%TO.N,Net-(J1-Pin_2)*%
X90805000Y-49212500D03*
D13*
%TO.P,J1,3,Pin_3*%
%TO.N,unconnected-(J1-Pin_3-Pad3)*%
X93345000Y-49212500D03*
%TO.P,J1,4,Pin_4*%
%TO.N,unconnected-(J1-Pin_4-Pad4)*%
X95885000Y-49212500D03*
D12*
%TO.P,J1,5,Pin_5*%
%TO.N,Col0*%
X98425000Y-49212500D03*
%TO.P,J1,6,Pin_6*%
%TO.N,Col1*%
X100965000Y-49212500D03*
%TO.P,J1,7,Pin_7*%
%TO.N,Col2*%
X103505000Y-49212500D03*
%TO.P,J1,8,Pin_8*%
%TO.N,unconnected-(J1-Pin_8-Pad8)*%
X106045000Y-49212500D03*
%TO.P,J1,9,Pin_9*%
%TO.N,unconnected-(J1-Pin_9-Pad9)*%
X108585000Y-49212500D03*
%TO.P,J1,10,Pin_10*%
%TO.N,unconnected-(J1-Pin_10-Pad10)*%
X111125000Y-49212500D03*
%TO.P,J1,11,Pin_11*%
%TO.N,Row0*%
X113665000Y-49212500D03*
%TO.P,J1,12,Pin_12*%
%TO.N,Row1*%
X116205000Y-49212500D03*
%TO.P,J1,13,Pin_13*%
%TO.N,unconnected-(J1-Pin_13-Pad13)*%
X88265000Y-33972500D03*
D13*
%TO.P,J1,14,Pin_14*%
%TO.N,Net-(J1-Pin_14)*%
X90805000Y-33972500D03*
D12*
%TO.P,J1,15,Pin_15*%
%TO.N,unconnected-(J1-Pin_15-Pad15)*%
X93345000Y-33972500D03*
%TO.P,J1,16,Pin_16*%
%TO.N,Net-(J1-Pin_16)*%
X95885000Y-33972500D03*
%TO.P,J1,17,Pin_17*%
%TO.N,Col3*%
X98425000Y-33972500D03*
%TO.P,J1,18,Pin_18*%
%TO.N,Col4*%
X100965000Y-33972500D03*
%TO.P,J1,19,Pin_19*%
%TO.N,Col5*%
X103505000Y-33972500D03*
%TO.P,J1,20,Pin_20*%
%TO.N,unconnected-(J1-Pin_20-Pad20)*%
X106045000Y-33972500D03*
%TO.P,J1,21,Pin_21*%
%TO.N,unconnected-(J1-Pin_21-Pad21)*%
X108585000Y-33972500D03*
%TO.P,J1,22,Pin_22*%
%TO.N,unconnected-(J1-Pin_22-Pad22)*%
X111125000Y-33972500D03*
%TO.P,J1,23,Pin_23*%
%TO.N,Row2*%
X113665000Y-33972500D03*
%TO.P,J1,24,Pin_24*%
%TO.N,Row3*%
X116205000Y-33972500D03*
%TD*%
D10*
%TO.P,MX1,1,1*%
%TO.N,Col0*%
X23871250Y-67816250D03*
%TO.P,MX1,2,2*%
%TO.N,Net-(D1-A)*%
X30221250Y-65276250D03*
%TD*%
%TO.P,MX15,1,1*%
%TO.N,Col2*%
X61971250Y-101947500D03*
%TO.P,MX15,2,2*%
%TO.N,Net-(D15-A)*%
X68321250Y-99407500D03*
%TD*%
%TO.P,MX25,1,1*%
%TO.N,Col0R*%
X158908750Y-63847500D03*
%TO.P,MX25,2,2*%
%TO.N,Net-(D25-A)*%
X165258750Y-61307500D03*
%TD*%
%TO.P,MX37,1,1*%
%TO.N,Col0R*%
X158908750Y-101947500D03*
%TO.P,MX37,2,2*%
%TO.N,Net-(D37-A)*%
X165258750Y-99407500D03*
%TD*%
D12*
%TO.P,J4,1,Pin_1*%
%TO.N,unconnected-(J4-Pin_1-Pad1)*%
X197485000Y-34131250D03*
%TO.P,J4,2,Pin_2*%
%TO.N,Net-(J4-Pin_2)*%
X194945000Y-34131250D03*
D14*
%TO.P,J4,3,Pin_3*%
%TO.N,unconnected-(J4-Pin_3-Pad3)*%
X192405000Y-34131250D03*
%TO.P,J4,4,Pin_4*%
%TO.N,unconnected-(J4-Pin_4-Pad4)*%
X189865000Y-34131250D03*
D12*
%TO.P,J4,5,Pin_5*%
%TO.N,Col0R*%
X187325000Y-34131250D03*
%TO.P,J4,6,Pin_6*%
%TO.N,Col1R*%
X184785000Y-34131250D03*
%TO.P,J4,7,Pin_7*%
%TO.N,Col2R*%
X182245000Y-34131250D03*
%TO.P,J4,8,Pin_8*%
%TO.N,unconnected-(J4-Pin_8-Pad8)*%
X179705000Y-34131250D03*
%TO.P,J4,9,Pin_9*%
%TO.N,unconnected-(J4-Pin_9-Pad9)*%
X177165000Y-34131250D03*
%TO.P,J4,10,Pin_10*%
%TO.N,unconnected-(J4-Pin_10-Pad10)*%
X174625000Y-34131250D03*
%TO.P,J4,11,Pin_11*%
%TO.N,Row0R*%
X172085000Y-34131250D03*
%TO.P,J4,12,Pin_12*%
%TO.N,Row1R*%
X169545000Y-34131250D03*
%TO.P,J4,13,Pin_13*%
%TO.N,unconnected-(J4-Pin_13-Pad13)*%
X197485000Y-49371250D03*
D14*
%TO.P,J4,14,Pin_14*%
%TO.N,Net-(J4-Pin_14)*%
X194945000Y-49371250D03*
D12*
%TO.P,J4,15,Pin_15*%
%TO.N,unconnected-(J4-Pin_15-Pad15)*%
X192405000Y-49371250D03*
%TO.P,J4,16,Pin_16*%
%TO.N,Net-(J4-Pin_16)*%
X189865000Y-49371250D03*
%TO.P,J4,17,Pin_17*%
%TO.N,Col3R*%
X187325000Y-49371250D03*
%TO.P,J4,18,Pin_18*%
%TO.N,Col4R*%
X184785000Y-49371250D03*
%TO.P,J4,19,Pin_19*%
%TO.N,Col5R*%
X182245000Y-49371250D03*
%TO.P,J4,20,Pin_20*%
%TO.N,unconnected-(J4-Pin_20-Pad20)*%
X179705000Y-49371250D03*
%TO.P,J4,21,Pin_21*%
%TO.N,unconnected-(J4-Pin_21-Pad21)*%
X177165000Y-49371250D03*
%TO.P,J4,22,Pin_22*%
%TO.N,unconnected-(J4-Pin_22-Pad22)*%
X174625000Y-49371250D03*
%TO.P,J4,23,Pin_23*%
%TO.N,Row2R*%
X172085000Y-49371250D03*
%TO.P,J4,24,Pin_24*%
%TO.N,Row3R*%
X169545000Y-49371250D03*
%TD*%
D10*
%TO.P,MX45,1,1*%
%TO.N,Col2R*%
X197008750Y-117028750D03*
%TO.P,MX45,2,2*%
%TO.N,Net-(D45-A)*%
X203358750Y-114488750D03*
%TD*%
%TO.P,MX3,1,1*%
%TO.N,Col2*%
X61971250Y-63847500D03*
%TO.P,MX3,2,2*%
%TO.N,Net-(D3-A)*%
X68321250Y-61307500D03*
%TD*%
%TO.P,MX46,1,1*%
%TO.N,Col3R*%
X216040000Y-121003750D03*
%TO.P,MX46,2,2*%
%TO.N,Net-(D46-A)*%
X222390000Y-118463750D03*
%TD*%
%TO.P,MX41,1,1*%
%TO.N,Col4R*%
X235108750Y-105916250D03*
%TO.P,MX41,2,2*%
%TO.N,Net-(D41-A)*%
X241458750Y-103376250D03*
%TD*%
%TO.P,MX20,1,1*%
%TO.N,Col1*%
X42921250Y-124966250D03*
%TO.P,MX20,2,2*%
%TO.N,Net-(D20-A)*%
X49271250Y-122426250D03*
%TD*%
%TO.P,MX22,1,1*%
%TO.N,Col3*%
X81021250Y-116966250D03*
%TO.P,MX22,2,2*%
%TO.N,Net-(D22-A)*%
X87371250Y-114426250D03*
%TD*%
%TO.P,MX33,1,1*%
%TO.N,Col2R*%
X197008750Y-78928750D03*
%TO.P,MX33,2,2*%
%TO.N,Net-(D33-A)*%
X203358750Y-76388750D03*
%TD*%
%TO.P,MX17,1,1*%
%TO.N,Col4*%
X100071250Y-101947500D03*
%TO.P,MX17,2,2*%
%TO.N,Net-(D17-A)*%
X106421250Y-99407500D03*
%TD*%
%TO.P,MX5,1,1*%
%TO.N,Col4*%
X100071250Y-63847500D03*
%TO.P,MX5,2,2*%
%TO.N,Net-(D5-A)*%
X106421250Y-61307500D03*
%TD*%
%TO.P,MX9,1,1*%
%TO.N,Col2*%
X61971250Y-82897500D03*
%TO.P,MX9,2,2*%
%TO.N,Net-(D9-A)*%
X68321250Y-80357500D03*
%TD*%
%TO.P,MX34,1,1*%
%TO.N,Col3R*%
X216058750Y-82897500D03*
%TO.P,MX34,2,2*%
%TO.N,Net-(D34-A)*%
X222408750Y-80357500D03*
%TD*%
%TO.P,MX32,1,1*%
%TO.N,Col1R*%
X177958750Y-82897500D03*
%TO.P,MX32,2,2*%
%TO.N,Net-(D32-A)*%
X184308750Y-80357500D03*
%TD*%
%TO.P,MX48,1,1*%
%TO.N,Col5R*%
X254158750Y-124966250D03*
%TO.P,MX48,2,2*%
%TO.N,Net-(D48-A)*%
X260508750Y-122426250D03*
%TD*%
%TO.P,MX40,1,1*%
%TO.N,Col3R*%
X216058750Y-101947500D03*
%TO.P,MX40,2,2*%
%TO.N,Net-(D40-A)*%
X222408750Y-99407500D03*
%TD*%
%TO.P,MX11,1,1*%
%TO.N,Col4*%
X100071250Y-82897500D03*
%TO.P,MX11,2,2*%
%TO.N,Net-(D11-A)*%
X106421250Y-80357500D03*
%TD*%
%TO.P,MX23,1,1*%
%TO.N,Col4*%
X100071250Y-120997500D03*
%TO.P,MX23,2,2*%
%TO.N,Net-(D23-A)*%
X106421250Y-118457500D03*
%TD*%
%TO.P,MX14,1,1*%
%TO.N,Col1*%
X42921250Y-105916250D03*
%TO.P,MX14,2,2*%
%TO.N,Net-(D14-A)*%
X49271250Y-103376250D03*
%TD*%
%TO.P,MX19,1,1*%
%TO.N,Col0*%
X23772500Y-124966250D03*
%TO.P,MX19,2,2*%
%TO.N,Net-(D19-A)*%
X30122500Y-122426250D03*
%TD*%
%TO.P,MX12,1,1*%
%TO.N,Col5*%
X119121250Y-82897500D03*
%TO.P,MX12,2,2*%
%TO.N,Net-(D12-A)*%
X125471250Y-80357500D03*
%TD*%
%TO.P,MX30,1,1*%
%TO.N,Col5R*%
X254158750Y-67816250D03*
%TO.P,MX30,2,2*%
%TO.N,Net-(D30-A)*%
X260508750Y-65276250D03*
%TD*%
%TO.P,MX10,1,1*%
%TO.N,Col3*%
X81021250Y-78866250D03*
%TO.P,MX10,2,2*%
%TO.N,Net-(D10-A)*%
X87371250Y-76326250D03*
%TD*%
%TO.P,MX2,1,1*%
%TO.N,Col1*%
X42921250Y-67816250D03*
%TO.P,MX2,2,2*%
%TO.N,Net-(D2-A)*%
X49271250Y-65276250D03*
%TD*%
%TO.P,MX42,1,1*%
%TO.N,Col5R*%
X254158750Y-105916250D03*
%TO.P,MX42,2,2*%
%TO.N,Net-(D42-A)*%
X260508750Y-103376250D03*
%TD*%
%TO.P,MX16,1,1*%
%TO.N,Col3*%
X81021250Y-97916250D03*
%TO.P,MX16,2,2*%
%TO.N,Net-(D16-A)*%
X87371250Y-95376250D03*
%TD*%
%TO.P,MX29,1,1*%
%TO.N,Col4R*%
X235108750Y-67816250D03*
%TO.P,MX29,2,2*%
%TO.N,Net-(D29-A)*%
X241458750Y-65276250D03*
%TD*%
%TO.P,MX28,1,1*%
%TO.N,Col3R*%
X216058750Y-63847500D03*
%TO.P,MX28,2,2*%
%TO.N,Net-(D28-A)*%
X222408750Y-61307500D03*
%TD*%
%TO.P,MX36,1,1*%
%TO.N,Col5R*%
X254158750Y-86866250D03*
%TO.P,MX36,2,2*%
%TO.N,Net-(D36-A)*%
X260508750Y-84326250D03*
%TD*%
%TO.P,MX13,1,1*%
%TO.N,Col0*%
X23871250Y-105916250D03*
%TO.P,MX13,2,2*%
%TO.N,Net-(D13-A)*%
X30221250Y-103376250D03*
%TD*%
%TO.P,MX4,1,1*%
%TO.N,Col3*%
X81021250Y-59816250D03*
%TO.P,MX4,2,2*%
%TO.N,Net-(D4-A)*%
X87371250Y-57276250D03*
%TD*%
%TO.P,MX38,1,1*%
%TO.N,Col1R*%
X177958750Y-101947500D03*
%TO.P,MX38,2,2*%
%TO.N,Net-(D38-A)*%
X184308750Y-99407500D03*
%TD*%
%TO.P,MX35,1,1*%
%TO.N,Col4R*%
X235108750Y-86866250D03*
%TO.P,MX35,2,2*%
%TO.N,Net-(D35-A)*%
X241458750Y-84326250D03*
%TD*%
%TO.P,MX6,1,1*%
%TO.N,Col5*%
X119121250Y-63847500D03*
%TO.P,MX6,2,2*%
%TO.N,Net-(D6-A)*%
X125471250Y-61307500D03*
%TD*%
D15*
%TO.P,D16,1,K*%
%TO.N,Row2*%
X88106250Y-105343750D03*
%TO.P,D16,2,A*%
%TO.N,Net-(D16-A)*%
X88106250Y-102043750D03*
%TD*%
%TO.P,D12,1,K*%
%TO.N,Row1*%
X126206250Y-90262500D03*
%TO.P,D12,2,A*%
%TO.N,Net-(D12-A)*%
X126206250Y-86962500D03*
%TD*%
%TO.P,D26,1,K*%
%TO.N,Row0R*%
X184943750Y-71212500D03*
%TO.P,D26,2,A*%
%TO.N,Net-(D26-A)*%
X184943750Y-67912500D03*
%TD*%
%TO.P,D17,1,K*%
%TO.N,Row2*%
X107156250Y-109312500D03*
%TO.P,D17,2,A*%
%TO.N,Net-(D17-A)*%
X107156250Y-106012500D03*
%TD*%
%TO.P,D10,1,K*%
%TO.N,Row1*%
X88106250Y-86293750D03*
%TO.P,D10,2,A*%
%TO.N,Net-(D10-A)*%
X88106250Y-82993750D03*
%TD*%
%TO.P,D44,1,K*%
%TO.N,Row3R*%
X184943750Y-128362500D03*
%TO.P,D44,2,A*%
%TO.N,Net-(D44-A)*%
X184943750Y-125062500D03*
%TD*%
%TO.P,D37,1,K*%
%TO.N,Row2R*%
X165893750Y-109250000D03*
%TO.P,D37,2,A*%
%TO.N,Net-(D37-A)*%
X165893750Y-105950000D03*
%TD*%
%TO.P,D34,1,K*%
%TO.N,Row1R*%
X223043750Y-90262500D03*
%TO.P,D34,2,A*%
%TO.N,Net-(D34-A)*%
X223043750Y-86962500D03*
%TD*%
%TO.P,D13,1,K*%
%TO.N,Row2*%
X30956250Y-113218750D03*
%TO.P,D13,2,A*%
%TO.N,Net-(D13-A)*%
X30956250Y-109918750D03*
%TD*%
%TO.P,D8,1,K*%
%TO.N,Row1*%
X50006250Y-94168750D03*
%TO.P,D8,2,A*%
%TO.N,Net-(D8-A)*%
X50006250Y-90868750D03*
%TD*%
%TO.P,D23,1,K*%
%TO.N,Row3*%
X107156250Y-128362500D03*
%TO.P,D23,2,A*%
%TO.N,Net-(D23-A)*%
X107156250Y-125062500D03*
%TD*%
%TO.P,D24,1,K*%
%TO.N,Row3*%
X126206250Y-128362500D03*
%TO.P,D24,2,A*%
%TO.N,Net-(D24-A)*%
X126206250Y-125062500D03*
%TD*%
%TO.P,D32,1,K*%
%TO.N,Row1R*%
X184943750Y-90262500D03*
%TO.P,D32,2,A*%
%TO.N,Net-(D32-A)*%
X184943750Y-86962500D03*
%TD*%
%TO.P,D14,1,K*%
%TO.N,Row2*%
X50006250Y-113218750D03*
%TO.P,D14,2,A*%
%TO.N,Net-(D14-A)*%
X50006250Y-109918750D03*
%TD*%
%TO.P,D28,1,K*%
%TO.N,Row0R*%
X223043750Y-71212500D03*
%TO.P,D28,2,A*%
%TO.N,Net-(D28-A)*%
X223043750Y-67912500D03*
%TD*%
%TO.P,D4,1,K*%
%TO.N,Row0*%
X88106250Y-67243750D03*
%TO.P,D4,2,A*%
%TO.N,Net-(D4-A)*%
X88106250Y-63943750D03*
%TD*%
%TO.P,D43,1,K*%
%TO.N,Row3R*%
X165893750Y-128300000D03*
%TO.P,D43,2,A*%
%TO.N,Net-(D43-A)*%
X165893750Y-125000000D03*
%TD*%
%TO.P,D38,1,K*%
%TO.N,Row2R*%
X184943750Y-109312500D03*
%TO.P,D38,2,A*%
%TO.N,Net-(D38-A)*%
X184943750Y-106012500D03*
%TD*%
%TO.P,D2,1,K*%
%TO.N,Row0*%
X50006250Y-75118750D03*
%TO.P,D2,2,A*%
%TO.N,Net-(D2-A)*%
X50006250Y-71818750D03*
%TD*%
%TO.P,D41,1,K*%
%TO.N,Row2R*%
X242093750Y-113281250D03*
%TO.P,D41,2,A*%
%TO.N,Net-(D41-A)*%
X242093750Y-109981250D03*
%TD*%
%TO.P,D21,1,K*%
%TO.N,Row3*%
X69056250Y-128362500D03*
%TO.P,D21,2,A*%
%TO.N,Net-(D21-A)*%
X69056250Y-125062500D03*
%TD*%
%TO.P,D6,1,K*%
%TO.N,Row0*%
X126206250Y-71150000D03*
%TO.P,D6,2,A*%
%TO.N,Net-(D6-A)*%
X126206250Y-67850000D03*
%TD*%
%TO.P,D47,1,K*%
%TO.N,Row3R*%
X242093750Y-133125000D03*
%TO.P,D47,2,A*%
%TO.N,Net-(D47-A)*%
X242093750Y-129825000D03*
%TD*%
%TO.P,D33,1,K*%
%TO.N,Row1R*%
X203993750Y-86293750D03*
%TO.P,D33,2,A*%
%TO.N,Net-(D33-A)*%
X203993750Y-82993750D03*
%TD*%
%TO.P,D48,1,K*%
%TO.N,Row3R*%
X261143750Y-132556250D03*
%TO.P,D48,2,A*%
%TO.N,Net-(D48-A)*%
X261143750Y-129256250D03*
%TD*%
%TO.P,D36,1,K*%
%TO.N,Row1R*%
X261143750Y-94456250D03*
%TO.P,D36,2,A*%
%TO.N,Net-(D36-A)*%
X261143750Y-91156250D03*
%TD*%
%TO.P,D7,1,K*%
%TO.N,Row1*%
X30956250Y-94168750D03*
%TO.P,D7,2,A*%
%TO.N,Net-(D7-A)*%
X30956250Y-90868750D03*
%TD*%
%TO.P,D3,1,K*%
%TO.N,Row0*%
X69056250Y-71212500D03*
%TO.P,D3,2,A*%
%TO.N,Net-(D3-A)*%
X69056250Y-67912500D03*
%TD*%
%TO.P,D22,1,K*%
%TO.N,Row3*%
X88106250Y-124393750D03*
%TO.P,D22,2,A*%
%TO.N,Net-(D22-A)*%
X88106250Y-121093750D03*
%TD*%
%TO.P,D20,1,K*%
%TO.N,Row3*%
X50006250Y-132268750D03*
%TO.P,D20,2,A*%
%TO.N,Net-(D20-A)*%
X50006250Y-128968750D03*
%TD*%
%TO.P,D27,1,K*%
%TO.N,Row0R*%
X203993750Y-67243750D03*
%TO.P,D27,2,A*%
%TO.N,Net-(D27-A)*%
X203993750Y-63943750D03*
%TD*%
%TO.P,D30,1,K*%
%TO.N,Row0R*%
X261143750Y-75406250D03*
%TO.P,D30,2,A*%
%TO.N,Net-(D30-A)*%
X261143750Y-72106250D03*
%TD*%
%TO.P,D45,1,K*%
%TO.N,Row3R*%
X203993750Y-124331250D03*
%TO.P,D45,2,A*%
%TO.N,Net-(D45-A)*%
X203993750Y-121031250D03*
%TD*%
%TO.P,D39,1,K*%
%TO.N,Row2R*%
X203993750Y-105343750D03*
%TO.P,D39,2,A*%
%TO.N,Net-(D39-A)*%
X203993750Y-102043750D03*
%TD*%
%TO.P,D5,1,K*%
%TO.N,Row0*%
X107156250Y-71212500D03*
%TO.P,D5,2,A*%
%TO.N,Net-(D5-A)*%
X107156250Y-67912500D03*
%TD*%
%TO.P,D42,1,K*%
%TO.N,Row2R*%
X261143750Y-113506250D03*
%TO.P,D42,2,A*%
%TO.N,Net-(D42-A)*%
X261143750Y-110206250D03*
%TD*%
%TO.P,D35,1,K*%
%TO.N,Row1R*%
X242093750Y-94231250D03*
%TO.P,D35,2,A*%
%TO.N,Net-(D35-A)*%
X242093750Y-90931250D03*
%TD*%
%TO.P,D15,1,K*%
%TO.N,Row2*%
X69056250Y-109312500D03*
%TO.P,D15,2,A*%
%TO.N,Net-(D15-A)*%
X69056250Y-106012500D03*
%TD*%
%TO.P,D46,1,K*%
%TO.N,Row3R*%
X223043750Y-128362500D03*
%TO.P,D46,2,A*%
%TO.N,Net-(D46-A)*%
X223043750Y-125062500D03*
%TD*%
%TO.P,D31,1,K*%
%TO.N,Row1R*%
X165893750Y-90262500D03*
%TO.P,D31,2,A*%
%TO.N,Net-(D31-A)*%
X165893750Y-86962500D03*
%TD*%
%TO.P,D19,1,K*%
%TO.N,Row3*%
X30956250Y-132268750D03*
%TO.P,D19,2,A*%
%TO.N,Net-(D19-A)*%
X30956250Y-128968750D03*
%TD*%
%TO.P,D1,1,K*%
%TO.N,Row0*%
X30956250Y-75118750D03*
%TO.P,D1,2,A*%
%TO.N,Net-(D1-A)*%
X30956250Y-71818750D03*
%TD*%
%TO.P,D9,1,K*%
%TO.N,Row1*%
X69056250Y-90262500D03*
%TO.P,D9,2,A*%
%TO.N,Net-(D9-A)*%
X69056250Y-86962500D03*
%TD*%
%TO.P,D18,1,K*%
%TO.N,Row2*%
X126206250Y-109312500D03*
%TO.P,D18,2,A*%
%TO.N,Net-(D18-A)*%
X126206250Y-106012500D03*
%TD*%
%TO.P,D25,1,K*%
%TO.N,Row0R*%
X165893750Y-71212500D03*
%TO.P,D25,2,A*%
%TO.N,Net-(D25-A)*%
X165893750Y-67912500D03*
%TD*%
%TO.P,D40,1,K*%
%TO.N,Row2R*%
X223043750Y-109312500D03*
%TO.P,D40,2,A*%
%TO.N,Net-(D40-A)*%
X223043750Y-106012500D03*
%TD*%
%TO.P,D11,1,K*%
%TO.N,Row1*%
X107156250Y-90262500D03*
%TO.P,D11,2,A*%
%TO.N,Net-(D11-A)*%
X107156250Y-86962500D03*
%TD*%
%TO.P,D29,1,K*%
%TO.N,Row0R*%
X242093750Y-75243750D03*
%TO.P,D29,2,A*%
%TO.N,Net-(D29-A)*%
X242093750Y-71943750D03*
%TD*%
D16*
%TO.N,Row2R*%
X155575000Y-107950000D03*
%TO.N,Col5R*%
X182562500Y-41275000D03*
X187325000Y-41275000D03*
%TO.N,Col2R*%
X188912500Y-56356250D03*
X185737500Y-42862500D03*
X162718750Y-54768750D03*
X171450000Y-42862500D03*
%TD*%
D17*
%TO.N,Row0R*%
X169023750Y-63021890D02*
X169023750Y-68082500D01*
X169023750Y-68082500D02*
X165893750Y-71212500D01*
X165533110Y-59531250D02*
X169023750Y-63021890D01*
X153987500Y-55562500D02*
X157956250Y-59531250D01*
X153987500Y-52387500D02*
X153987500Y-55562500D01*
X157956250Y-59531250D02*
X165533110Y-59531250D01*
X154781250Y-44450000D02*
X154781250Y-51593750D01*
X163900000Y-35331250D02*
X154781250Y-44450000D01*
X170885000Y-35331250D02*
X163900000Y-35331250D01*
X154781250Y-51593750D02*
X153987500Y-52387500D01*
X172085000Y-34131250D02*
X170885000Y-35331250D01*
%TO.N,Net-(J4-Pin_2)*%
X191770000Y-37306250D02*
X194945000Y-34131250D01*
X156368750Y-46831250D02*
X165893750Y-37306250D01*
X157231250Y-52456250D02*
X156368750Y-51593750D01*
X156368750Y-51593750D02*
X156368750Y-46831250D01*
X165893750Y-37306250D02*
X191770000Y-37306250D01*
X160056250Y-52456250D02*
X157231250Y-52456250D01*
%TO.N,Net-(D1-A)*%
X30826250Y-65881250D02*
X30956250Y-65881250D01*
X30956250Y-65881250D02*
X30956250Y-71818750D01*
X30221250Y-65276250D02*
X30826250Y-65881250D01*
%TO.N,Row0*%
X80393750Y-71212500D02*
X84362500Y-67243750D01*
X107725000Y-71212500D02*
X107787500Y-71150000D01*
X88106250Y-67243750D02*
X88331250Y-67243750D01*
X58231250Y-75118750D02*
X60325000Y-73025000D01*
X84362500Y-67243750D02*
X88106250Y-67243750D01*
X50006250Y-75118750D02*
X58231250Y-75118750D01*
X111918750Y-50958750D02*
X111918750Y-69850000D01*
X113665000Y-49212500D02*
X111918750Y-50958750D01*
X30956250Y-75118750D02*
X50006250Y-75118750D01*
X88331250Y-67243750D02*
X92300000Y-71212500D01*
X60325000Y-73025000D02*
X61118750Y-73025000D01*
X107787500Y-71150000D02*
X126206250Y-71150000D01*
X62931250Y-71212500D02*
X69056250Y-71212500D01*
X110556250Y-71212500D02*
X107156250Y-71212500D01*
X92300000Y-71212500D02*
X107156250Y-71212500D01*
X69056250Y-71212500D02*
X80393750Y-71212500D01*
X111918750Y-69850000D02*
X110556250Y-71212500D01*
X107156250Y-71212500D02*
X107725000Y-71212500D01*
X61118750Y-73025000D02*
X62931250Y-71212500D01*
%TO.N,Net-(D2-A)*%
X50006250Y-65881250D02*
X50006250Y-71818750D01*
X49271250Y-65276250D02*
X49401250Y-65276250D01*
X50006250Y-65881250D02*
X49401250Y-65276250D01*
%TO.N,Net-(D3-A)*%
X69056250Y-61912500D02*
X69056250Y-67912500D01*
X68321250Y-61307500D02*
X68451250Y-61307500D01*
X69056250Y-61912500D02*
X68451250Y-61307500D01*
%TO.N,Net-(D4-A)*%
X88106250Y-57943750D02*
X87438750Y-57276250D01*
X87371250Y-57276250D02*
X87438750Y-57276250D01*
X88106250Y-57943750D02*
X88106250Y-63943750D01*
%TO.N,Net-(D5-A)*%
X106421250Y-61307500D02*
X106551250Y-61307500D01*
X107156250Y-61912500D02*
X107156250Y-67912500D01*
X107156250Y-61912500D02*
X106551250Y-61307500D01*
%TO.N,Net-(D6-A)*%
X125471250Y-61307500D02*
X125601250Y-61307500D01*
X126206250Y-61912500D02*
X126206250Y-67850000D01*
X126206250Y-61912500D02*
X125601250Y-61307500D01*
%TO.N,Net-(D7-A)*%
X30956250Y-84931250D02*
X30351250Y-84326250D01*
X30221250Y-84326250D02*
X30351250Y-84326250D01*
X30956250Y-84931250D02*
X30956250Y-90868750D01*
%TO.N,Row1*%
X126206250Y-90262500D02*
X107156250Y-90262500D01*
X18256250Y-94168750D02*
X30956250Y-94168750D01*
X75406250Y-90487500D02*
X75181250Y-90262500D01*
X113823750Y-46831250D02*
X88106250Y-46831250D01*
X92075000Y-90262500D02*
X88106250Y-86293750D01*
X107156250Y-90262500D02*
X92075000Y-90262500D01*
X80393750Y-86293750D02*
X76200000Y-90487500D01*
X58737500Y-60325000D02*
X58737500Y-61118750D01*
X58737500Y-61118750D02*
X56356250Y-63500000D01*
X18256250Y-63500000D02*
X18256250Y-94168750D01*
X69056250Y-90262500D02*
X60550000Y-90262500D01*
X116205000Y-49212500D02*
X113823750Y-46831250D01*
X73818750Y-58737500D02*
X60325000Y-58737500D01*
X56068750Y-94168750D02*
X50006250Y-94168750D01*
X88106250Y-86293750D02*
X80393750Y-86293750D01*
X88106250Y-46831250D02*
X85725000Y-49212500D01*
X75181250Y-90262500D02*
X69056250Y-90262500D01*
X85725000Y-49212500D02*
X85725000Y-53975000D01*
X56356250Y-63500000D02*
X18256250Y-63500000D01*
X82550000Y-57150000D02*
X75406250Y-57150000D01*
X85725000Y-53975000D02*
X82550000Y-57150000D01*
X76200000Y-90487500D02*
X75406250Y-90487500D01*
X60325000Y-58737500D02*
X58737500Y-60325000D01*
X30956250Y-94168750D02*
X50006250Y-94168750D01*
X75406250Y-57150000D02*
X73818750Y-58737500D01*
X56356250Y-94456250D02*
X56068750Y-94168750D01*
X60550000Y-90262500D02*
X56356250Y-94456250D01*
%TO.N,Net-(D8-A)*%
X50006250Y-85061250D02*
X50006250Y-90868750D01*
X49271250Y-84326250D02*
X50006250Y-85061250D01*
%TO.N,Net-(D9-A)*%
X69056250Y-80962500D02*
X68451250Y-80357500D01*
X69056250Y-80962500D02*
X69056250Y-86962500D01*
X68321250Y-80357500D02*
X68451250Y-80357500D01*
%TO.N,Net-(D10-A)*%
X87371250Y-76326250D02*
X87438750Y-76326250D01*
X88106250Y-76993750D02*
X87438750Y-76326250D01*
X88106250Y-76993750D02*
X88106250Y-82993750D01*
%TO.N,Net-(D11-A)*%
X106421250Y-80357500D02*
X106551250Y-80357500D01*
X107156250Y-80962500D02*
X107156250Y-86962500D01*
X107156250Y-80962500D02*
X106551250Y-80357500D01*
%TO.N,Net-(D12-A)*%
X126206250Y-80962500D02*
X125601250Y-80357500D01*
X126206250Y-80962500D02*
X126206250Y-86962500D01*
X125471250Y-80357500D02*
X125601250Y-80357500D01*
%TO.N,Row2*%
X113665000Y-33972500D02*
X113665000Y-43815000D01*
X115887500Y-46037500D02*
X116681250Y-46037500D01*
X88106250Y-105343750D02*
X94231250Y-105343750D01*
X128362500Y-109312500D02*
X126206250Y-109312500D01*
X69056250Y-109312500D02*
X74043750Y-109312500D01*
X58168750Y-109312500D02*
X69056250Y-109312500D01*
X113665000Y-43815000D02*
X115887500Y-46037500D01*
X30956250Y-113218750D02*
X50006250Y-113218750D01*
X78012500Y-105343750D02*
X88106250Y-105343750D01*
X119856250Y-58737500D02*
X124951860Y-58737500D01*
X119856250Y-49212500D02*
X119856250Y-58737500D01*
X116681250Y-46037500D02*
X119856250Y-49212500D01*
X125745610Y-59531250D02*
X129381250Y-59531250D01*
X74043750Y-109312500D02*
X78012500Y-105343750D01*
X94231250Y-105343750D02*
X98200000Y-109312500D01*
X107156250Y-109312500D02*
X126206250Y-109312500D01*
X128587500Y-109537500D02*
X128362500Y-109312500D01*
X50006250Y-113218750D02*
X54262500Y-113218750D01*
X98200000Y-109312500D02*
X107156250Y-109312500D01*
X129381250Y-108743750D02*
X128587500Y-109537500D01*
X129381250Y-59531250D02*
X129381250Y-108743750D01*
X54262500Y-113218750D02*
X58168750Y-109312500D01*
X124951860Y-58737500D02*
X125745610Y-59531250D01*
%TO.N,Net-(D13-A)*%
X30956250Y-103981250D02*
X30956250Y-109918750D01*
X30221250Y-103376250D02*
X30351250Y-103376250D01*
X30351250Y-103376250D02*
X30956250Y-103981250D01*
%TO.N,Net-(D14-A)*%
X50006250Y-103981250D02*
X50006250Y-109918750D01*
X49271250Y-103376250D02*
X49401250Y-103376250D01*
X50006250Y-103981250D02*
X49401250Y-103376250D01*
%TO.N,Net-(D15-A)*%
X68321250Y-99407500D02*
X68451250Y-99407500D01*
X69056250Y-100012500D02*
X69056250Y-106012500D01*
X69056250Y-100012500D02*
X68451250Y-99407500D01*
%TO.N,Net-(D16-A)*%
X88106250Y-96043750D02*
X87438750Y-95376250D01*
X88106250Y-96043750D02*
X88106250Y-102043750D01*
X87371250Y-95376250D02*
X87438750Y-95376250D01*
%TO.N,Net-(D17-A)*%
X107156250Y-100012500D02*
X107156250Y-106012500D01*
X107156250Y-100012500D02*
X106551250Y-99407500D01*
X106421250Y-99407500D02*
X106551250Y-99407500D01*
%TO.N,Net-(D18-A)*%
X125471250Y-99407500D02*
X125601250Y-99407500D01*
X126206250Y-100012500D02*
X125601250Y-99407500D01*
X126206250Y-100012500D02*
X126206250Y-106012500D01*
%TO.N,Row3*%
X50006250Y-132268750D02*
X51881250Y-132268750D01*
X100012500Y-128587500D02*
X100237500Y-128362500D01*
X130175000Y-56356250D02*
X132556250Y-58737500D01*
X132556250Y-58737500D02*
X132556250Y-126206250D01*
X122237500Y-48418750D02*
X122237500Y-56356250D01*
X116681250Y-43656250D02*
X117475000Y-43656250D01*
X56581250Y-128362500D02*
X69056250Y-128362500D01*
X122237500Y-56356250D02*
X130175000Y-56356250D01*
X100237500Y-128362500D02*
X107156250Y-128362500D01*
X76425000Y-124393750D02*
X88106250Y-124393750D01*
X88106250Y-124393750D02*
X95025000Y-124393750D01*
X117475000Y-43656250D02*
X122237500Y-48418750D01*
X99218750Y-128587500D02*
X100012500Y-128587500D01*
X116205000Y-43180000D02*
X116681250Y-43656250D01*
X69056250Y-128362500D02*
X72456250Y-128362500D01*
X107156250Y-128362500D02*
X126206250Y-128362500D01*
X55562500Y-128587500D02*
X56356250Y-128587500D01*
X72456250Y-128362500D02*
X76425000Y-124393750D01*
X56356250Y-128587500D02*
X56581250Y-128362500D01*
X30956250Y-132268750D02*
X50006250Y-132268750D01*
X132556250Y-126206250D02*
X130400000Y-128362500D01*
X51881250Y-132268750D02*
X55562500Y-128587500D01*
X130400000Y-128362500D02*
X126206250Y-128362500D01*
X95025000Y-124393750D02*
X99218750Y-128587500D01*
X116205000Y-33972500D02*
X116205000Y-43180000D01*
%TO.N,Net-(D19-A)*%
X30956250Y-123825000D02*
X30956250Y-128968750D01*
X30956250Y-123825000D02*
X30122500Y-122991250D01*
X30122500Y-122426250D02*
X30122500Y-122991250D01*
%TO.N,Net-(D20-A)*%
X50006250Y-123161250D02*
X50006250Y-128968750D01*
X49271250Y-122426250D02*
X50006250Y-123161250D01*
%TO.N,Net-(D21-A)*%
X68321250Y-118457500D02*
X69056250Y-119192500D01*
X69056250Y-119192500D02*
X69056250Y-125062500D01*
%TO.N,Net-(D22-A)*%
X88106250Y-115887500D02*
X88106250Y-121093750D01*
X87371250Y-114426250D02*
X87371250Y-115152500D01*
X87371250Y-115152500D02*
X88106250Y-115887500D01*
%TO.N,Net-(D23-A)*%
X106421250Y-118457500D02*
X106421250Y-119121250D01*
X107156250Y-119856250D02*
X106421250Y-119121250D01*
X107156250Y-119856250D02*
X107156250Y-125062500D01*
%TO.N,Net-(D24-A)*%
X126206250Y-119856250D02*
X125471250Y-119121250D01*
X125471250Y-118457500D02*
X125471250Y-119121250D01*
X126206250Y-119856250D02*
X126206250Y-125062500D01*
%TO.N,Row0R*%
X223043750Y-71212500D02*
X227075000Y-75243750D01*
X242725000Y-75243750D02*
X242887500Y-75406250D01*
X242093750Y-75243750D02*
X242725000Y-75243750D01*
X184943750Y-71212500D02*
X200025000Y-71212500D01*
X227075000Y-75243750D02*
X242093750Y-75243750D01*
X200025000Y-71212500D02*
X203993750Y-67243750D01*
X242887500Y-75406250D02*
X261143750Y-75406250D01*
X203993750Y-67243750D02*
X207962500Y-71212500D01*
X165893750Y-71212500D02*
X184943750Y-71212500D01*
X207962500Y-71212500D02*
X223043750Y-71212500D01*
%TO.N,Row1R*%
X200025000Y-90262500D02*
X203993750Y-86293750D01*
X153193750Y-84931250D02*
X158525000Y-90262500D01*
X223043750Y-90262500D02*
X227012500Y-94231250D01*
X227012500Y-94231250D02*
X242093750Y-94231250D01*
X184943750Y-90262500D02*
X200025000Y-90262500D01*
X169545000Y-34131250D02*
X162718750Y-34131250D01*
X153193750Y-43656250D02*
X153193750Y-84931250D01*
X207962500Y-90262500D02*
X223043750Y-90262500D01*
X203993750Y-86293750D02*
X207962500Y-90262500D01*
X165893750Y-90262500D02*
X184943750Y-90262500D01*
X158525000Y-90262500D02*
X165893750Y-90262500D01*
X162718750Y-34131250D02*
X153193750Y-43656250D01*
X242093750Y-94231250D02*
X260918750Y-94231250D01*
X260918750Y-94231250D02*
X261143750Y-94456250D01*
%TO.N,Row2R*%
X229168750Y-109312500D02*
X233137500Y-113281250D01*
X203993750Y-105343750D02*
X209325000Y-105343750D01*
X165893750Y-109250000D02*
X156875000Y-109250000D01*
X184943750Y-109312500D02*
X190725000Y-109312500D01*
X209325000Y-105343750D02*
X213293750Y-109312500D01*
X184881250Y-109250000D02*
X184943750Y-109312500D01*
X223043750Y-109312500D02*
X229168750Y-109312500D01*
X190725000Y-109312500D02*
X194693750Y-105343750D01*
X194693750Y-105343750D02*
X203993750Y-105343750D01*
X233137500Y-113281250D02*
X242093750Y-113281250D01*
X260918750Y-113281250D02*
X261143750Y-113506250D01*
X156875000Y-109250000D02*
X155575000Y-107950000D01*
X242093750Y-113281250D02*
X260918750Y-113281250D01*
X213293750Y-109312500D02*
X223043750Y-109312500D01*
X165893750Y-109250000D02*
X184881250Y-109250000D01*
%TO.N,Row3R*%
X184881250Y-128300000D02*
X184943750Y-128362500D01*
X264318750Y-132556250D02*
X261143750Y-132556250D01*
X223043750Y-128362500D02*
X229168750Y-128362500D01*
X215331250Y-128362500D02*
X223043750Y-128362500D01*
X184943750Y-128362500D02*
X186756250Y-128362500D01*
X207962500Y-53975000D02*
X213518750Y-59531250D01*
X165893750Y-128300000D02*
X184881250Y-128300000D01*
X227012500Y-59531250D02*
X230187500Y-62706250D01*
X210850000Y-124331250D02*
X215106250Y-128587500D01*
X215106250Y-128587500D02*
X215331250Y-128362500D01*
X250825000Y-132556250D02*
X261143750Y-132556250D01*
X192593750Y-124331250D02*
X203993750Y-124331250D01*
X203993750Y-124331250D02*
X210850000Y-124331250D01*
X192087500Y-123825000D02*
X192593750Y-124331250D01*
X171767500Y-51593750D02*
X198437500Y-51593750D01*
X213518750Y-59531250D02*
X227012500Y-59531250D01*
X250256250Y-133125000D02*
X250825000Y-132556250D01*
X268287500Y-128587500D02*
X264318750Y-132556250D01*
X268287500Y-62706250D02*
X268287500Y-128587500D01*
X198437500Y-51593750D02*
X200818750Y-53975000D01*
X242093750Y-133125000D02*
X250256250Y-133125000D01*
X169545000Y-49371250D02*
X171767500Y-51593750D01*
X191293750Y-123825000D02*
X192087500Y-123825000D01*
X230187500Y-62706250D02*
X268287500Y-62706250D01*
X186756250Y-128362500D02*
X191293750Y-123825000D01*
X233931250Y-133125000D02*
X242093750Y-133125000D01*
X229168750Y-128362500D02*
X233931250Y-133125000D01*
X200818750Y-53975000D02*
X207962500Y-53975000D01*
%TO.N,Net-(J1-Pin_14)*%
X124831250Y-45456250D02*
X124618750Y-45243750D01*
X118268750Y-31750000D02*
X93027500Y-31750000D01*
X93027500Y-31750000D02*
X90805000Y-33972500D01*
X124618750Y-45243750D02*
X124618750Y-42862500D01*
X119062500Y-39687500D02*
X119062500Y-35132943D01*
X124618750Y-42862500D02*
X121443750Y-39687500D01*
X118268750Y-34339193D02*
X118268750Y-31750000D01*
X129893750Y-45456250D02*
X124831250Y-45456250D01*
X119062500Y-35132943D02*
X118268750Y-34339193D01*
X121443750Y-39687500D02*
X119062500Y-39687500D01*
%TO.N,Net-(J4-Pin_14)*%
X160056250Y-45456250D02*
X191030000Y-45456250D01*
X191030000Y-45456250D02*
X194945000Y-49371250D01*
%TO.N,Net-(J4-Pin_16)*%
X163512500Y-53706693D02*
X163512500Y-50800000D01*
X163512500Y-50800000D02*
X167481250Y-46831250D01*
X167481250Y-46831250D02*
X187325000Y-46831250D01*
X163262943Y-53956250D02*
X163512500Y-53706693D01*
X155856250Y-53956250D02*
X163262943Y-53956250D01*
X187325000Y-46831250D02*
X189865000Y-49371250D01*
%TO.N,Col5R*%
X187325000Y-41275000D02*
X182562500Y-41275000D01*
%TO.N,Col2R*%
X187325000Y-54768750D02*
X188912500Y-56356250D01*
X162718750Y-54768750D02*
X187325000Y-54768750D01*
X185737500Y-42862500D02*
X171450000Y-42862500D01*
%TO.N,Net-(D25-A)*%
X165258750Y-61307500D02*
X165288750Y-61307500D01*
X165893750Y-61912500D02*
X165288750Y-61307500D01*
X165893750Y-61912500D02*
X165893750Y-67912500D01*
%TO.N,Net-(D26-A)*%
X184308750Y-61307500D02*
X184338750Y-61307500D01*
X184943750Y-61912500D02*
X184338750Y-61307500D01*
X184943750Y-61912500D02*
X184943750Y-67912500D01*
%TO.N,Net-(D27-A)*%
X203993750Y-57943750D02*
X203388750Y-57338750D01*
X203358750Y-57338750D02*
X203388750Y-57338750D01*
X203993750Y-57943750D02*
X203993750Y-63943750D01*
%TO.N,Net-(D28-A)*%
X223043750Y-61912500D02*
X223043750Y-67912500D01*
X223043750Y-61912500D02*
X222438750Y-61307500D01*
X222408750Y-61307500D02*
X222438750Y-61307500D01*
%TO.N,Net-(D29-A)*%
X242093750Y-65881250D02*
X242093750Y-71943750D01*
X242093750Y-65881250D02*
X241488750Y-65276250D01*
X241458750Y-65276250D02*
X241488750Y-65276250D01*
%TO.N,Net-(D30-A)*%
X261143750Y-65881250D02*
X260538750Y-65276250D01*
X261143750Y-65881250D02*
X261143750Y-72106250D01*
X260508750Y-65276250D02*
X260538750Y-65276250D01*
%TO.N,Net-(D31-A)*%
X165893750Y-80962500D02*
X165893750Y-86962500D01*
X165893750Y-80962500D02*
X165288750Y-80357500D01*
X165258750Y-80357500D02*
X165288750Y-80357500D01*
%TO.N,Net-(D32-A)*%
X184913750Y-80962500D02*
X184943750Y-80962500D01*
X184308750Y-80357500D02*
X184913750Y-80962500D01*
X184943750Y-80962500D02*
X184943750Y-86962500D01*
%TO.N,Net-(D33-A)*%
X203358750Y-76388750D02*
X203388750Y-76388750D01*
X203388750Y-76388750D02*
X203993750Y-76993750D01*
X203993750Y-76993750D02*
X203993750Y-82993750D01*
%TO.N,Net-(D34-A)*%
X223043750Y-80962500D02*
X223043750Y-86962500D01*
X223043750Y-80962500D02*
X222438750Y-80357500D01*
X222408750Y-80357500D02*
X222438750Y-80357500D01*
%TO.N,Net-(D35-A)*%
X241458750Y-84326250D02*
X241488750Y-84326250D01*
X242093750Y-84931250D02*
X241488750Y-84326250D01*
X242093750Y-84931250D02*
X242093750Y-90931250D01*
%TO.N,Net-(D36-A)*%
X260508750Y-84326250D02*
X260538750Y-84326250D01*
X261143750Y-84931250D02*
X261143750Y-91156250D01*
X261143750Y-84931250D02*
X260538750Y-84326250D01*
%TO.N,Net-(D37-A)*%
X165288750Y-99407500D02*
X165893750Y-100012500D01*
X165258750Y-99407500D02*
X165288750Y-99407500D01*
X165893750Y-100012500D02*
X165893750Y-105950000D01*
%TO.N,Net-(D38-A)*%
X184308750Y-99407500D02*
X184338750Y-99407500D01*
X184338750Y-99407500D02*
X184943750Y-100012500D01*
X184943750Y-100012500D02*
X184943750Y-106012500D01*
%TO.N,Net-(D39-A)*%
X203358750Y-95438750D02*
X203963750Y-96043750D01*
X203963750Y-96043750D02*
X203993750Y-96043750D01*
X203993750Y-96043750D02*
X203993750Y-102043750D01*
%TO.N,Net-(D40-A)*%
X222408750Y-99407500D02*
X223043750Y-100042500D01*
X223043750Y-100042500D02*
X223043750Y-106012500D01*
%TO.N,Net-(D41-A)*%
X242093750Y-103981250D02*
X242093750Y-109981250D01*
X241458750Y-103376250D02*
X241488750Y-103376250D01*
X242093750Y-103981250D02*
X241488750Y-103376250D01*
%TO.N,Net-(D42-A)*%
X261143750Y-104011250D02*
X261143750Y-110206250D01*
X260508750Y-103376250D02*
X261143750Y-104011250D01*
%TO.N,Net-(D43-A)*%
X165893750Y-119092500D02*
X165893750Y-125000000D01*
X165258750Y-118457500D02*
X165893750Y-119092500D01*
%TO.N,Net-(D44-A)*%
X184308750Y-118457500D02*
X184943750Y-119092500D01*
X184943750Y-119092500D02*
X184943750Y-125062500D01*
%TO.N,Net-(D45-A)*%
X203993750Y-115887500D02*
X203993750Y-121031250D01*
X203993750Y-115887500D02*
X203358750Y-115252500D01*
X203358750Y-114488750D02*
X203358750Y-115252500D01*
%TO.N,Net-(D46-A)*%
X222390000Y-118463750D02*
X222390000Y-119202500D01*
X223043750Y-119856250D02*
X223043750Y-125062500D01*
X223043750Y-119856250D02*
X222390000Y-119202500D01*
%TO.N,Net-(D47-A)*%
X241458750Y-122426250D02*
X242093750Y-123061250D01*
X242093750Y-123061250D02*
X242093750Y-129825000D01*
%TO.N,Net-(D48-A)*%
X260508750Y-123190000D02*
X261143750Y-123825000D01*
X260508750Y-122426250D02*
X260508750Y-123190000D01*
X261143750Y-123825000D02*
X261143750Y-129256250D01*
%TD*%
M02*
