%TF.GenerationSoftware,KiCad,Pcbnew,8.0.2*%
%TF.CreationDate,2024-05-01T20:17:27+07:00*%
%TF.ProjectId,apiratchai_split,61706972-6174-4636-9861-695f73706c69,rev?*%
%TF.SameCoordinates,Original*%
%TF.FileFunction,Profile,NP*%
%FSLAX46Y46*%
G04 Gerber Fmt 4.6, Leading zero omitted, Abs format (unit mm)*
G04 Created by KiCad (PCBNEW 8.0.2) date 2024-05-01 20:17:27*
%MOMM*%
%LPD*%
G01*
G04 APERTURE LIST*
%TA.AperFunction,Profile*%
%ADD10C,0.050000*%
%TD*%
G04 APERTURE END LIST*
D10*
X226218750Y-137318750D02*
X231775000Y-142875000D01*
X151606250Y-42862500D02*
X151606250Y-137318750D01*
X56356250Y-143668750D02*
X62706250Y-137318750D01*
X215106250Y-51593750D02*
X215106250Y-48418750D01*
X123825000Y-30162500D02*
X134937500Y-41275000D01*
X82550000Y-42862500D02*
X75406250Y-50006250D01*
X84137500Y-30162500D02*
X120650000Y-30162500D01*
X82550000Y-42862500D02*
X82550000Y-31750000D01*
X136525000Y-42862500D02*
X136525000Y-137318750D01*
X205581250Y-48418750D02*
X205581250Y-30162500D01*
X6350000Y-136525000D02*
X13493750Y-143668750D01*
X274637500Y-62706250D02*
X267493750Y-55562500D01*
X136525000Y-137318750D02*
X62706250Y-137318750D01*
X13493750Y-143668750D02*
X56356250Y-143668750D01*
X75406250Y-50006250D02*
X14287500Y-50006250D01*
X167481250Y-30162500D02*
X164306250Y-30162500D01*
X267493750Y-55562500D02*
X235743750Y-55562500D01*
X205581250Y-30162500D02*
X167481250Y-30162500D01*
X235743750Y-55562500D02*
X235743750Y-51593750D01*
X231775000Y-142875000D02*
X267493750Y-142875000D01*
X215106250Y-48418750D02*
X205581250Y-48418750D01*
X120650000Y-30162500D02*
X123825000Y-30162500D01*
X6350000Y-57943750D02*
X6350000Y-136525000D01*
X134937500Y-41275000D02*
X136525000Y-42862500D01*
X274637500Y-135731250D02*
X274637500Y-62706250D01*
X151606250Y-137318750D02*
X226218750Y-137318750D01*
X14287500Y-50006250D02*
X6350000Y-57943750D01*
X235743750Y-51593750D02*
X215106250Y-51593750D01*
X267493750Y-142875000D02*
X274637500Y-135731250D01*
X153193750Y-41275000D02*
X151606250Y-42862500D01*
X164306250Y-30162500D02*
X153193750Y-41275000D01*
X82550000Y-31750000D02*
X84137500Y-30162500D01*
M02*
