M48
; DRILL file {KiCad 8.0.2} date 2024-05-01T20:20:14+0700
; FORMAT={-:-/ absolute / inch / decimal}
; #@! TF.CreationDate,2024-05-01T20:20:14+07:00
; #@! TF.GenerationSoftware,Kicad,Pcbnew,8.0.2
; #@! TF.FileFunction,Plated,1,2,PTH
FMAT,2
INCH
; #@! TA.AperFunction,Plated,PTH,ViaDrill
T1C0.0118
; #@! TA.AperFunction,Plated,PTH,ComponentDrill
T2C0.0394
; #@! TA.AperFunction,Plated,PTH,ComponentDrill
T3C0.0600
%
G90
G05
T1
X6.125Y-4.25
X6.4062Y-2.1562
X6.75Y-1.6875
X7.1875Y-1.625
X7.3125Y-1.6875
X7.375Y-1.625
X7.4375Y-2.2188
T2
X3.475Y-1.3375
X3.475Y-1.9375
X3.575Y-1.3375
X3.575Y-1.9375
X3.675Y-1.3375
X3.675Y-1.9375
X3.775Y-1.3375
X3.775Y-1.9375
X3.875Y-1.3375
X3.875Y-1.9375
X3.975Y-1.3375
X3.975Y-1.9375
X4.075Y-1.3375
X4.075Y-1.9375
X4.175Y-1.3375
X4.175Y-1.9375
X4.275Y-1.3375
X4.275Y-1.9375
X4.375Y-1.3375
X4.375Y-1.9375
X4.475Y-1.3375
X4.475Y-1.9375
X4.575Y-1.3375
X4.575Y-1.9375
X6.675Y-1.3438
X6.675Y-1.9437
X6.775Y-1.3438
X6.775Y-1.9437
X6.875Y-1.3438
X6.875Y-1.9437
X6.975Y-1.3438
X6.975Y-1.9437
X7.075Y-1.3438
X7.075Y-1.9437
X7.175Y-1.3438
X7.175Y-1.9437
X7.275Y-1.3438
X7.275Y-1.9437
X7.375Y-1.3438
X7.375Y-1.9437
X7.475Y-1.3438
X7.475Y-1.9437
X7.575Y-1.3438
X7.575Y-1.9437
X7.675Y-1.3438
X7.675Y-1.9437
X7.775Y-1.3438
X7.775Y-1.9437
T3
X0.9359Y-4.9199
X0.9398Y-2.6699
X0.9398Y-3.4199
X0.9398Y-4.1699
X1.1859Y-4.8199
X1.1898Y-2.5699
X1.1898Y-3.3199
X1.1898Y-4.0699
X1.6898Y-2.6699
X1.6898Y-3.4199
X1.6898Y-4.1699
X1.6898Y-4.9199
X1.9398Y-2.5699
X1.9398Y-3.3199
X1.9398Y-4.0699
X1.9398Y-4.8199
X2.4398Y-2.5137
X2.4398Y-3.2637
X2.4398Y-4.0137
X2.4398Y-4.7637
X2.6898Y-2.4137
X2.6898Y-3.1637
X2.6898Y-3.9137
X2.6898Y-4.6637
X3.1898Y-2.355
X3.1898Y-3.105
X3.1898Y-3.855
X3.1898Y-4.605
X3.4398Y-2.255
X3.4398Y-3.005
X3.4398Y-3.755
X3.4398Y-4.505
X3.9398Y-2.5137
X3.9398Y-3.2637
X3.9398Y-4.0137
X3.9398Y-4.7637
X4.1898Y-2.4137
X4.1898Y-3.1637
X4.1898Y-3.9137
X4.1898Y-4.6637
X4.6898Y-2.5137
X4.6898Y-3.2637
X4.6898Y-4.0137
X4.6898Y-4.7637
X4.9398Y-2.4137
X4.9398Y-3.1637
X4.9398Y-3.9137
X4.9398Y-4.6637
X6.2562Y-2.5137
X6.2562Y-3.2637
X6.2562Y-4.0137
X6.2562Y-4.7637
X6.5062Y-2.4137
X6.5062Y-3.1637
X6.5062Y-3.9137
X6.5062Y-4.6637
X7.0062Y-2.5137
X7.0062Y-3.2637
X7.0062Y-4.0137
X7.0062Y-4.7637
X7.2562Y-2.4137
X7.2562Y-3.1637
X7.2562Y-3.9137
X7.2562Y-4.6637
X7.7562Y-2.3574
X7.7562Y-3.1074
X7.7562Y-3.8574
X7.7562Y-4.6074
X8.0062Y-2.2574
X8.0062Y-3.0074
X8.0062Y-3.7574
X8.0062Y-4.5074
X8.5055Y-4.7639
X8.5062Y-2.5137
X8.5062Y-3.2637
X8.5062Y-4.0137
X8.7555Y-4.6639
X8.7562Y-2.4137
X8.7562Y-3.1637
X8.7562Y-3.9137
X9.2562Y-2.6699
X9.2562Y-3.4199
X9.2562Y-4.1699
X9.2562Y-4.9199
X9.5062Y-2.5699
X9.5062Y-3.3199
X9.5062Y-4.0699
X9.5062Y-4.8199
X10.0062Y-2.6699
X10.0062Y-3.4199
X10.0062Y-4.1699
X10.0062Y-4.9199
X10.2562Y-2.5699
X10.2562Y-3.3199
X10.2562Y-4.0699
X10.2562Y-4.8199
T2
G00X4.9486Y-2.1144
M15
G01X4.9486Y-2.1341
M16
G05
G00X5.1139Y-1.7798
M15
G01X5.1139Y-1.7995
M16
G05
G00X5.1139Y-1.8979
M15
G01X5.1139Y-1.9176
M16
G05
G00X5.1139Y-2.0554
M15
G01X5.1139Y-2.075
M16
G05
G00X6.1361Y-2.1144
M15
G01X6.1361Y-2.1341
M16
G05
G00X6.3014Y-1.7798
M15
G01X6.3014Y-1.7995
M16
G05
G00X6.3014Y-1.8979
M15
G01X6.3014Y-1.9176
M16
G05
G00X6.3014Y-2.0554
M15
G01X6.3014Y-2.075
M16
G05
M30
